<?xml version="1.0" encoding="utf-8"?>
<!-- Generator: Adobe Illustrator 23.0.2, SVG Export Plug-In . SVG Version: 6.00 Build 0)  -->
<svg version="1.1" id="Layer_1" xmlns="http://www.w3.org/2000/svg" xmlns:xlink="http://www.w3.org/1999/xlink" x="0px" y="0px"
	 viewBox="0 0 210.73 62.42" style="enable-background:new 0 0 210.73 62.42;" xml:space="preserve">
<style type="text/css">
	.st0{fill:#E2E3E4;stroke:#333333;stroke-width:3;stroke-miterlimit:10;}
	.st1{fill:#E2E3E4;stroke:#333333;stroke-miterlimit:10;}
</style>
<path class="st0" d="M4.83,28.5L2.65,60.96h34.28c0,0,2.19-17.87,20.06-17.87s22.25,17.87,22.25,17.87h36.47
	c0,0,1.46-18.23,20.79-18.23s22.25,18.23,22.25,18.23h49.23V32.88L108.77,9.9L4.83,28.5z"/>
<rect x="16.5" y="43.82" class="st1" width="11.67" height="5.11"/>
<rect x="22.34" y="35.43" class="st1" width="11.67" height="5.11"/>
<rect x="103.61" y="32.88" class="st1" width="11.67" height="5.11"/>
<rect x="63.18" y="30.33" class="st1" width="11.67" height="5.11"/>
<rect x="78.87" y="30.33" class="st1" width="11.67" height="5.11"/>
<rect x="71.48" y="21.57" class="st1" width="11.67" height="5.11"/>
<rect x="112.42" y="21.57" class="st1" width="11.67" height="5.11"/>
<rect x="170.04" y="30.88" class="st1" width="11.67" height="5.11"/>
<rect x="162.01" y="39.27" class="st1" width="11.67" height="5.11"/>
</svg>
