<?xml version="1.0" encoding="utf-8"?>
<!-- Generator: Adobe Illustrator 23.0.1, SVG Export Plug-In . SVG Version: 6.00 Build 0)  -->
<svg version="1.1" id="Layer_1" xmlns="http://www.w3.org/2000/svg" xmlns:xlink="http://www.w3.org/1999/xlink" x="0px" y="0px"
	 viewBox="0 0 142.01 134.3" style="enable-background:new 0 0 142.01 134.3;" xml:space="preserve">
<style type="text/css">
	.st0{fill:#70CEEC;stroke:#3D3C45;stroke-width:3;stroke-miterlimit:10;}
	.st1{fill:none;stroke:#3D3C45;stroke-width:3;stroke-miterlimit:10;}
	.st2{fill:#A96128;stroke:#3D3C45;stroke-width:3;stroke-miterlimit:10;}
</style>
<g>
	<g>
		<g>
			<rect x="4.71" y="24.69" class="st0" width="39.73" height="108.06"/>
			<line class="st1" x1="12.63" y1="24.69" x2="12.63" y2="132.75"/>
			<line class="st1" x1="21.22" y1="24.69" x2="21.22" y2="132.75"/>
			<line class="st1" x1="31.02" y1="24.69" x2="31.02" y2="132.75"/>
			<line class="st1" x1="38.38" y1="24.69" x2="38.38" y2="132.75"/>
			<g>
				<rect x="4.71" y="41.83" class="st2" width="26.31" height="4.28"/>
				<rect x="4.71" y="60.44" class="st2" width="26.31" height="4.28"/>
				<rect x="4.71" y="79.05" class="st2" width="26.31" height="4.28"/>
				<rect x="4.71" y="97.67" class="st2" width="26.31" height="4.28"/>
				<rect x="4.71" y="116.28" class="st2" width="26.31" height="4.28"/>
			</g>
			<rect x="4.71" y="24.69" class="st2" width="39.73" height="3.29"/>
			<rect x="4.71" y="18.52" class="st2" width="39.73" height="6.18"/>
			<polygon class="st0" points="6.49,18.52 24.57,3.69 42.66,18.52 			"/>
		</g>
		<g>
			
				<rect x="97.48" y="24.69" transform="matrix(-1 -1.224647e-16 1.224647e-16 -1 234.6899 157.4484)" class="st0" width="39.73" height="108.06"/>
			<line class="st1" x1="129.29" y1="24.69" x2="129.29" y2="132.75"/>
			<line class="st1" x1="120.7" y1="24.69" x2="120.7" y2="132.75"/>
			<line class="st1" x1="110.9" y1="24.69" x2="110.9" y2="132.75"/>
			<line class="st1" x1="103.54" y1="24.69" x2="103.54" y2="132.75"/>
			<g>
				
					<rect x="110.9" y="41.83" transform="matrix(-1 -1.224647e-16 1.224647e-16 -1 248.1052 87.9342)" class="st2" width="26.31" height="4.28"/>
				
					<rect x="110.9" y="60.44" transform="matrix(-1 -1.224647e-16 1.224647e-16 -1 248.1052 125.1631)" class="st2" width="26.31" height="4.28"/>
				
					<rect x="110.9" y="79.05" transform="matrix(-1 -1.224647e-16 1.224647e-16 -1 248.1052 162.392)" class="st2" width="26.31" height="4.28"/>
				
					<rect x="110.9" y="97.67" transform="matrix(-1 -1.224647e-16 1.224647e-16 -1 248.1052 199.621)" class="st2" width="26.31" height="4.28"/>
				
					<rect x="110.9" y="116.28" transform="matrix(-1 -1.224647e-16 1.224647e-16 -1 248.1052 236.8499)" class="st2" width="26.31" height="4.28"/>
			</g>
			
				<rect x="97.48" y="24.69" transform="matrix(-1 -1.224647e-16 1.224647e-16 -1 234.6899 52.6835)" class="st2" width="39.73" height="3.29"/>
			
				<rect x="97.48" y="18.52" transform="matrix(-1 -1.224647e-16 1.224647e-16 -1 234.6899 43.2123)" class="st2" width="39.73" height="6.18"/>
			<polygon class="st0" points="135.43,18.52 117.34,3.69 99.26,18.52 			"/>
		</g>
	</g>
	<rect x="31.02" y="41.83" class="st2" width="79.88" height="90.93"/>
	<g>
		<g>
			<rect x="36.49" y="48.91" class="st0" width="5.38" height="7.58"/>
			<rect x="44.44" y="48.91" class="st0" width="5.38" height="7.58"/>
			<rect x="52.38" y="48.91" class="st0" width="5.38" height="7.58"/>
			<rect x="60.32" y="48.91" class="st0" width="5.38" height="7.58"/>
			<rect x="68.27" y="48.91" class="st0" width="5.38" height="7.58"/>
			<rect x="76.21" y="48.91" class="st0" width="5.38" height="7.58"/>
			<rect x="84.15" y="48.91" class="st0" width="5.38" height="7.58"/>
			<rect x="92.1" y="48.91" class="st0" width="5.38" height="7.58"/>
			<rect x="100.04" y="48.91" class="st0" width="5.38" height="7.58"/>
		</g>
		<g>
			<rect x="36.49" y="60.44" class="st0" width="5.38" height="7.58"/>
			<rect x="44.44" y="60.44" class="st0" width="5.38" height="7.58"/>
			<rect x="52.38" y="60.44" class="st0" width="5.38" height="7.58"/>
			<rect x="60.32" y="60.44" class="st0" width="5.38" height="7.58"/>
			<rect x="68.27" y="60.44" class="st0" width="5.38" height="7.58"/>
			<rect x="76.21" y="60.44" class="st0" width="5.38" height="7.58"/>
			<rect x="84.15" y="60.44" class="st0" width="5.38" height="7.58"/>
			<rect x="92.1" y="60.44" class="st0" width="5.38" height="7.58"/>
			<rect x="100.04" y="60.44" class="st0" width="5.38" height="7.58"/>
		</g>
		<g>
			<rect x="36.49" y="71.97" class="st0" width="5.38" height="7.58"/>
			<rect x="44.44" y="71.97" class="st0" width="5.38" height="7.58"/>
			<rect x="52.38" y="71.97" class="st0" width="5.38" height="7.58"/>
			<rect x="60.32" y="71.97" class="st0" width="5.38" height="7.58"/>
			<rect x="68.27" y="71.97" class="st0" width="5.38" height="7.58"/>
			<rect x="76.21" y="71.97" class="st0" width="5.38" height="7.58"/>
			<rect x="84.15" y="71.97" class="st0" width="5.38" height="7.58"/>
			<rect x="92.1" y="71.97" class="st0" width="5.38" height="7.58"/>
			<rect x="100.04" y="71.97" class="st0" width="5.38" height="7.58"/>
		</g>
		<g>
			<rect x="36.49" y="83.5" class="st0" width="5.38" height="7.58"/>
			<rect x="44.44" y="83.5" class="st0" width="5.38" height="7.58"/>
			<rect x="52.38" y="83.5" class="st0" width="5.38" height="7.58"/>
			<rect x="60.32" y="83.5" class="st0" width="5.38" height="7.58"/>
			<rect x="68.27" y="83.5" class="st0" width="5.38" height="7.58"/>
			<rect x="76.21" y="83.5" class="st0" width="5.38" height="7.58"/>
			<rect x="84.15" y="83.5" class="st0" width="5.38" height="7.58"/>
			<rect x="92.1" y="83.5" class="st0" width="5.38" height="7.58"/>
			<rect x="100.04" y="83.5" class="st0" width="5.38" height="7.58"/>
		</g>
		<g>
			<rect x="36.49" y="95.03" class="st0" width="5.38" height="7.58"/>
			<rect x="44.44" y="95.03" class="st0" width="5.38" height="7.58"/>
			<rect x="52.38" y="95.03" class="st0" width="5.38" height="7.58"/>
			<rect x="60.32" y="95.03" class="st0" width="5.38" height="7.58"/>
			<rect x="68.27" y="95.03" class="st0" width="5.38" height="7.58"/>
			<rect x="76.21" y="95.03" class="st0" width="5.38" height="7.58"/>
			<rect x="84.15" y="95.03" class="st0" width="5.38" height="7.58"/>
			<rect x="92.1" y="95.03" class="st0" width="5.38" height="7.58"/>
			<rect x="100.04" y="95.03" class="st0" width="5.38" height="7.58"/>
		</g>
		<g>
			<rect x="36.49" y="106.56" class="st0" width="5.38" height="7.58"/>
			<rect x="44.44" y="106.56" class="st0" width="5.38" height="7.58"/>
			<rect x="52.38" y="106.56" class="st0" width="5.38" height="7.58"/>
			<rect x="60.32" y="106.56" class="st0" width="5.38" height="7.58"/>
			<rect x="68.27" y="106.56" class="st0" width="5.38" height="7.58"/>
			<rect x="76.21" y="106.56" class="st0" width="5.38" height="7.58"/>
			<rect x="84.15" y="106.56" class="st0" width="5.38" height="7.58"/>
			<rect x="92.1" y="106.56" class="st0" width="5.38" height="7.58"/>
			<rect x="100.04" y="106.56" class="st0" width="5.38" height="7.58"/>
		</g>
		<g>
			<rect x="36.49" y="118.09" class="st0" width="5.38" height="7.58"/>
			<rect x="44.44" y="118.09" class="st0" width="5.38" height="7.58"/>
			<rect x="52.38" y="118.09" class="st0" width="5.38" height="7.58"/>
			<rect x="60.32" y="118.09" class="st0" width="5.38" height="7.58"/>
			<rect x="68.27" y="118.09" class="st0" width="5.38" height="7.58"/>
			<rect x="76.21" y="118.09" class="st0" width="5.38" height="7.58"/>
			<rect x="84.15" y="118.09" class="st0" width="5.38" height="7.58"/>
			<rect x="92.1" y="118.09" class="st0" width="5.38" height="7.58"/>
			<rect x="100.04" y="118.09" class="st0" width="5.38" height="7.58"/>
		</g>
	</g>
	<rect x="44.44" y="24.69" class="st2" width="53.05" height="17.13"/>
	<g>
		<line class="st1" x1="49.95" y1="27.99" x2="49.95" y2="41.83"/>
		<line class="st1" x1="55.2" y1="27.99" x2="55.2" y2="41.83"/>
		<line class="st1" x1="60.46" y1="27.99" x2="60.46" y2="41.83"/>
		<line class="st1" x1="65.71" y1="27.99" x2="65.71" y2="41.83"/>
		<line class="st1" x1="70.96" y1="27.99" x2="70.96" y2="41.83"/>
		<line class="st1" x1="76.21" y1="27.99" x2="76.21" y2="41.83"/>
		<line class="st1" x1="81.46" y1="27.99" x2="81.46" y2="41.83"/>
		<line class="st1" x1="86.71" y1="27.99" x2="86.71" y2="41.83"/>
		<line class="st1" x1="91.97" y1="27.99" x2="91.97" y2="41.83"/>
	</g>
	<line class="st1" x1="44.44" y1="27.99" x2="97.48" y2="27.99"/>
</g>
</svg>
