<?xml version="1.0" encoding="utf-8"?>
<!-- Generator: Adobe Illustrator 23.0.1, SVG Export Plug-In . SVG Version: 6.00 Build 0)  -->
<svg version="1.1" id="Layer_1" xmlns="http://www.w3.org/2000/svg" xmlns:xlink="http://www.w3.org/1999/xlink" x="0px" y="0px"
	 viewBox="0 0 105.39 235.53" style="enable-background:new 0 0 105.39 235.53;" xml:space="preserve">
<style type="text/css">
	.st0{fill:#F3ECCE;stroke:#3D3C45;stroke-width:3;stroke-miterlimit:10;}
	.st1{fill:#80807F;stroke:#3D3C45;stroke-width:3;stroke-miterlimit:10;}
	.st2{fill:#C7C3B3;stroke:#3D3C45;stroke-width:3;stroke-miterlimit:10;}
	.st3{fill:#6FCCEB;stroke:#3D3C45;stroke-width:3;stroke-miterlimit:10;}
</style>
<g>
	<g>
		<rect x="40.15" y="32.23" class="st0" width="6.92" height="22.44"/>
		<rect x="57.15" y="32.23" class="st0" width="6.92" height="22.44"/>
	</g>
	<polygon class="st0" points="60.47,50.79 60.47,54.4 43.75,54.4 43.75,50.79 37.41,50.79 37.41,85.06 66.81,85.06 66.81,50.79 	"/>
	<rect x="40.29" y="24.9" class="st0" width="23.63" height="7.33"/>
	<polygon class="st0" points="54.38,11.52 49.84,11.52 43.9,24.9 60.32,24.9 	"/>
	<path class="st1" d="M53.03,13h-1.85c-1.87,0-3.4-1.53-3.4-3.4V7.76c0-1.87,1.53-3.4,3.4-3.4h1.85c1.87,0,3.4,1.53,3.4,3.4V9.6
		C56.43,11.47,54.9,13,53.03,13z"/>
	<polygon class="st2" points="61.67,67.17 61.67,83.52 42.55,83.52 42.55,67.17 30.21,67.17 30.21,195.18 74.01,195.18 74.01,67.17 
			"/>
	<polygon class="st0" points="65.94,98.68 65.94,115.94 38.28,115.94 38.28,98.68 20.41,98.68 20.41,233.87 83.81,233.87 
		83.81,98.68 	"/>
	<g>
		<g>
			<rect x="28.77" y="126.15" class="st3" width="6.34" height="10.06"/>
			<rect x="38.85" y="126.15" class="st3" width="6.34" height="10.06"/>
			<rect x="48.94" y="126.15" class="st3" width="6.34" height="10.06"/>
			<rect x="59.03" y="126.15" class="st3" width="6.34" height="10.06"/>
			<rect x="69.11" y="126.15" class="st3" width="6.34" height="10.06"/>
		</g>
		<g>
			<rect x="28.77" y="142.4" class="st3" width="6.34" height="10.06"/>
			<rect x="38.85" y="142.4" class="st3" width="6.34" height="10.06"/>
			<rect x="48.94" y="142.4" class="st3" width="6.34" height="10.06"/>
			<rect x="59.03" y="142.4" class="st3" width="6.34" height="10.06"/>
			<rect x="69.11" y="142.4" class="st3" width="6.34" height="10.06"/>
		</g>
		<g>
			<rect x="28.77" y="158.66" class="st3" width="6.34" height="10.06"/>
			<rect x="38.85" y="158.66" class="st3" width="6.34" height="10.06"/>
			<rect x="48.94" y="158.66" class="st3" width="6.34" height="10.06"/>
			<rect x="59.03" y="158.66" class="st3" width="6.34" height="10.06"/>
			<rect x="69.11" y="158.66" class="st3" width="6.34" height="10.06"/>
		</g>
		<g>
			<rect x="28.77" y="174.91" class="st3" width="6.34" height="10.06"/>
			<rect x="38.85" y="174.91" class="st3" width="6.34" height="10.06"/>
			<rect x="48.94" y="174.91" class="st3" width="6.34" height="10.06"/>
			<rect x="59.03" y="174.91" class="st3" width="6.34" height="10.06"/>
			<rect x="69.11" y="174.91" class="st3" width="6.34" height="10.06"/>
		</g>
		<g>
			<rect x="28.77" y="191.17" class="st3" width="6.34" height="10.06"/>
			<rect x="38.85" y="191.17" class="st3" width="6.34" height="10.06"/>
			<rect x="48.94" y="191.17" class="st3" width="6.34" height="10.06"/>
			<rect x="59.03" y="191.17" class="st3" width="6.34" height="10.06"/>
			<rect x="69.11" y="191.17" class="st3" width="6.34" height="10.06"/>
		</g>
		<g>
			<rect x="28.77" y="207.42" class="st3" width="6.34" height="10.06"/>
			<rect x="38.85" y="207.42" class="st3" width="6.34" height="10.06"/>
			<rect x="48.94" y="207.42" class="st3" width="6.34" height="10.06"/>
			<rect x="59.03" y="207.42" class="st3" width="6.34" height="10.06"/>
			<rect x="69.11" y="207.42" class="st3" width="6.34" height="10.06"/>
		</g>
	</g>
	<g>
		<g>
			<g>
				<polygon class="st2" points="93.61,157.36 93.61,162.53 83.81,162.53 83.81,233.87 101.1,233.87 101.1,157.36 				"/>
			</g>
			<line class="st0" x1="83.81" y1="170.25" x2="92.46" y2="170.25"/>
			<line class="st0" x1="83.81" y1="174.91" x2="92.46" y2="174.91"/>
			<line class="st0" x1="83.81" y1="179.58" x2="92.46" y2="179.58"/>
			<line class="st0" x1="83.81" y1="184.25" x2="92.46" y2="184.25"/>
			<line class="st0" x1="83.81" y1="188.92" x2="92.46" y2="188.92"/>
			<line class="st0" x1="83.81" y1="193.59" x2="92.46" y2="193.59"/>
			<line class="st0" x1="83.81" y1="198.26" x2="92.46" y2="198.26"/>
			<line class="st0" x1="83.81" y1="202.93" x2="92.46" y2="202.93"/>
			<line class="st0" x1="83.81" y1="207.6" x2="92.46" y2="207.6"/>
			<line class="st0" x1="83.81" y1="212.26" x2="92.46" y2="212.26"/>
			<line class="st0" x1="83.81" y1="216.93" x2="92.46" y2="216.93"/>
		</g>
		<g>
			<g>
				<polygon class="st2" points="10.61,157.36 10.61,162.53 20.41,162.53 20.41,233.87 3.12,233.87 3.12,157.36 				"/>
			</g>
			<line class="st0" x1="20.41" y1="170.25" x2="11.76" y2="170.25"/>
			<line class="st0" x1="20.41" y1="174.91" x2="11.76" y2="174.91"/>
			<line class="st0" x1="20.41" y1="179.58" x2="11.76" y2="179.58"/>
			<line class="st0" x1="20.41" y1="184.25" x2="11.76" y2="184.25"/>
			<line class="st0" x1="20.41" y1="188.92" x2="11.76" y2="188.92"/>
			<line class="st0" x1="20.41" y1="193.59" x2="11.76" y2="193.59"/>
			<line class="st0" x1="20.41" y1="198.26" x2="11.76" y2="198.26"/>
			<line class="st0" x1="20.41" y1="202.93" x2="11.76" y2="202.93"/>
			<line class="st0" x1="20.41" y1="207.6" x2="11.76" y2="207.6"/>
			<line class="st0" x1="20.41" y1="212.26" x2="11.76" y2="212.26"/>
			<line class="st0" x1="20.41" y1="216.93" x2="11.76" y2="216.93"/>
		</g>
	</g>
	<line class="st0" x1="3.12" y1="222.79" x2="101.1" y2="222.79"/>
	<g>
		<line class="st0" x1="36.26" y1="86.6" x2="36.26" y2="91.78"/>
		<line class="st0" x1="42.6" y1="86.6" x2="42.6" y2="91.78"/>
		<line class="st0" x1="48.94" y1="86.6" x2="48.94" y2="91.78"/>
		<line class="st0" x1="55.28" y1="86.6" x2="55.28" y2="91.78"/>
		<line class="st0" x1="61.62" y1="86.6" x2="61.62" y2="91.78"/>
		<line class="st0" x1="67.96" y1="86.6" x2="67.96" y2="91.78"/>
	</g>
	<ellipse class="st2" cx="52.11" cy="67.17" rx="5.48" ry="5.47"/>
	<g>
		<line class="st0" x1="45.77" y1="95.41" x2="45.77" y2="109.5"/>
		<line class="st0" x1="52.11" y1="95.41" x2="52.11" y2="109.5"/>
		<line class="st0" x1="58.45" y1="95.41" x2="58.45" y2="109.5"/>
	</g>
</g>
</svg>
