<?xml version="1.0" encoding="utf-8"?>
<!-- Generator: Adobe Illustrator 23.0.1, SVG Export Plug-In . SVG Version: 6.00 Build 0)  -->
<svg version="1.1" id="Layer_1" xmlns="http://www.w3.org/2000/svg" xmlns:xlink="http://www.w3.org/1999/xlink" x="0px" y="0px"
	 viewBox="0 0 561.81 112.42" style="enable-background:new 0 0 561.81 112.42;" xml:space="preserve">
<style type="text/css">
	.st0{fill:#65BB46;stroke:#3D3C45;stroke-width:3;stroke-miterlimit:10;}
	.st1{fill:#F05924;stroke:#3D3C45;stroke-width:3;stroke-miterlimit:10;}
	.st2{fill:#B2AF9D;stroke:#3D3C45;stroke-width:3;stroke-miterlimit:10;}
	.st3{fill:#6FCCEB;stroke:#3C3C47;stroke-width:3;stroke-miterlimit:10;}
	.st4{fill:#F3ECCE;stroke:#3D3C45;stroke-width:3;stroke-miterlimit:10;}
	.st5{fill:none;stroke:#3D3C45;stroke-width:3;stroke-miterlimit:10;}
	.st6{fill:#808184;stroke:#3D3C45;stroke-width:3;stroke-miterlimit:10;}
	.st7{fill:#EE4036;stroke:#3D3C45;stroke-width:3;stroke-miterlimit:10;}
	.st8{fill:#BE1E2D;stroke:#3D3C45;stroke-width:3;stroke-miterlimit:10;}
	.st9{fill:#3B9846;stroke:#3D3C45;stroke-width:3;stroke-miterlimit:10;}
</style>
<path class="st0" d="M11.96,111.21l106.13-47.34l66.82-46.1c13.85-11.83,100.1-20.37,113.25-7.76l58.8,26.41
	c0,0,28.03,14.29,49.54,14.29s55.62-6.78,68.98,9.26l81.35,51.23H11.96z"/>
<g>
	<polygon class="st1" points="348.55,50.72 406.49,50.72 419.85,30.48 361.9,30.48 	"/>
	<polygon class="st2" points="406.49,106.41 433.2,106.41 433.2,50.72 419.85,30.48 406.49,50.72 	"/>
	<g>
		
			<rect x="424.15" y="54.6" transform="matrix(-1 -4.453694e-11 4.453694e-11 -1 853.0423 119.9615)" class="st3" width="4.74" height="10.77"/>
		
			<rect x="410.8" y="54.6" transform="matrix(-1 -4.607304e-11 4.607304e-11 -1 826.3389 119.9615)" class="st3" width="4.74" height="10.77"/>
	</g>
	<g>
		
			<rect x="424.15" y="71.18" transform="matrix(-1 -4.415325e-11 4.415325e-11 -1 853.0423 153.1255)" class="st3" width="4.74" height="10.77"/>
		
			<rect x="410.8" y="71.18" transform="matrix(-1 -4.415325e-11 4.415325e-11 -1 826.3389 153.1255)" class="st3" width="4.74" height="10.77"/>
	</g>
	<g>
		
			<rect x="424.15" y="87.76" transform="matrix(-1 -4.415325e-11 4.415325e-11 -1 853.0423 186.2893)" class="st3" width="4.74" height="10.77"/>
		
			<rect x="410.8" y="87.76" transform="matrix(-1 -4.415325e-11 4.415325e-11 -1 826.3389 186.2893)" class="st3" width="4.74" height="10.77"/>
	</g>
	<path class="st3" d="M417.52,45.72c0,1.28,1.04,2.33,2.33,2.33c1.28,0,2.33-1.04,2.33-2.33c0-1.28-1.04-2.33-2.33-2.33
		C418.56,43.4,417.52,44.44,417.52,45.72z"/>
	
		<rect x="348.55" y="50.72" transform="matrix(-1 -4.489132e-11 4.489132e-11 -1 755.0436 157.1353)" class="st4" width="57.94" height="55.69"/>
	<polygon class="st1" points="308.27,59.28 328.17,59.28 338.36,32.63 318.46,32.63 	"/>
	<polygon class="st4" points="328.17,106.41 348.55,106.41 348.55,59.28 338.36,32.63 328.17,59.28 	"/>
	
		<rect x="308.27" y="59.28" transform="matrix(-1 -4.524526e-11 4.524526e-11 -1 636.431 165.6967)" class="st4" width="19.9" height="47.13"/>
	<line class="st5" x1="415.54" y1="37.01" x2="384.2" y2="37.01"/>
	<line class="st5" x1="388.17" y1="45.72" x2="365.78" y2="45.72"/>
	<line class="st5" x1="370.52" y1="35.22" x2="362.33" y2="35.22"/>
	
		<rect x="391.19" y="54.6" transform="matrix(-1 -4.415325e-11 4.415325e-11 -1 787.1165 119.9615)" class="st3" width="4.74" height="10.77"/>
	
		<rect x="372.24" y="54.6" transform="matrix(-1 -4.684087e-11 4.684087e-11 -1 749.2149 119.9615)" class="st3" width="4.74" height="10.77"/>
	
		<rect x="353.29" y="54.6" transform="matrix(-1 -4.645674e-11 4.645674e-11 -1 711.3132 119.9615)" class="st3" width="4.74" height="10.77"/>
	
		<rect x="391.19" y="71.18" transform="matrix(-1 -4.453694e-11 4.453694e-11 -1 787.1165 153.1255)" class="st3" width="4.74" height="10.77"/>
	
		<rect x="372.24" y="71.18" transform="matrix(-1 -4.453694e-11 4.453694e-11 -1 749.2149 153.1255)" class="st3" width="4.74" height="10.77"/>
	
		<rect x="353.29" y="71.18" transform="matrix(-1 -4.607304e-11 4.607304e-11 -1 711.3132 153.1255)" class="st3" width="4.74" height="10.77"/>
	
		<rect x="391.19" y="87.76" transform="matrix(-1 -4.415325e-11 4.415325e-11 -1 787.1165 186.2893)" class="st3" width="4.74" height="10.77"/>
	
		<rect x="372.24" y="87.76" transform="matrix(-1 -4.453694e-11 4.453694e-11 -1 749.2149 186.2893)" class="st3" width="4.74" height="10.77"/>
	
		<rect x="353.29" y="87.76" transform="matrix(-1 -4.453694e-11 4.453694e-11 -1 711.3132 186.2893)" class="st3" width="4.74" height="10.77"/>
	
		<rect x="321.5" y="72.45" transform="matrix(-1 -4.727830e-11 4.727830e-11 -1 646.6231 153.1255)" class="st3" width="3.62" height="8.22"/>
	
		<rect x="311.31" y="72.45" transform="matrix(-1 -4.426072e-11 4.426072e-11 -1 626.239 153.1255)" class="st3" width="3.62" height="8.22"/>
</g>
<g>
	<polygon class="st6" points="124.34,31.46 66.39,31.46 53.04,11.22 110.99,11.22 	"/>
	<polygon class="st7" points="66.39,87.16 39.69,87.16 39.69,31.46 53.04,11.22 66.39,31.46 	"/>
	<g>
		<rect x="44" y="35.34" class="st3" width="4.74" height="10.77"/>
		<rect x="57.35" y="35.34" class="st3" width="4.74" height="10.77"/>
	</g>
	<g>
		<rect x="44" y="51.92" class="st3" width="4.74" height="10.77"/>
		<rect x="57.35" y="51.92" class="st3" width="4.74" height="10.77"/>
	</g>
	<g>
		<rect x="44" y="68.5" class="st3" width="4.74" height="10.77"/>
		<rect x="57.35" y="68.5" class="st3" width="4.74" height="10.77"/>
	</g>
	<rect x="66.39" y="31.46" class="st8" width="57.94" height="55.69"/>
	<line class="st5" x1="57.35" y1="17.75" x2="88.69" y2="17.75"/>
	<line class="st5" x1="84.71" y1="26.46" x2="107.11" y2="26.46"/>
	<line class="st5" x1="102.37" y1="15.96" x2="110.55" y2="15.96"/>
	<rect x="76.96" y="35.34" class="st3" width="4.74" height="10.77"/>
	<rect x="95.91" y="35.34" class="st3" width="4.74" height="10.77"/>
	<rect x="114.86" y="35.34" class="st3" width="4.74" height="10.77"/>
	<rect x="76.96" y="51.92" class="st3" width="4.74" height="10.77"/>
	<rect x="95.91" y="51.92" class="st3" width="4.74" height="10.77"/>
	<rect x="114.86" y="51.92" class="st3" width="4.74" height="10.77"/>
	<rect x="76.96" y="68.5" class="st3" width="4.74" height="10.77"/>
	<rect x="95.91" y="68.5" class="st3" width="4.74" height="10.77"/>
	<rect x="114.86" y="68.5" class="st3" width="4.74" height="10.77"/>
</g>
<g>
	<path class="st9" d="M350.5,80.14c-0.15-0.58-0.25-1.18-0.25-1.81c0-4.03,3.27-7.3,7.3-7.3c2.75,0,5.12,1.54,6.36,3.79
		c0.08,0,0.17-0.01,0.25-0.01c6.04,0,10.74,5.72,8.98,12.04c-0.58,2.09-1.99,3.87-3.81,5.04c-2.73,1.76-5.29,1.9-7.55,1.3
		c-1.83,2.51-4.94,4.03-8.38,3.57c-4-0.53-7.18-3.83-7.6-7.84C345.41,85.13,347.43,81.76,350.5,80.14z"/>
	<line class="st5" x1="358.01" y1="85.22" x2="358.01" y2="111.21"/>
</g>
<g>
	<path class="st9" d="M490.53,80.14c-0.15-0.58-0.25-1.18-0.25-1.81c0-4.03,3.27-7.3,7.3-7.3c2.75,0,5.12,1.54,6.36,3.79
		c0.08,0,0.17-0.01,0.25-0.01c6.04,0,10.74,5.72,8.98,12.04c-0.58,2.09-1.99,3.87-3.81,5.04c-2.73,1.76-5.29,1.9-7.55,1.3
		c-1.83,2.51-4.94,4.03-8.38,3.57c-4-0.53-7.18-3.83-7.6-7.84C485.44,85.13,487.45,81.76,490.53,80.14z"/>
	<line class="st5" x1="498.03" y1="85.22" x2="498.03" y2="111.21"/>
</g>
<path class="st0" d="M339.33,114.5c0,0-52.73-65.32-145.96-65.32H59.02c-31.97,0-57.88,25.91-57.88,57.88v8.36L339.33,114.5z"/>
<g>
	<path class="st9" d="M456.58,80.14c-0.15-0.58-0.25-1.18-0.25-1.81c0-4.03,3.27-7.3,7.3-7.3c2.75,0,5.12,1.54,6.36,3.79
		c0.08,0,0.17-0.01,0.25-0.01c6.04,0,10.74,5.72,8.98,12.04c-0.58,2.09-1.99,3.87-3.81,5.04c-2.73,1.76-5.29,1.9-7.55,1.3
		c-1.83,2.51-4.94,4.03-8.38,3.57c-4-0.53-7.18-3.83-7.6-7.84C451.49,85.13,453.5,81.76,456.58,80.14z"/>
	<line class="st5" x1="464.08" y1="85.22" x2="464.08" y2="111.21"/>
</g>
<g>
	<path class="st9" d="M261.01,80.14c-0.15-0.58-0.25-1.18-0.25-1.81c0-4.03,3.27-7.3,7.3-7.3c2.75,0,5.12,1.54,6.36,3.79
		c0.08,0,0.17-0.01,0.25-0.01c6.04,0,10.74,5.72,8.98,12.04c-0.58,2.09-1.99,3.87-3.81,5.04c-2.73,1.76-5.29,1.9-7.55,1.3
		c-1.83,2.51-4.94,4.03-8.38,3.57c-4-0.53-7.18-3.83-7.6-7.84C255.92,85.13,257.93,81.76,261.01,80.14z"/>
	<line class="st5" x1="268.51" y1="85.22" x2="268.51" y2="113.21"/>
</g>
<g>
	<path class="st9" d="M99.48,21.93c-0.15-0.58-0.25-1.18-0.25-1.81c0-4.03,3.27-7.3,7.3-7.3c2.75,0,5.12,1.54,6.36,3.79
		c0.08,0,0.17-0.01,0.25-0.01c6.04,0,10.74,5.72,8.98,12.04c-0.58,2.09-1.99,3.87-3.81,5.04c-2.73,1.76-5.29,1.9-7.55,1.3
		c-1.83,2.51-4.94,4.03-8.38,3.57c-4-0.53-7.18-3.83-7.6-7.84C94.39,26.92,96.4,23.55,99.48,21.93z"/>
	<line class="st5" x1="106.98" y1="27.01" x2="106.98" y2="53"/>
</g>
</svg>
