<?xml version="1.0" encoding="utf-8"?>
<svg version="1.1" id="Layer_1" xmlns="http://www.w3.org/2000/svg" xmlns:xlink="http://www.w3.org/1999/xlink" x="0px" y="0px"
	 viewBox="0 0 565 191" style="enable-background:new 0 0 565 191;" xml:space="preserve">
<style type="text/css">
	.st0{fill:#64BB46;stroke:#3D3C45;stroke-width:3;stroke-miterlimit:10;}
	.st1{fill:#F06944;}
	.st2{fill:none;stroke:#3D3C45;stroke-width:3;stroke-miterlimit:10;}
	.st3{clip-path:url(#SVGID_2_);}
	.st4{fill:none;stroke:#333333;stroke-miterlimit:10;}
	.st5{fill:none;stroke:#333333;stroke-width:1.051;stroke-miterlimit:10;}
	.st6{fill:none;stroke:#333333;stroke-width:1.1283;stroke-miterlimit:10;}
	.st7{fill:none;stroke:#DEDDE9;stroke-width:5.1455;stroke-miterlimit:10;}
	.st8{fill:#A3CFDE;stroke:#333333;stroke-width:3;stroke-miterlimit:10;}
	.st9{fill:#69B1C9;}
	.st10{fill:#CCCCCC;}
	.st11{fill:none;stroke:#333333;stroke-width:3;stroke-miterlimit:10;}
	.st12{fill:#D86341;stroke:#333333;stroke-width:3;stroke-miterlimit:10;}
	.st13{fill:#757B87;}
	.st14{fill:none;}
	.st15{clip-path:url(#SVGID_5_);}
	.st16{clip-path:url(#SVGID_6_);}
	.st17{fill:none;stroke:#333333;stroke-width:1.2463;stroke-miterlimit:10;}
	.st18{clip-path:url(#SVGID_8_);}
	.st19{fill:#FFFFFF;stroke:#333333;stroke-width:3;stroke-miterlimit:10;}
	.st20{fill:#147BB9;stroke:#333333;stroke-width:0.795;stroke-miterlimit:10;}
	.st21{fill:#0C5486;stroke:#333333;stroke-width:3;stroke-miterlimit:10;}
	.st22{fill:#903C25;}
	.st23{fill:#E7AB90;stroke:#333333;stroke-width:2;stroke-miterlimit:10;}
	.st24{fill:none;stroke:#333333;stroke-width:0.795;stroke-miterlimit:10;}
	.st25{fill:#A3CFDE;stroke:#333333;stroke-width:0.795;stroke-miterlimit:10;}
	.st26{fill:#3A9946;stroke:#3D3C45;stroke-width:3;stroke-miterlimit:10;}
	.st27{fill:#5AC2B3;stroke:#333333;stroke-width:2;stroke-miterlimit:10;}
	.st28{fill:#A3CFDE;stroke:#333333;stroke-width:0.5;stroke-miterlimit:10;}
	.st29{fill:#A3CFDE;stroke:#333333;stroke-width:0.5189;stroke-miterlimit:10;}
	.st30{fill:#E7AB90;}
	.st31{fill:#7B6783;stroke:#333333;stroke-width:2;stroke-miterlimit:10;}
	.st32{fill:#FFFFFF;}
	.st33{fill:#A79B3F;stroke:#333333;stroke-width:3;stroke-miterlimit:10;}
	.st34{fill:#A3CFDE;stroke:#333333;stroke-width:0.547;stroke-miterlimit:10;}
	.st35{fill:#147BB9;}
	.st36{fill:#7B6783;}
	.st37{fill:#5AC2B3;}
</style>
<path class="st0" d="M358.5,103.62c-95.74-34.21-187.02-46.36-243.39-46.36c-48.61,0-66.61,41.86-66.61,41.86s-46,1.62-46,46.5
	s0,44,0,44h561V124.5L358.5,103.62z"/>
<g>
	<g>
		<g>
			<path class="st1" d="M280.07,123.82V74.67v-8.51v-8.51l-17.64-8.51l-8.82,4.25l-1.43-48.53h-14.79l-1.43,48.53l-8.82-4.25
				l-8.82,4.25l-1.43-23.87H202.1l-1.43,23.87l-8.82-4.25l-8.82,4.25l-1.43-23.87h-14.79l-1.43,23.87l-8.82-4.25l-17.64,8.51v8.51
				v8.51v49.15h-9.03v8.17h59.53c0-0.23-0.01-0.45-0.01-0.68c0-18.12,8.99-28.04,20.08-28.04c11.09,0,20.08,9.92,20.08,28.04
				c0,0.23-0.01,0.45-0.01,0.68h59.53v-8.17H280.07z"/>
			<path class="st2" d="M280.07,123.82V74.67v-8.51v-8.51l-17.64-8.51l-8.82,4.25l-1.43-48.53h-14.79l-1.43,48.53l-8.82-4.25
				l-8.82,4.25l-1.43-23.87H202.1l-1.43,23.87l-8.82-4.25l-8.82,4.25l-1.43-23.87h-14.79l-1.43,23.87l-8.82-4.25l-17.64,8.51v8.51
				v8.51v49.15h-9.03v8.17h59.53c0-0.23-0.01-0.45-0.01-0.68c0-18.12,8.99-28.04,20.08-28.04c11.09,0,20.08,9.92,20.08,28.04
				c0,0.23-0.01,0.45-0.01,0.68h59.53v-8.17H280.07z"/>
		</g>
	</g>
	<g>
		<defs>
			<path id="SVGID_1_" d="M280.07,123.15V74v-8.51v-8.51l-17.64-8.51l-8.82,4.25l-1.43-48.53h-14.79l-1.43,48.53l-8.82-4.25
				l-8.82,4.25l-1.43-23.87H202.1l-1.43,23.87l-8.82-4.25l-8.82,4.25l-1.43-23.87h-14.79l-1.43,23.87l-8.82-4.25l-17.64,8.51v8.51
				V74v49.15h-9.03v8.17h59.53c0-0.23-0.01-0.45-0.01-0.68c0-18.12,8.99-28.04,20.08-28.04c11.09,0,20.08,9.92,20.08,28.04
				c0,0.23-0.01,0.45-0.01,0.68h59.53v-8.17H280.07z"/>
		</defs>
		<clipPath id="SVGID_2_">
			<use xlink:href="#SVGID_1_"  style="overflow:visible;"/>
		</clipPath>
		<g class="st3">
			<line class="st4" x1="138.61" y1="63.11" x2="280.34" y2="63.11"/>
			<line class="st4" x1="139.19" y1="67.76" x2="280.92" y2="67.76"/>
			<line class="st4" x1="139.19" y1="72.4" x2="280.92" y2="72.4"/>
			<line class="st4" x1="138.61" y1="77.05" x2="280.34" y2="77.05"/>
			<line class="st4" x1="139.19" y1="81.7" x2="280.92" y2="81.7"/>
			<line class="st4" x1="139.19" y1="86.34" x2="280.92" y2="86.34"/>
			<line class="st4" x1="138.61" y1="90.99" x2="280.34" y2="90.99"/>
			<line class="st4" x1="139.19" y1="95.64" x2="280.92" y2="95.64"/>
			<line class="st4" x1="139.19" y1="100.28" x2="280.92" y2="100.28"/>
			<line class="st4" x1="138.61" y1="104.93" x2="280.34" y2="104.93"/>
			<line class="st4" x1="139.19" y1="109.58" x2="280.92" y2="109.58"/>
			<line class="st4" x1="139.19" y1="114.22" x2="280.92" y2="114.22"/>
			<line class="st4" x1="128.74" y1="120.03" x2="291.86" y2="120.03"/>
			<line class="st4" x1="129.41" y1="124.68" x2="292.53" y2="124.68"/>
			<line class="st4" x1="129.41" y1="129.32" x2="292.53" y2="129.32"/>
			<line class="st4" x1="138.61" y1="48.01" x2="280.34" y2="48.01"/>
			<line class="st4" x1="139.19" y1="52.65" x2="280.92" y2="52.65"/>
			<line class="st4" x1="139.19" y1="57.3" x2="280.92" y2="57.3"/>
			<line class="st4" x1="138.61" y1="34.07" x2="280.34" y2="34.07"/>
			<line class="st4" x1="139.19" y1="38.71" x2="280.92" y2="38.71"/>
			<line class="st4" x1="139.19" y1="43.36" x2="280.92" y2="43.36"/>
			<line class="st4" x1="138.61" y1="21.29" x2="280.34" y2="21.29"/>
			<line class="st4" x1="139.19" y1="25.94" x2="280.92" y2="25.94"/>
			<line class="st4" x1="139.19" y1="30.58" x2="280.92" y2="30.58"/>
			<line class="st4" x1="138.61" y1="6.19" x2="280.34" y2="6.19"/>
			<line class="st4" x1="139.19" y1="10.83" x2="280.92" y2="10.83"/>
			<line class="st4" x1="139.19" y1="15.48" x2="280.92" y2="15.48"/>
		</g>
	</g>
	<g>
		<g>
			<g>
				<line class="st4" x1="152.55" y1="52.47" x2="152.55" y2="57.12"/>
				<line class="st4" x1="164.17" y1="52.47" x2="164.17" y2="57.12"/>
				<line class="st4" x1="175.79" y1="52.47" x2="175.79" y2="57.12"/>
				<line class="st4" x1="187.4" y1="52.47" x2="187.4" y2="57.12"/>
				<line class="st4" x1="199.02" y1="52.47" x2="199.02" y2="57.12"/>
				<line class="st4" x1="210.64" y1="52.47" x2="210.64" y2="57.12"/>
				<line class="st4" x1="222.25" y1="52.47" x2="222.25" y2="57.12"/>
				<line class="st4" x1="233.87" y1="52.47" x2="233.87" y2="57.12"/>
				<line class="st4" x1="245.49" y1="52.47" x2="245.49" y2="57.12"/>
				<line class="st4" x1="257.1" y1="52.47" x2="257.1" y2="57.12"/>
				<line class="st4" x1="268.72" y1="52.47" x2="268.72" y2="57.12"/>
			</g>
			<g>
				<line class="st5" x1="155.46" y1="57.7" x2="155.46" y2="62.94"/>
				<line class="st5" x1="167.13" y1="57.7" x2="167.13" y2="62.94"/>
				<line class="st5" x1="178.81" y1="57.7" x2="178.81" y2="62.94"/>
				<line class="st5" x1="190.48" y1="57.7" x2="190.48" y2="62.94"/>
				<line class="st5" x1="202.16" y1="57.7" x2="202.16" y2="62.94"/>
				<line class="st5" x1="213.83" y1="57.7" x2="213.83" y2="62.94"/>
				<line class="st5" x1="225.51" y1="57.7" x2="225.51" y2="62.94"/>
				<line class="st5" x1="237.18" y1="57.7" x2="237.18" y2="62.94"/>
				<line class="st5" x1="248.85" y1="57.7" x2="248.85" y2="62.94"/>
				<line class="st5" x1="260.53" y1="57.7" x2="260.53" y2="62.94"/>
				<line class="st5" x1="272.2" y1="57.7" x2="272.2" y2="62.94"/>
			</g>
			<g>
				<line class="st6" x1="152.55" y1="62.93" x2="152.55" y2="67.31"/>
				<line class="st6" x1="164.17" y1="62.93" x2="164.17" y2="67.31"/>
				<line class="st6" x1="175.79" y1="62.93" x2="175.79" y2="67.31"/>
				<line class="st6" x1="187.4" y1="62.93" x2="187.4" y2="67.31"/>
				<line class="st6" x1="199.02" y1="62.93" x2="199.02" y2="67.31"/>
				<line class="st6" x1="210.64" y1="62.93" x2="210.64" y2="67.31"/>
				<line class="st6" x1="222.25" y1="62.93" x2="222.25" y2="67.31"/>
				<line class="st6" x1="233.87" y1="62.93" x2="233.87" y2="67.31"/>
				<line class="st6" x1="245.49" y1="62.93" x2="245.49" y2="67.31"/>
				<line class="st6" x1="257.1" y1="62.93" x2="257.1" y2="67.31"/>
				<line class="st6" x1="268.72" y1="62.93" x2="268.72" y2="67.31"/>
			</g>
			<g>
				<line class="st4" x1="155.46" y1="67.86" x2="155.46" y2="72.8"/>
				<line class="st4" x1="167.13" y1="67.86" x2="167.13" y2="72.8"/>
				<line class="st4" x1="178.81" y1="67.86" x2="178.81" y2="72.8"/>
				<line class="st4" x1="190.48" y1="67.86" x2="190.48" y2="72.8"/>
				<line class="st4" x1="202.16" y1="67.86" x2="202.16" y2="72.8"/>
				<line class="st4" x1="213.83" y1="67.86" x2="213.83" y2="72.8"/>
				<line class="st4" x1="225.51" y1="67.86" x2="225.51" y2="72.8"/>
				<line class="st4" x1="237.18" y1="67.86" x2="237.18" y2="72.8"/>
				<line class="st4" x1="248.85" y1="67.86" x2="248.85" y2="72.8"/>
				<line class="st4" x1="260.53" y1="67.86" x2="260.53" y2="72.8"/>
				<line class="st4" x1="272.2" y1="67.86" x2="272.2" y2="72.8"/>
			</g>
			<g>
				<line class="st6" x1="152.55" y1="72.22" x2="152.55" y2="76.6"/>
				<line class="st6" x1="164.17" y1="72.22" x2="164.17" y2="76.6"/>
				<line class="st6" x1="175.79" y1="72.22" x2="175.79" y2="76.6"/>
				<line class="st6" x1="187.4" y1="72.22" x2="187.4" y2="76.6"/>
				<line class="st6" x1="199.02" y1="72.22" x2="199.02" y2="76.6"/>
				<line class="st6" x1="210.64" y1="72.22" x2="210.64" y2="76.6"/>
				<line class="st6" x1="222.25" y1="72.22" x2="222.25" y2="76.6"/>
				<line class="st6" x1="233.87" y1="72.22" x2="233.87" y2="76.6"/>
				<line class="st6" x1="245.49" y1="72.22" x2="245.49" y2="76.6"/>
				<line class="st6" x1="257.1" y1="72.22" x2="257.1" y2="76.6"/>
				<line class="st6" x1="268.72" y1="72.22" x2="268.72" y2="76.6"/>
			</g>
			<g>
				<line class="st4" x1="155.46" y1="77.15" x2="155.46" y2="82.1"/>
				<line class="st4" x1="167.13" y1="77.15" x2="167.13" y2="82.1"/>
				<line class="st4" x1="178.81" y1="77.15" x2="178.81" y2="82.1"/>
				<line class="st4" x1="190.48" y1="77.15" x2="190.48" y2="82.1"/>
				<line class="st4" x1="202.16" y1="77.15" x2="202.16" y2="82.1"/>
				<line class="st4" x1="213.83" y1="77.15" x2="213.83" y2="82.1"/>
				<line class="st4" x1="225.51" y1="77.15" x2="225.51" y2="82.1"/>
				<line class="st4" x1="237.18" y1="77.15" x2="237.18" y2="82.1"/>
				<line class="st4" x1="248.85" y1="77.15" x2="248.85" y2="82.1"/>
				<line class="st4" x1="260.53" y1="77.15" x2="260.53" y2="82.1"/>
				<line class="st4" x1="272.2" y1="77.15" x2="272.2" y2="82.1"/>
			</g>
			<g>
				<line class="st6" x1="152.55" y1="72.22" x2="152.55" y2="76.6"/>
				<line class="st6" x1="164.17" y1="72.22" x2="164.17" y2="76.6"/>
				<line class="st6" x1="175.79" y1="72.22" x2="175.79" y2="76.6"/>
				<line class="st6" x1="187.4" y1="72.22" x2="187.4" y2="76.6"/>
				<line class="st6" x1="199.02" y1="72.22" x2="199.02" y2="76.6"/>
				<line class="st6" x1="210.64" y1="72.22" x2="210.64" y2="76.6"/>
				<line class="st6" x1="222.25" y1="72.22" x2="222.25" y2="76.6"/>
				<line class="st6" x1="233.87" y1="72.22" x2="233.87" y2="76.6"/>
				<line class="st6" x1="245.49" y1="72.22" x2="245.49" y2="76.6"/>
				<line class="st6" x1="257.1" y1="72.22" x2="257.1" y2="76.6"/>
				<line class="st6" x1="268.72" y1="72.22" x2="268.72" y2="76.6"/>
			</g>
			<g>
				<line class="st4" x1="155.46" y1="77.15" x2="155.46" y2="82.1"/>
				<line class="st4" x1="167.13" y1="77.15" x2="167.13" y2="82.1"/>
				<line class="st4" x1="178.81" y1="77.15" x2="178.81" y2="82.1"/>
				<line class="st4" x1="190.48" y1="77.15" x2="190.48" y2="82.1"/>
				<line class="st4" x1="202.16" y1="77.15" x2="202.16" y2="82.1"/>
				<line class="st4" x1="213.83" y1="77.15" x2="213.83" y2="82.1"/>
				<line class="st4" x1="225.51" y1="77.15" x2="225.51" y2="82.1"/>
				<line class="st4" x1="237.18" y1="77.15" x2="237.18" y2="82.1"/>
				<line class="st4" x1="248.85" y1="77.15" x2="248.85" y2="82.1"/>
				<line class="st4" x1="260.53" y1="77.15" x2="260.53" y2="82.1"/>
				<line class="st4" x1="272.2" y1="77.15" x2="272.2" y2="82.1"/>
			</g>
			<g>
				<line class="st6" x1="151.39" y1="81.51" x2="151.39" y2="85.9"/>
				<line class="st6" x1="163.01" y1="81.51" x2="163.01" y2="85.9"/>
				<line class="st6" x1="174.62" y1="81.51" x2="174.62" y2="85.9"/>
				<line class="st6" x1="186.24" y1="81.51" x2="186.24" y2="85.9"/>
				<line class="st6" x1="197.86" y1="81.51" x2="197.86" y2="85.9"/>
				<line class="st6" x1="209.47" y1="81.51" x2="209.47" y2="85.9"/>
				<line class="st6" x1="221.09" y1="81.51" x2="221.09" y2="85.9"/>
				<line class="st6" x1="232.71" y1="81.51" x2="232.71" y2="85.9"/>
				<line class="st6" x1="244.32" y1="81.51" x2="244.32" y2="85.9"/>
				<line class="st6" x1="255.94" y1="81.51" x2="255.94" y2="85.9"/>
				<line class="st6" x1="267.56" y1="81.51" x2="267.56" y2="85.9"/>
			</g>
			<g>
				<line class="st4" x1="154.3" y1="86.45" x2="154.3" y2="91.39"/>
				<line class="st4" x1="165.97" y1="86.45" x2="165.97" y2="91.39"/>
				<line class="st4" x1="177.64" y1="86.45" x2="177.64" y2="91.39"/>
				<line class="st4" x1="189.32" y1="86.45" x2="189.32" y2="91.39"/>
				<line class="st4" x1="200.99" y1="86.45" x2="200.99" y2="91.39"/>
				<line class="st4" x1="212.67" y1="86.45" x2="212.67" y2="91.39"/>
				<line class="st4" x1="224.34" y1="86.45" x2="224.34" y2="91.39"/>
				<line class="st4" x1="236.02" y1="86.45" x2="236.02" y2="91.39"/>
				<line class="st4" x1="247.69" y1="86.45" x2="247.69" y2="91.39"/>
				<line class="st4" x1="259.37" y1="86.45" x2="259.37" y2="91.39"/>
				<line class="st4" x1="271.04" y1="86.45" x2="271.04" y2="91.39"/>
			</g>
			<g>
				<line class="st6" x1="151.39" y1="90.81" x2="151.39" y2="95.19"/>
				<line class="st6" x1="163.01" y1="90.81" x2="163.01" y2="95.19"/>
				<line class="st6" x1="174.62" y1="90.81" x2="174.62" y2="95.19"/>
				<line class="st6" x1="186.24" y1="90.81" x2="186.24" y2="95.19"/>
				<line class="st6" x1="197.86" y1="90.81" x2="197.86" y2="95.19"/>
				<line class="st6" x1="209.47" y1="90.81" x2="209.47" y2="95.19"/>
				<line class="st6" x1="221.09" y1="90.81" x2="221.09" y2="95.19"/>
				<line class="st6" x1="232.71" y1="90.81" x2="232.71" y2="95.19"/>
				<line class="st6" x1="244.32" y1="90.81" x2="244.32" y2="95.19"/>
				<line class="st6" x1="255.94" y1="90.81" x2="255.94" y2="95.19"/>
				<line class="st6" x1="267.56" y1="90.81" x2="267.56" y2="95.19"/>
			</g>
			<g>
				<line class="st4" x1="154.3" y1="95.74" x2="154.3" y2="100.68"/>
				<line class="st4" x1="165.97" y1="95.74" x2="165.97" y2="100.68"/>
				<line class="st4" x1="177.64" y1="95.74" x2="177.64" y2="100.68"/>
				<line class="st4" x1="189.32" y1="95.74" x2="189.32" y2="100.68"/>
				<line class="st4" x1="200.99" y1="95.74" x2="200.99" y2="100.68"/>
				<line class="st4" x1="212.67" y1="95.74" x2="212.67" y2="100.68"/>
				<line class="st4" x1="224.34" y1="95.74" x2="224.34" y2="100.68"/>
				<line class="st4" x1="236.02" y1="95.74" x2="236.02" y2="100.68"/>
				<line class="st4" x1="247.69" y1="95.74" x2="247.69" y2="100.68"/>
				<line class="st4" x1="259.37" y1="95.74" x2="259.37" y2="100.68"/>
				<line class="st4" x1="271.04" y1="95.74" x2="271.04" y2="100.68"/>
			</g>
			<g>
				<line class="st6" x1="151.39" y1="100.1" x2="151.39" y2="104.48"/>
				<line class="st6" x1="163.01" y1="100.1" x2="163.01" y2="104.48"/>
				<line class="st6" x1="174.62" y1="100.1" x2="174.62" y2="104.48"/>
				<line class="st6" x1="186.24" y1="100.1" x2="186.24" y2="104.48"/>
				<line class="st6" x1="197.86" y1="100.1" x2="197.86" y2="104.48"/>
				<line class="st6" x1="209.47" y1="100.1" x2="209.47" y2="104.48"/>
				<line class="st6" x1="221.09" y1="100.1" x2="221.09" y2="104.48"/>
				<line class="st6" x1="232.71" y1="100.1" x2="232.71" y2="104.48"/>
				<line class="st6" x1="244.32" y1="100.1" x2="244.32" y2="104.48"/>
				<line class="st6" x1="255.94" y1="100.1" x2="255.94" y2="104.48"/>
				<line class="st6" x1="267.56" y1="100.1" x2="267.56" y2="104.48"/>
			</g>
			<g>
				<line class="st4" x1="154.3" y1="105.03" x2="154.3" y2="109.97"/>
				<line class="st4" x1="165.97" y1="105.03" x2="165.97" y2="109.97"/>
				<line class="st4" x1="177.64" y1="105.03" x2="177.64" y2="109.97"/>
				<line class="st4" x1="189.32" y1="105.03" x2="189.32" y2="109.97"/>
				<line class="st4" x1="224.34" y1="105.03" x2="224.34" y2="109.97"/>
				<line class="st4" x1="236.02" y1="105.03" x2="236.02" y2="109.97"/>
				<line class="st4" x1="247.69" y1="105.03" x2="247.69" y2="109.97"/>
				<line class="st4" x1="259.37" y1="105.03" x2="259.37" y2="109.97"/>
				<line class="st4" x1="271.04" y1="105.03" x2="271.04" y2="109.97"/>
			</g>
			<g>
				<line class="st6" x1="151.39" y1="109.39" x2="151.39" y2="113.78"/>
				<line class="st6" x1="163.01" y1="109.39" x2="163.01" y2="113.78"/>
				<line class="st6" x1="174.62" y1="109.39" x2="174.62" y2="113.78"/>
				<line class="st6" x1="186.24" y1="109.39" x2="186.24" y2="113.78"/>
				<line class="st6" x1="232.71" y1="109.39" x2="232.71" y2="113.78"/>
				<line class="st6" x1="244.32" y1="109.39" x2="244.32" y2="113.78"/>
				<line class="st6" x1="255.94" y1="109.39" x2="255.94" y2="113.78"/>
				<line class="st6" x1="267.56" y1="109.39" x2="267.56" y2="113.78"/>
			</g>
			<g>
				<line class="st4" x1="154.3" y1="114.33" x2="154.3" y2="119.27"/>
				<line class="st4" x1="165.97" y1="114.33" x2="165.97" y2="119.27"/>
				<line class="st4" x1="177.64" y1="114.33" x2="177.64" y2="119.27"/>
				<line class="st4" x1="189.32" y1="114.33" x2="189.32" y2="119.27"/>
				<line class="st4" x1="236.02" y1="114.33" x2="236.02" y2="119.27"/>
				<line class="st4" x1="247.69" y1="114.33" x2="247.69" y2="119.27"/>
				<line class="st4" x1="259.37" y1="114.33" x2="259.37" y2="119.27"/>
				<line class="st4" x1="271.04" y1="114.33" x2="271.04" y2="119.27"/>
			</g>
			<g>
				<line class="st6" x1="151.39" y1="119.85" x2="151.39" y2="124.23"/>
				<line class="st6" x1="163.01" y1="119.85" x2="163.01" y2="124.23"/>
				<line class="st6" x1="174.62" y1="119.85" x2="174.62" y2="124.23"/>
				<line class="st4" x1="186.24" y1="119.85" x2="186.24" y2="124.23"/>
				<line class="st4" x1="232.71" y1="119.85" x2="232.71" y2="124.23"/>
				<line class="st4" x1="244.32" y1="119.85" x2="244.32" y2="124.23"/>
				<line class="st4" x1="255.94" y1="119.85" x2="255.94" y2="124.23"/>
				<line class="st4" x1="267.56" y1="119.85" x2="267.56" y2="124.23"/>
			</g>
			<g>
				<line class="st4" x1="154.3" y1="124.78" x2="154.3" y2="129.72"/>
				<line class="st4" x1="165.97" y1="124.78" x2="165.97" y2="129.72"/>
				<line class="st4" x1="177.64" y1="124.78" x2="177.64" y2="129.72"/>
				<line class="st4" x1="189.32" y1="124.78" x2="189.32" y2="129.72"/>
				<line class="st4" x1="236.02" y1="124.78" x2="236.02" y2="129.72"/>
				<line class="st4" x1="247.69" y1="124.78" x2="247.69" y2="129.72"/>
				<line class="st4" x1="259.37" y1="124.78" x2="259.37" y2="129.72"/>
				<line class="st4" x1="271.04" y1="124.78" x2="271.04" y2="129.72"/>
			</g>
			<g>
				<line class="st6" x1="151.39" y1="129.14" x2="151.39" y2="133.53"/>
				<line class="st6" x1="163.01" y1="129.14" x2="163.01" y2="133.53"/>
				<line class="st6" x1="174.62" y1="129.14" x2="174.62" y2="133.53"/>
				<line class="st6" x1="186.24" y1="129.14" x2="186.24" y2="133.53"/>
				<line class="st6" x1="232.71" y1="129.14" x2="232.71" y2="133.53"/>
				<line class="st6" x1="244.32" y1="129.14" x2="244.32" y2="133.53"/>
				<line class="st6" x1="255.94" y1="129.14" x2="255.94" y2="133.53"/>
				<line class="st6" x1="267.56" y1="129.14" x2="267.56" y2="133.53"/>
			</g>
		</g>
	</g>
	<path class="st7" d="M131.27,32.08"/>
	<path class="st7" d="M131.27,32.08"/>
	<circle class="st8" cx="210.9" cy="74.62" r="13.5"/>
</g>
<rect x="347.54" y="133.7" class="st9" width="62.26" height="55.92"/>
<polygon class="st10" points="410.88,132.32 346.75,132.32 351.26,121.21 403.75,121.21 "/>
<polygon class="st11" points="410.88,132.32 346.75,132.32 351.26,121.21 403.75,121.21 "/>
<polygon class="st8" points="365.6,148.8 365.6,138.48 358.1,138.48 358.1,148.8 356.67,148.8 356.67,151.05 358.1,151.05 
	365.6,151.05 366.84,151.05 366.84,148.8 "/>
<rect x="389.28" y="108.36" class="st12" width="11.01" height="11.99"/>
<rect x="348.06" y="132.66" class="st11" width="62.26" height="56.96"/>
<g>
	<polygon class="st8" points="382.65,148.8 382.65,138.48 375.15,138.48 375.15,148.8 373.72,148.8 373.72,151.05 375.15,151.05 
		382.65,151.05 383.89,151.05 383.89,148.8 	"/>
</g>
<g>
	<polygon class="st8" points="399.65,148.8 399.65,138.48 392.15,138.48 392.15,148.8 390.72,148.8 390.72,151.05 392.15,151.05 
		399.65,151.05 400.89,151.05 400.89,148.8 	"/>
</g>
<rect x="271.54" y="133.7" class="st10" width="62.26" height="55.92"/>
<polygon class="st13" points="334.88,132.32 270.75,132.32 275.26,121.21 327.75,121.21 "/>
<polygon class="st11" points="334.88,132.32 270.75,132.32 275.26,121.21 327.75,121.21 "/>
<polygon class="st8" points="289.6,148.8 289.6,138.48 282.1,138.48 282.1,148.8 280.67,148.8 280.67,151.05 282.1,151.05 
	289.6,151.05 290.84,151.05 290.84,148.8 "/>
<rect x="313.28" y="108.36" class="st12" width="11.01" height="11.99"/>
<rect x="272.06" y="132.66" class="st11" width="62.26" height="56.96"/>
<g>
	<polygon class="st8" points="306.65,148.8 306.65,138.48 299.15,138.48 299.15,148.8 297.72,148.8 297.72,151.05 299.15,151.05 
		306.65,151.05 307.89,151.05 307.89,148.8 	"/>
</g>
<g>
	<polygon class="st8" points="323.65,148.8 323.65,138.48 316.15,138.48 316.15,148.8 314.72,148.8 314.72,151.05 316.15,151.05 
		323.65,151.05 324.89,151.05 324.89,148.8 	"/>
</g>
<path class="st0" d="M782.12,845.62C626.02,789.84,475,799.12,475,799.12l-0.1,46.5v86h439v-86H782.12z"/>
<g>
	<g>
		<g>
			<path class="st14" d="M183.07,1052.82v-49.15v-8.51v-8.51l-17.64-8.51l-8.23,4.58l-2.02-48.86h-14.79l-1.43,48.53l-8.82-4.25
				l-8.82,4.25l-1.43-23.87H105.1l-1.34,27.69l-8.9-8.07l-8.52,8.07l-1.73-27.69H69.82l-3.23,21.88l-6.97,1.16l-17.42,6.97
				l-0.26,6.62v8.51v49.15H32.9v8.17h59.53c0-0.23-0.01-0.45-0.01-0.68c0-18.12,8.99-28.04,20.08-28.04
				c11.09,0,20.08,9.92,20.08,28.04c0,0.23-0.01,0.45-0.01,0.68h59.53v-8.17H183.07z"/>
		</g>
		<g>
			<g>
				<path class="st1" d="M183.07,1055.82v-49.15v-8.51v-8.51l-17.64-8.51l-8.82,4.25l-1.43-48.53h-14.79l-1.43,48.53l-8.82-4.25
					l-8.82,4.25l-1.43-23.87H105.1l-1.43,23.87l-8.82-4.25l-8.82,4.25l-1.43-23.87H69.82l-1.43,23.87l-8.82-4.25l-17.64,8.51v8.51
					v8.51v49.15H32.9v8.17h59.53c0-0.23-0.01-0.45-0.01-0.68c0-18.12,8.99-28.04,20.08-28.04c11.09,0,20.08,9.92,20.08,28.04
					c0,0.23-0.01,0.45-0.01,0.68h59.53v-8.17H183.07z"/>
				<path class="st2" d="M183.07,1055.82v-49.15v-8.51v-8.51l-17.64-8.51l-8.82,4.25l-1.43-48.53h-14.79l-1.43,48.53l-8.82-4.25
					l-8.82,4.25l-1.43-23.87H105.1l-1.43,23.87l-8.82-4.25l-8.82,4.25l-1.43-23.87H69.82l-1.43,23.87l-8.82-4.25l-17.64,8.51v8.51
					v8.51v49.15H32.9v8.17h59.53c0-0.23-0.01-0.45-0.01-0.68c0-18.12,8.99-28.04,20.08-28.04c11.09,0,20.08,9.92,20.08,28.04
					c0,0.23-0.01,0.45-0.01,0.68h59.53v-8.17H183.07z"/>
			</g>
		</g>
		<g>
			<defs>
				<path id="SVGID_3_" d="M183.07,1055.15V1006v-8.51v-8.51l-17.64-8.51l-8.82,4.25l-1.43-48.53h-14.79l-1.43,48.53l-8.82-4.25
					l-8.82,4.25l-1.43-23.87H105.1l-1.43,23.87l-8.82-4.25l-8.82,4.25l-1.43-23.87H69.82l-1.43,23.87l-8.82-4.25l-17.64,8.51v8.51
					v8.51v49.15H32.9v8.17h59.53c0-0.23-0.01-0.45-0.01-0.68c0-18.12,8.99-28.04,20.08-28.04c11.09,0,20.08,9.92,20.08,28.04
					c0,0.23-0.01,0.45-0.01,0.68h59.53v-8.17H183.07z"/>
			</defs>
			<defs>
				<path id="SVGID_4_" d="M183.07,1055.15V1006v-8.51v-8.51l-17.64-8.51l-8.82,4.25l-1.43-48.53h-14.79l-1.43,48.53l-8.82-4.25
					l-8.82,4.25l-1.43-23.87H105.1l-1.43,23.87l-8.82-4.25l-8.82,4.25l-1.43-23.87H69.82l-1.43,23.87l-8.82-4.25l-17.64,8.51v8.51
					v8.51v49.15H32.9v8.17h59.53c0-0.23-0.01-0.45-0.01-0.68c0-18.12,8.99-28.04,20.08-28.04c11.09,0,20.08,9.92,20.08,28.04
					c0,0.23-0.01,0.45-0.01,0.68h59.53v-8.17H183.07z"/>
			</defs>
			<clipPath id="SVGID_5_">
				<use xlink:href="#SVGID_3_"  style="overflow:visible;"/>
			</clipPath>
			<clipPath id="SVGID_6_" class="st15">
				<use xlink:href="#SVGID_4_"  style="overflow:visible;"/>
			</clipPath>
			<g class="st16">
				<line class="st4" x1="41.61" y1="995.11" x2="183.34" y2="995.11"/>
				<line class="st4" x1="42.19" y1="999.76" x2="183.92" y2="999.76"/>
				<line class="st4" x1="42.19" y1="1004.4" x2="183.92" y2="1004.4"/>
				<line class="st4" x1="41.61" y1="1009.05" x2="183.34" y2="1009.05"/>
				<line class="st4" x1="42.19" y1="1013.7" x2="183.92" y2="1013.7"/>
				<line class="st4" x1="42.19" y1="1018.34" x2="183.92" y2="1018.34"/>
				<line class="st4" x1="41.61" y1="1022.99" x2="183.34" y2="1022.99"/>
				<line class="st4" x1="42.19" y1="1027.64" x2="183.92" y2="1027.64"/>
				<line class="st4" x1="42.19" y1="1032.28" x2="183.92" y2="1032.28"/>
				<line class="st4" x1="41.61" y1="1036.93" x2="183.34" y2="1036.93"/>
				<line class="st4" x1="42.19" y1="1041.58" x2="183.92" y2="1041.58"/>
				<line class="st4" x1="42.19" y1="1046.22" x2="183.92" y2="1046.22"/>
				<line class="st17" x1="31.74" y1="1052.03" x2="194.86" y2="1052.03"/>
				<line class="st17" x1="32.41" y1="1056.68" x2="195.53" y2="1056.68"/>
				<line class="st17" x1="32.41" y1="1061.32" x2="195.53" y2="1061.32"/>
				<line class="st4" x1="41.61" y1="980.01" x2="183.34" y2="980.01"/>
				<line class="st4" x1="42.19" y1="984.65" x2="183.92" y2="984.65"/>
				<line class="st4" x1="42.19" y1="989.3" x2="183.92" y2="989.3"/>
				<line class="st4" x1="41.61" y1="966.07" x2="183.34" y2="966.07"/>
				<line class="st4" x1="42.19" y1="970.71" x2="183.92" y2="970.71"/>
				<line class="st4" x1="42.19" y1="975.36" x2="183.92" y2="975.36"/>
				<line class="st4" x1="41.61" y1="953.29" x2="183.34" y2="953.29"/>
				<line class="st4" x1="42.19" y1="957.94" x2="183.92" y2="957.94"/>
				<line class="st4" x1="42.19" y1="962.58" x2="183.92" y2="962.58"/>
				<line class="st4" x1="41.61" y1="938.19" x2="183.34" y2="938.19"/>
				<line class="st4" x1="42.19" y1="942.83" x2="183.92" y2="942.83"/>
				<line class="st4" x1="42.19" y1="947.48" x2="183.92" y2="947.48"/>
			</g>
		</g>
	</g>
	<g>
		<defs>
			<path id="SVGID_7_" d="M183.07,1056.98v-49.15v-8.51v-8.51l-17.64-8.51l-7.07,0.43l-3.18-44.7h-14.79l-1.78,44.7l-8.47-0.43
				l-8.96,0.43l-1.29-20.05H105.1l-1.34,20.05l-8.9-0.43l-9.68,1.59l-0.56-21.21H69.82l-2.07,20.05l-8.18-0.43l-17.64,8.51v8.51
				v8.51v49.15H32.9v7.01h59.53c0,0.93-0.01,0.71-0.01,0.48c0-18.12,9.55-29.47,20.64-29.47c11.09,0,19.53,11.35,19.53,29.47
				c0,0.23-0.01,0.45-0.01-0.48h59.53v-7.01H183.07z"/>
		</defs>
		<clipPath id="SVGID_8_">
			<use xlink:href="#SVGID_7_"  style="overflow:visible;"/>
		</clipPath>
		<g class="st18">
			<g>
				<line class="st4" x1="55.55" y1="984.47" x2="55.55" y2="989.12"/>
				<line class="st4" x1="67.17" y1="984.47" x2="67.17" y2="989.12"/>
				<line class="st4" x1="78.79" y1="984.47" x2="78.79" y2="989.12"/>
				<line class="st4" x1="90.4" y1="984.47" x2="90.4" y2="989.12"/>
				<line class="st4" x1="102.02" y1="984.47" x2="102.02" y2="989.12"/>
				<line class="st4" x1="113.64" y1="984.47" x2="113.64" y2="989.12"/>
				<line class="st4" x1="125.25" y1="984.47" x2="125.25" y2="989.12"/>
				<line class="st4" x1="136.87" y1="984.47" x2="136.87" y2="989.12"/>
				<line class="st4" x1="148.49" y1="984.47" x2="148.49" y2="989.12"/>
				<line class="st4" x1="160.1" y1="984.47" x2="160.1" y2="989.12"/>
				<line class="st4" x1="171.72" y1="984.47" x2="171.72" y2="989.12"/>
			</g>
			<g>
				<line class="st5" x1="58.46" y1="989.7" x2="58.46" y2="994.94"/>
				<line class="st5" x1="70.13" y1="989.7" x2="70.13" y2="994.94"/>
				<line class="st5" x1="81.81" y1="989.7" x2="81.81" y2="994.94"/>
				<line class="st5" x1="93.48" y1="989.7" x2="93.48" y2="994.94"/>
				<line class="st5" x1="105.16" y1="989.7" x2="105.16" y2="994.94"/>
				<line class="st5" x1="116.83" y1="989.7" x2="116.83" y2="994.94"/>
				<line class="st5" x1="128.51" y1="989.7" x2="128.51" y2="994.94"/>
				<line class="st5" x1="140.18" y1="989.7" x2="140.18" y2="994.94"/>
				<line class="st5" x1="151.85" y1="989.7" x2="151.85" y2="994.94"/>
				<line class="st5" x1="163.53" y1="989.7" x2="163.53" y2="994.94"/>
				<line class="st5" x1="175.2" y1="989.7" x2="175.2" y2="994.94"/>
			</g>
			<g>
				<line class="st6" x1="55.55" y1="994.93" x2="55.55" y2="999.31"/>
				<line class="st6" x1="67.17" y1="994.93" x2="67.17" y2="999.31"/>
				<line class="st6" x1="78.79" y1="994.93" x2="78.79" y2="999.31"/>
				<line class="st6" x1="90.4" y1="994.93" x2="90.4" y2="999.31"/>
				<line class="st6" x1="102.02" y1="994.93" x2="102.02" y2="999.31"/>
				<line class="st6" x1="113.64" y1="994.93" x2="113.64" y2="999.31"/>
				<line class="st6" x1="125.25" y1="994.93" x2="125.25" y2="999.31"/>
				<line class="st6" x1="136.87" y1="994.93" x2="136.87" y2="999.31"/>
				<line class="st6" x1="148.49" y1="994.93" x2="148.49" y2="999.31"/>
				<line class="st6" x1="160.1" y1="994.93" x2="160.1" y2="999.31"/>
				<line class="st6" x1="171.72" y1="994.93" x2="171.72" y2="999.31"/>
			</g>
			<g>
				<line class="st4" x1="58.46" y1="999.86" x2="58.46" y2="1004.8"/>
				<line class="st4" x1="70.13" y1="999.86" x2="70.13" y2="1004.8"/>
				<line class="st4" x1="81.81" y1="999.86" x2="81.81" y2="1004.8"/>
				<line class="st4" x1="93.48" y1="999.86" x2="93.48" y2="1004.8"/>
				<line class="st4" x1="105.16" y1="999.86" x2="105.16" y2="1004.8"/>
				<line class="st4" x1="116.83" y1="999.86" x2="116.83" y2="1004.8"/>
				<line class="st4" x1="128.51" y1="999.86" x2="128.51" y2="1004.8"/>
				<line class="st4" x1="140.18" y1="999.86" x2="140.18" y2="1004.8"/>
				<line class="st4" x1="151.85" y1="999.86" x2="151.85" y2="1004.8"/>
				<line class="st4" x1="163.53" y1="999.86" x2="163.53" y2="1004.8"/>
				<line class="st4" x1="175.2" y1="999.86" x2="175.2" y2="1004.8"/>
			</g>
			<g>
				<line class="st6" x1="55.55" y1="1004.22" x2="55.55" y2="1008.6"/>
				<line class="st6" x1="67.17" y1="1004.22" x2="67.17" y2="1008.6"/>
				<line class="st6" x1="78.79" y1="1004.22" x2="78.79" y2="1008.6"/>
				<line class="st6" x1="90.4" y1="1004.22" x2="90.4" y2="1008.6"/>
				<line class="st6" x1="102.02" y1="1004.22" x2="102.02" y2="1008.6"/>
				<line class="st6" x1="113.64" y1="1004.22" x2="113.64" y2="1008.6"/>
				<line class="st6" x1="125.25" y1="1004.22" x2="125.25" y2="1008.6"/>
				<line class="st6" x1="136.87" y1="1004.22" x2="136.87" y2="1008.6"/>
				<line class="st6" x1="148.49" y1="1004.22" x2="148.49" y2="1008.6"/>
				<line class="st6" x1="160.1" y1="1004.22" x2="160.1" y2="1008.6"/>
				<line class="st6" x1="171.72" y1="1004.22" x2="171.72" y2="1008.6"/>
			</g>
			<g>
				<line class="st4" x1="58.46" y1="1009.15" x2="58.46" y2="1014.1"/>
				<line class="st4" x1="70.13" y1="1009.15" x2="70.13" y2="1014.1"/>
				<line class="st4" x1="81.81" y1="1009.15" x2="81.81" y2="1014.1"/>
				<line class="st4" x1="93.48" y1="1009.15" x2="93.48" y2="1014.1"/>
				<line class="st4" x1="105.16" y1="1009.15" x2="105.16" y2="1014.1"/>
				<line class="st4" x1="116.83" y1="1009.15" x2="116.83" y2="1014.1"/>
				<line class="st4" x1="128.51" y1="1009.15" x2="128.51" y2="1014.1"/>
				<line class="st4" x1="140.18" y1="1009.15" x2="140.18" y2="1014.1"/>
				<line class="st4" x1="151.85" y1="1009.15" x2="151.85" y2="1014.1"/>
				<line class="st4" x1="163.53" y1="1009.15" x2="163.53" y2="1014.1"/>
				<line class="st4" x1="175.2" y1="1009.15" x2="175.2" y2="1014.1"/>
			</g>
			<g>
				<line class="st6" x1="55.55" y1="1004.22" x2="55.55" y2="1008.6"/>
				<line class="st6" x1="67.17" y1="1004.22" x2="67.17" y2="1008.6"/>
				<line class="st6" x1="78.79" y1="1004.22" x2="78.79" y2="1008.6"/>
				<line class="st6" x1="90.4" y1="1004.22" x2="90.4" y2="1008.6"/>
				<line class="st6" x1="102.02" y1="1004.22" x2="102.02" y2="1008.6"/>
				<line class="st6" x1="113.64" y1="1004.22" x2="113.64" y2="1008.6"/>
				<line class="st6" x1="125.25" y1="1004.22" x2="125.25" y2="1008.6"/>
				<line class="st6" x1="136.87" y1="1004.22" x2="136.87" y2="1008.6"/>
				<line class="st6" x1="148.49" y1="1004.22" x2="148.49" y2="1008.6"/>
				<line class="st6" x1="160.1" y1="1004.22" x2="160.1" y2="1008.6"/>
				<line class="st6" x1="171.72" y1="1004.22" x2="171.72" y2="1008.6"/>
			</g>
			<g>
				<line class="st4" x1="58.46" y1="1009.15" x2="58.46" y2="1014.1"/>
				<line class="st4" x1="70.13" y1="1009.15" x2="70.13" y2="1014.1"/>
				<line class="st4" x1="81.81" y1="1009.15" x2="81.81" y2="1014.1"/>
				<line class="st4" x1="93.48" y1="1009.15" x2="93.48" y2="1014.1"/>
				<line class="st4" x1="105.16" y1="1009.15" x2="105.16" y2="1014.1"/>
				<line class="st4" x1="116.83" y1="1009.15" x2="116.83" y2="1014.1"/>
				<line class="st4" x1="128.51" y1="1009.15" x2="128.51" y2="1014.1"/>
				<line class="st4" x1="140.18" y1="1009.15" x2="140.18" y2="1014.1"/>
				<line class="st4" x1="151.85" y1="1009.15" x2="151.85" y2="1014.1"/>
				<line class="st4" x1="163.53" y1="1009.15" x2="163.53" y2="1014.1"/>
				<line class="st4" x1="175.2" y1="1009.15" x2="175.2" y2="1014.1"/>
			</g>
			<g>
				<line class="st6" x1="54.39" y1="1013.51" x2="54.39" y2="1017.9"/>
				<line class="st6" x1="66.01" y1="1013.51" x2="66.01" y2="1017.9"/>
				<line class="st6" x1="77.62" y1="1013.51" x2="77.62" y2="1017.9"/>
				<line class="st6" x1="89.24" y1="1013.51" x2="89.24" y2="1017.9"/>
				<line class="st6" x1="100.86" y1="1013.51" x2="100.86" y2="1017.9"/>
				<line class="st6" x1="112.47" y1="1013.51" x2="112.47" y2="1017.9"/>
				<line class="st6" x1="124.09" y1="1013.51" x2="124.09" y2="1017.9"/>
				<line class="st6" x1="135.71" y1="1013.51" x2="135.71" y2="1017.9"/>
				<line class="st6" x1="147.32" y1="1013.51" x2="147.32" y2="1017.9"/>
				<line class="st6" x1="158.94" y1="1013.51" x2="158.94" y2="1017.9"/>
				<line class="st6" x1="170.56" y1="1013.51" x2="170.56" y2="1017.9"/>
			</g>
			<g>
				<line class="st4" x1="57.3" y1="1018.45" x2="57.3" y2="1023.39"/>
				<line class="st4" x1="68.97" y1="1018.45" x2="68.97" y2="1023.39"/>
				<line class="st4" x1="80.64" y1="1018.45" x2="80.64" y2="1023.39"/>
				<line class="st4" x1="92.32" y1="1018.45" x2="92.32" y2="1023.39"/>
				<line class="st4" x1="103.99" y1="1018.45" x2="103.99" y2="1023.39"/>
				<line class="st4" x1="115.67" y1="1018.45" x2="115.67" y2="1023.39"/>
				<line class="st4" x1="127.34" y1="1018.45" x2="127.34" y2="1023.39"/>
				<line class="st4" x1="139.02" y1="1018.45" x2="139.02" y2="1023.39"/>
				<line class="st4" x1="150.69" y1="1018.45" x2="150.69" y2="1023.39"/>
				<line class="st4" x1="162.37" y1="1018.45" x2="162.37" y2="1023.39"/>
				<line class="st4" x1="174.04" y1="1018.45" x2="174.04" y2="1023.39"/>
			</g>
			<g>
				<line class="st6" x1="54.39" y1="1022.81" x2="54.39" y2="1027.19"/>
				<line class="st6" x1="66.01" y1="1022.81" x2="66.01" y2="1027.19"/>
				<line class="st6" x1="77.62" y1="1022.81" x2="77.62" y2="1027.19"/>
				<line class="st6" x1="89.24" y1="1022.81" x2="89.24" y2="1027.19"/>
				<line class="st6" x1="100.86" y1="1022.81" x2="100.86" y2="1027.19"/>
				<line class="st6" x1="112.47" y1="1022.81" x2="112.47" y2="1027.19"/>
				<line class="st6" x1="124.09" y1="1022.81" x2="124.09" y2="1027.19"/>
				<line class="st6" x1="135.71" y1="1022.81" x2="135.71" y2="1027.19"/>
				<line class="st6" x1="147.32" y1="1022.81" x2="147.32" y2="1027.19"/>
				<line class="st6" x1="158.94" y1="1022.81" x2="158.94" y2="1027.19"/>
				<line class="st6" x1="170.56" y1="1022.81" x2="170.56" y2="1027.19"/>
			</g>
			<g>
				<line class="st4" x1="57.3" y1="1027.74" x2="57.3" y2="1032.68"/>
				<line class="st4" x1="68.97" y1="1027.74" x2="68.97" y2="1032.68"/>
				<line class="st4" x1="80.64" y1="1027.74" x2="80.64" y2="1032.68"/>
				<line class="st4" x1="92.32" y1="1027.74" x2="92.32" y2="1032.68"/>
				<line class="st4" x1="103.99" y1="1027.74" x2="103.99" y2="1032.68"/>
				<line class="st4" x1="115.67" y1="1027.74" x2="115.67" y2="1032.68"/>
				<line class="st4" x1="127.34" y1="1027.74" x2="127.34" y2="1032.68"/>
				<line class="st4" x1="139.02" y1="1027.74" x2="139.02" y2="1032.68"/>
				<line class="st4" x1="150.69" y1="1027.74" x2="150.69" y2="1032.68"/>
				<line class="st4" x1="162.37" y1="1027.74" x2="162.37" y2="1032.68"/>
				<line class="st4" x1="174.04" y1="1027.74" x2="174.04" y2="1032.68"/>
			</g>
			<g>
				<line class="st6" x1="54.39" y1="1032.1" x2="54.39" y2="1036.48"/>
				<line class="st6" x1="66.01" y1="1032.1" x2="66.01" y2="1036.48"/>
				<line class="st6" x1="77.62" y1="1032.1" x2="77.62" y2="1036.48"/>
				<line class="st6" x1="89.24" y1="1032.1" x2="89.24" y2="1036.48"/>
				<line class="st6" x1="100.86" y1="1032.1" x2="100.86" y2="1036.48"/>
				<line class="st6" x1="112.47" y1="1032.1" x2="112.47" y2="1036.48"/>
				<line class="st6" x1="124.09" y1="1032.1" x2="124.09" y2="1036.48"/>
				<line class="st6" x1="135.71" y1="1032.1" x2="135.71" y2="1036.48"/>
				<line class="st6" x1="147.32" y1="1032.1" x2="147.32" y2="1036.48"/>
				<line class="st6" x1="158.94" y1="1032.1" x2="158.94" y2="1036.48"/>
				<line class="st6" x1="170.56" y1="1032.1" x2="170.56" y2="1036.48"/>
			</g>
			<g>
				<line class="st4" x1="57.3" y1="1037.03" x2="57.3" y2="1041.97"/>
				<line class="st4" x1="68.97" y1="1037.03" x2="68.97" y2="1041.97"/>
				<line class="st4" x1="80.64" y1="1037.03" x2="80.64" y2="1041.97"/>
				<line class="st4" x1="92.32" y1="1037.03" x2="92.32" y2="1041.97"/>
				<line class="st4" x1="103.99" y1="1037.03" x2="103.99" y2="1041.97"/>
				<line class="st4" x1="115.67" y1="1037.03" x2="115.67" y2="1041.97"/>
				<line class="st4" x1="127.34" y1="1037.03" x2="127.34" y2="1041.97"/>
				<line class="st4" x1="139.02" y1="1037.03" x2="139.02" y2="1041.97"/>
				<line class="st4" x1="150.69" y1="1037.03" x2="150.69" y2="1041.97"/>
				<line class="st4" x1="162.37" y1="1037.03" x2="162.37" y2="1041.97"/>
				<line class="st4" x1="174.04" y1="1037.03" x2="174.04" y2="1041.97"/>
			</g>
			<g>
				<line class="st6" x1="54.39" y1="1041.39" x2="54.39" y2="1045.78"/>
				<line class="st6" x1="66.01" y1="1041.39" x2="66.01" y2="1045.78"/>
				<line class="st6" x1="77.62" y1="1041.39" x2="77.62" y2="1045.78"/>
				<line class="st6" x1="89.24" y1="1041.39" x2="89.24" y2="1045.78"/>
				<line class="st6" x1="100.86" y1="1041.39" x2="100.86" y2="1045.78"/>
				<line class="st6" x1="112.47" y1="1041.39" x2="112.47" y2="1045.78"/>
				<line class="st6" x1="124.09" y1="1041.39" x2="124.09" y2="1045.78"/>
				<line class="st6" x1="135.71" y1="1041.39" x2="135.71" y2="1045.78"/>
				<line class="st6" x1="147.32" y1="1041.39" x2="147.32" y2="1045.78"/>
				<line class="st6" x1="158.94" y1="1041.39" x2="158.94" y2="1045.78"/>
				<line class="st6" x1="170.56" y1="1041.39" x2="170.56" y2="1045.78"/>
			</g>
			<g>
				<line class="st4" x1="57.3" y1="1046.33" x2="57.3" y2="1051.27"/>
				<line class="st4" x1="68.97" y1="1046.33" x2="68.97" y2="1051.27"/>
				<line class="st4" x1="80.64" y1="1046.33" x2="80.64" y2="1051.27"/>
				<line class="st4" x1="92.32" y1="1046.33" x2="92.32" y2="1051.27"/>
				<line class="st4" x1="103.99" y1="1046.33" x2="103.99" y2="1051.27"/>
				<line class="st4" x1="115.67" y1="1046.33" x2="115.67" y2="1051.27"/>
				<line class="st4" x1="127.34" y1="1046.33" x2="127.34" y2="1051.27"/>
				<line class="st4" x1="139.02" y1="1046.33" x2="139.02" y2="1051.27"/>
				<line class="st4" x1="150.69" y1="1046.33" x2="150.69" y2="1051.27"/>
				<line class="st4" x1="162.37" y1="1046.33" x2="162.37" y2="1051.27"/>
				<line class="st4" x1="174.04" y1="1046.33" x2="174.04" y2="1051.27"/>
			</g>
			<g>
				<line class="st6" x1="54.39" y1="1051.85" x2="54.39" y2="1056.23"/>
				<line class="st6" x1="66.01" y1="1051.85" x2="66.01" y2="1056.23"/>
				<line class="st6" x1="77.62" y1="1051.85" x2="77.62" y2="1056.23"/>
				<line class="st6" x1="89.24" y1="1051.85" x2="89.24" y2="1056.23"/>
				<line class="st6" x1="100.86" y1="1051.85" x2="100.86" y2="1056.23"/>
				<line class="st6" x1="112.47" y1="1051.85" x2="112.47" y2="1056.23"/>
				<line class="st6" x1="124.09" y1="1051.85" x2="124.09" y2="1056.23"/>
				<line class="st6" x1="135.71" y1="1051.85" x2="135.71" y2="1056.23"/>
				<line class="st6" x1="147.32" y1="1051.85" x2="147.32" y2="1056.23"/>
				<line class="st6" x1="158.94" y1="1051.85" x2="158.94" y2="1056.23"/>
				<line class="st6" x1="170.56" y1="1051.85" x2="170.56" y2="1056.23"/>
			</g>
			<g>
				<line class="st4" x1="57.3" y1="1056.78" x2="57.3" y2="1061.72"/>
				<line class="st4" x1="68.97" y1="1056.78" x2="68.97" y2="1061.72"/>
				<line class="st4" x1="80.64" y1="1056.78" x2="80.64" y2="1061.72"/>
				<line class="st4" x1="92.32" y1="1056.78" x2="92.32" y2="1061.72"/>
				<line class="st4" x1="103.99" y1="1056.78" x2="103.99" y2="1061.72"/>
				<line class="st4" x1="115.67" y1="1056.78" x2="115.67" y2="1061.72"/>
				<line class="st4" x1="127.34" y1="1056.78" x2="127.34" y2="1061.72"/>
				<line class="st4" x1="139.02" y1="1056.78" x2="139.02" y2="1061.72"/>
				<line class="st4" x1="150.69" y1="1056.78" x2="150.69" y2="1061.72"/>
				<line class="st4" x1="162.37" y1="1056.78" x2="162.37" y2="1061.72"/>
				<line class="st4" x1="174.04" y1="1056.78" x2="174.04" y2="1061.72"/>
			</g>
			<g>
				<line class="st6" x1="54.39" y1="1061.14" x2="54.39" y2="1065.53"/>
				<line class="st6" x1="66.01" y1="1061.14" x2="66.01" y2="1065.53"/>
				<line class="st6" x1="77.62" y1="1061.14" x2="77.62" y2="1065.53"/>
				<line class="st6" x1="89.24" y1="1061.14" x2="89.24" y2="1065.53"/>
				<line class="st6" x1="100.86" y1="1061.14" x2="100.86" y2="1065.53"/>
				<line class="st6" x1="112.47" y1="1061.14" x2="112.47" y2="1065.53"/>
				<line class="st6" x1="124.09" y1="1061.14" x2="124.09" y2="1065.53"/>
				<line class="st6" x1="135.71" y1="1061.14" x2="135.71" y2="1065.53"/>
				<line class="st6" x1="147.32" y1="1061.14" x2="147.32" y2="1065.53"/>
				<line class="st6" x1="158.94" y1="1061.14" x2="158.94" y2="1065.53"/>
				<line class="st6" x1="170.56" y1="1061.14" x2="170.56" y2="1065.53"/>
			</g>
		</g>
	</g>
	<path class="st7" d="M34.27,964.08"/>
	<path class="st7" d="M34.27,964.08"/>
	<circle class="st19" cx="113.9" cy="1006.62" r="13.5"/>
</g>
<g>
	<g>
		<path class="st20" d="M129.53,808.36c0,0-17.21,9.3-33.69,18.39H41.22v60.72l132.12-2v-0.92v-42.32L129.53,808.36z"/>
		<polygon class="st21" points="117.25,793.52 67.44,823.78 40.9,824.32 41.41,842.43 71.1,842.43 130.69,808.92 		"/>
		<path class="st22" d="M155.91,873.53"/>
		<polygon class="st12" points="111.58,801.94 102.11,805.05 102.42,795.77 111.58,795.68 		"/>
		<polygon class="st19" points="129.82,840.06 129.82,825.24 119.05,825.24 119.05,840.06 117,840.06 117,843.29 119.05,843.29 
			129.82,843.29 131.61,843.29 131.61,840.06 		"/>
		<polygon class="st19" points="154.8,853.7 154.8,838.88 144.03,838.88 144.03,853.7 141.98,853.7 141.98,856.94 144.03,856.94 
			154.8,856.94 156.59,856.94 156.59,853.7 		"/>
		<polygon class="st19" points="101.1,854.25 101.1,839.43 90.33,839.43 90.33,854.25 88.27,854.25 88.27,857.48 90.33,857.48 
			101.1,857.48 102.89,857.48 102.89,854.25 		"/>
		<polygon class="st19" points="133.88,883.32 133.88,860.68 134.05,860.68 124.98,853.77 115.91,860.68 116.08,860.68 
			116.08,883.32 114.72,883.32 114.72,886.54 118.24,886.54 118.24,886.36 131.31,886.36 131.31,886.54 134.83,886.54 
			134.83,883.32 		"/>
		<rect x="119.03" y="862.86" class="st23" width="11.89" height="21.17"/>
		<polyline class="st24" points="41.22,826.74 41.22,887.46 173.34,885.46 173.34,884.54 173.34,842.22 129.53,808.36 		"/>
		<polyline class="st11" points="41.22,826.74 41.22,887.46 173.34,885.46 173.34,884.54 173.34,842.22 129.53,808.36 		"/>
		<rect x="93.1" y="841.69" class="st25" width="5.56" height="11.92"/>
		<rect x="121.52" y="827.38" class="st25" width="5.56" height="11.92"/>
		<rect x="146.5" y="841.69" class="st25" width="5.56" height="11.92"/>
	</g>
	<ellipse class="st26" cx="174.11" cy="862.35" rx="5.47" ry="19.27"/>
	<ellipse class="st26" cx="187.85" cy="870.49" rx="12.19" ry="12.68"/>
</g>
<g>
	<rect x="294.9" y="449.62" class="st9" width="62.26" height="52.92"/>
	<polygon class="st19" points="337.54,500.28 337.54,477.72 337.71,477.72 328.68,470.84 319.64,477.72 319.81,477.72 
		319.81,500.28 318.46,500.28 318.46,503.49 321.97,503.49 321.97,503.31 334.98,503.31 334.98,503.49 338.49,503.49 338.49,500.28 
			"/>
	<polygon class="st10" points="359.24,449.33 295.11,449.33 299.62,438.21 352.11,438.21 	"/>
	<rect x="322.75" y="479.9" class="st27" width="11.84" height="21.09"/>
	<polygon class="st11" points="359.24,449.33 295.11,449.33 299.62,438.21 352.11,438.21 	"/>
	<polygon class="st19" points="331.58,463.8 331.58,453.48 324.09,453.48 324.09,463.8 322.66,463.8 322.66,466.05 324.09,466.05 
		331.58,466.05 332.83,466.05 332.83,463.8 	"/>
	<polygon class="st19" points="349.21,463.8 349.21,453.48 341.71,453.48 341.71,463.8 340.28,463.8 340.28,466.05 341.71,466.05 
		349.21,466.05 350.45,466.05 350.45,463.8 	"/>
	<polygon class="st19" points="313.96,463.8 313.96,453.48 306.46,453.48 306.46,463.8 305.03,463.8 305.03,466.05 306.46,466.05 
		313.96,466.05 315.2,466.05 315.2,463.8 	"/>
	<rect x="337.64" y="426.36" class="st12" width="11.01" height="11.99"/>
	<rect x="295.42" y="449.1" class="st11" width="62.26" height="53.96"/>
	<ellipse class="st26" cx="369.83" cy="484.62" rx="5.67" ry="20"/>
	<ellipse class="st26" cx="356.08" cy="490.99" rx="12.65" ry="13.16"/>
	<rect x="308.5" y="455.5" class="st28" width="4" height="8"/>
	<rect x="325.51" y="455.33" class="st29" width="4.15" height="8.3"/>
	<rect x="343.15" y="455.33" class="st29" width="4.15" height="8.3"/>
</g>
<g>
	<rect x="464.54" y="440.62" class="st30" width="62.26" height="52.92"/>
	<polygon class="st19" points="507.18,491.28 507.18,468.72 507.35,468.72 498.31,461.84 489.28,468.72 489.45,468.72 
		489.45,491.28 488.09,491.28 488.09,494.49 491.61,494.49 491.61,494.31 504.62,494.31 504.62,494.49 508.13,494.49 508.13,491.28 
			"/>
	<polygon class="st10" points="528.88,440.33 464.75,440.33 469.26,429.21 521.75,429.21 	"/>
	<rect x="492.39" y="470.9" class="st27" width="11.84" height="21.09"/>
	<polygon class="st11" points="528.88,440.33 464.75,440.33 469.26,429.21 521.75,429.21 	"/>
	<polygon class="st19" points="483.6,454.8 483.6,444.48 476.1,444.48 476.1,454.8 474.67,454.8 474.67,457.05 476.1,457.05 
		483.6,457.05 484.84,457.05 484.84,454.8 	"/>
	<rect x="507.28" y="417.36" class="st12" width="11.01" height="11.99"/>
	<rect x="465.06" y="440.1" class="st11" width="62.26" height="53.96"/>
	<rect x="477.51" y="446.33" class="st29" width="4.15" height="8.3"/>
	<g>
		<polygon class="st19" points="501.65,454.8 501.65,444.48 494.15,444.48 494.15,454.8 492.72,454.8 492.72,457.05 494.15,457.05 
			501.65,457.05 502.89,457.05 502.89,454.8 		"/>
		<rect x="495.73" y="446.33" class="st29" width="4.15" height="8.3"/>
	</g>
	<g>
		<polygon class="st19" points="517.65,454.8 517.65,444.48 510.15,444.48 510.15,454.8 508.72,454.8 508.72,457.05 510.15,457.05 
			517.65,457.05 518.89,457.05 518.89,454.8 		"/>
		<rect x="511.73" y="446.33" class="st29" width="4.15" height="8.3"/>
	</g>
	<polyline class="st19" points="493.73,457.05 501.22,457.05 502.47,457.05 	"/>
</g>
<g>
	<path class="st22" d="M130.9,454.34"/>
	<g>
		<rect x="96.79" y="441.64" class="st10" width="65.64" height="55.79"/>
		<polygon class="st19" points="141.74,495.04 141.74,471.27 141.92,471.27 132.39,464.01 122.87,471.27 123.05,471.27 
			123.05,495.04 121.62,495.04 121.62,498.42 125.32,498.42 125.32,498.24 139.04,498.24 139.04,498.42 142.75,498.42 
			142.75,495.04 		"/>
		<polygon class="st13" points="164.61,441.33 97.01,441.33 101.76,429.6 157.1,429.6 		"/>
		<rect x="126.15" y="473.56" class="st31" width="12.49" height="19.21"/>
		<polygon class="st11" points="164.61,441.33 97.01,441.33 101.76,429.6 157.1,429.6 		"/>
		<polygon class="st19" points="135.46,456.58 135.46,445.7 127.56,445.7 127.56,456.58 126.05,456.58 126.05,458.95 127.56,458.95 
			135.46,458.95 136.77,458.95 136.77,456.58 		"/>
		<polygon class="st19" points="154.04,456.58 154.04,445.7 146.14,445.7 146.14,456.58 144.63,456.58 144.63,458.95 146.14,458.95 
			154.04,458.95 155.35,458.95 155.35,456.58 		"/>
		<polygon class="st19" points="116.88,456.58 116.88,445.7 108.98,445.7 108.98,456.58 107.47,456.58 107.47,458.95 108.98,458.95 
			116.88,458.95 118.19,458.95 118.19,456.58 		"/>
		<rect x="125.02" y="493.79" class="st32" width="14.61" height="2.44"/>
		<rect x="141.85" y="417.12" class="st12" width="11.61" height="12.64"/>
		<rect x="97.34" y="441.09" class="st11" width="65.64" height="56.89"/>
		<ellipse class="st26" cx="99.2" cy="478.54" rx="5.98" ry="21.08"/>
		<ellipse class="st33" cx="165.94" cy="478.54" rx="5.98" ry="21.08"/>
		<ellipse class="st26" cx="165.94" cy="478.54" rx="5.98" ry="21.08"/>
		<rect x="110.46" y="447.66" class="st34" width="4.38" height="8.75"/>
		<rect x="129.06" y="447.66" class="st34" width="4.38" height="8.75"/>
		<rect x="147.66" y="447.66" class="st34" width="4.38" height="8.75"/>
	</g>
</g>
<g>
	<path class="st20" d="M142.53,96.36c0,0-17.21,9.3-33.69,18.39H60.22v60.72l126.12-2v-0.92v-42.32L142.53,96.36z"/>
	<polygon class="st21" points="130.25,81.52 80.44,111.78 59.9,112.32 60.41,130.43 84.1,130.43 143.69,96.92 	"/>
	<path class="st22" d="M168.91,161.53"/>
	<polygon class="st12" points="124.58,89.94 115.11,93.05 115.42,83.77 124.58,83.68 	"/>
	<polygon class="st8" points="142.82,129.06 142.82,113.24 132.05,113.24 132.05,129.06 130,129.06 130,131.29 132.05,131.29 
		142.82,131.29 144.61,131.29 144.61,129.06 	"/>
	<polygon class="st8" points="167.8,142.7 167.8,126.88 157.03,126.88 157.03,142.7 154.98,142.7 154.98,144.94 157.03,144.94 
		167.8,144.94 169.59,144.94 169.59,142.7 	"/>
	<polygon class="st8" points="114.1,143.25 114.1,127.43 103.33,127.43 103.33,143.25 101.27,143.25 101.27,145.48 103.33,145.48 
		114.1,145.48 115.89,145.48 115.89,143.25 	"/>
	<polygon class="st19" points="146.88,170.32 146.88,147.68 147.05,147.68 137.98,140.77 128.91,147.68 129.08,147.68 
		129.08,170.32 127.72,170.32 127.72,173.54 131.24,173.54 131.24,173.36 144.31,173.36 144.31,173.54 147.83,173.54 147.83,170.32 
			"/>
	<rect x="132.03" y="150.86" class="st30" width="11.89" height="21.17"/>
	<polyline class="st24" points="60.22,114.74 60.22,175.46 186.34,173.46 186.34,172.54 186.34,130.22 142.53,96.36 	"/>
	<polyline class="st11" points="60.22,114.74 60.22,175.46 186.34,173.46 186.34,172.54 186.34,130.22 142.53,96.36 	"/>
</g>
<ellipse class="st26" cx="186.11" cy="154.35" rx="5.47" ry="19.27"/>
<ellipse class="st26" cx="199.85" cy="162.49" rx="12.19" ry="12.68"/>
<rect x="418.54" y="133.7" class="st30" width="62.26" height="55.92"/>
<polygon class="st13" points="481.88,132.32 417.75,132.32 422.26,121.21 474.75,121.21 "/>
<polygon class="st11" points="481.88,132.32 417.75,132.32 422.26,121.21 474.75,121.21 "/>
<polygon class="st8" points="436.6,148.8 436.6,138.48 429.1,138.48 429.1,148.8 427.67,148.8 427.67,151.05 429.1,151.05 
	436.6,151.05 437.84,151.05 437.84,148.8 "/>
<rect x="460.28" y="108.36" class="st12" width="11.01" height="11.99"/>
<rect x="419.06" y="132.66" class="st11" width="62.26" height="56.96"/>
<ellipse class="st26" cx="420.83" cy="169.62" rx="5.67" ry="20"/>
<ellipse class="st26" cx="407.08" cy="176.46" rx="12.65" ry="13.16"/>
<g>
	<polygon class="st8" points="453.65,148.8 453.65,138.48 446.15,138.48 446.15,148.8 444.72,148.8 444.72,151.05 446.15,151.05 
		453.65,151.05 454.89,151.05 454.89,148.8 	"/>
</g>
<g>
	<polygon class="st8" points="470.65,148.8 470.65,138.48 463.15,138.48 463.15,148.8 461.72,148.8 461.72,151.05 463.15,151.05 
		470.65,151.05 471.89,151.05 471.89,148.8 	"/>
</g>
<ellipse class="st26" cx="270.2" cy="168.54" rx="5.98" ry="21.08"/>
<ellipse class="st26" cx="336.94" cy="168.54" rx="5.98" ry="21.08"/>
<polygon class="st19" points="388.18,185.41 388.18,162.86 388.35,162.86 379.31,155.98 370.28,162.86 370.45,162.86 370.45,185.41 
	369.09,185.41 369.09,188.62 372.61,188.62 372.61,188.44 385.62,188.44 385.62,188.62 389.13,188.62 389.13,185.41 "/>
<polygon class="st19" points="312.18,185.41 312.18,162.86 312.35,162.86 303.31,155.98 294.28,162.86 294.45,162.86 294.45,185.41 
	293.09,185.41 293.09,188.62 296.61,188.62 296.61,188.44 309.62,188.44 309.62,188.62 313.13,188.62 313.13,185.41 "/>
<polygon class="st19" points="459.18,185.41 459.18,162.86 459.35,162.86 450.31,155.98 441.28,162.86 441.45,162.86 441.45,185.41 
	440.09,185.41 440.09,188.62 443.61,188.62 443.61,188.44 456.62,188.44 456.62,188.62 460.13,188.62 460.13,185.41 "/>
<rect x="373.39" y="166.53" class="st35" width="11.84" height="21.09"/>
<rect x="297.39" y="166.53" class="st36" width="11.84" height="21.09"/>
<rect x="444.39" y="166.53" class="st37" width="11.84" height="21.09"/>
</svg>
