<?xml version="1.0" encoding="utf-8"?>
<!-- Generator: Adobe Illustrator 23.0.1, SVG Export Plug-In . SVG Version: 6.00 Build 0)  -->
<svg version="1.1" id="Layer_1" xmlns="http://www.w3.org/2000/svg" xmlns:xlink="http://www.w3.org/1999/xlink" x="0px" y="0px"
	 viewBox="0 0 274.89 154.87" style="enable-background:new 0 0 274.89 154.87;" xml:space="preserve">
<style type="text/css">
	.st0{fill:#F3ECCE;stroke:#3D3C45;stroke-width:3;stroke-miterlimit:10;}
	.st1{fill:#6FCCEB;stroke:#3D3C45;stroke-width:3;stroke-miterlimit:10;}
	.st2{fill:#BAB9B6;stroke:#3D3C45;stroke-width:3;stroke-miterlimit:10;}
	.st3{fill:#80807F;stroke:#3D3C45;stroke-width:3;stroke-miterlimit:10;}
	.st4{fill:#E13E26;stroke:#3D3C45;stroke-width:3;stroke-miterlimit:10;}
	.st5{fill:none;stroke:#3D3C45;stroke-width:3;stroke-miterlimit:10;}
</style>
<g>
	<g>
		<g>
			<path class="st0" d="M270.49,92.6H168.62v60.74H271.1V93.21C271.1,92.88,270.83,92.6,270.49,92.6z"/>
			<rect x="174.13" y="99.61" class="st1" width="4.74" height="8.45"/>
			<rect x="185.78" y="99.61" class="st1" width="4.74" height="8.45"/>
			<rect x="197.44" y="99.61" class="st1" width="4.74" height="8.45"/>
			<rect x="209.09" y="99.61" class="st1" width="4.74" height="8.45"/>
			<rect x="220.75" y="99.61" class="st1" width="4.74" height="8.45"/>
			<rect x="234.22" y="99.61" class="st1" width="4.74" height="8.45"/>
			<rect x="245.87" y="99.61" class="st1" width="4.74" height="8.45"/>
			<rect x="257.53" y="99.61" class="st1" width="4.74" height="8.45"/>
			<rect x="234.22" y="113.01" class="st1" width="4.74" height="8.45"/>
			<rect x="245.87" y="113.01" class="st1" width="4.74" height="8.45"/>
			<rect x="257.53" y="113.01" class="st1" width="4.74" height="8.45"/>
			<rect x="234.22" y="126.41" class="st1" width="4.74" height="8.45"/>
			<rect x="245.87" y="126.41" class="st1" width="4.74" height="8.45"/>
			<rect x="257.53" y="126.41" class="st1" width="4.74" height="8.45"/>
			<rect x="234.22" y="141.93" class="st1" width="4.74" height="6.32"/>
			<rect x="245.87" y="141.93" class="st1" width="4.74" height="6.32"/>
			<rect x="257.53" y="141.93" class="st1" width="4.74" height="6.32"/>
			<g>
				<rect x="174.13" y="113.01" class="st1" width="4.74" height="8.45"/>
				<rect x="185.78" y="113.01" class="st1" width="4.74" height="8.45"/>
				<rect x="197.44" y="113.01" class="st1" width="4.74" height="8.45"/>
				<rect x="209.09" y="113.01" class="st1" width="4.74" height="8.45"/>
				<rect x="220.75" y="113.01" class="st1" width="4.74" height="8.45"/>
			</g>
			<g>
				<rect x="174.13" y="126.41" class="st1" width="4.74" height="8.45"/>
				<rect x="185.78" y="126.41" class="st1" width="4.74" height="8.45"/>
				<rect x="197.44" y="126.41" class="st1" width="4.74" height="8.45"/>
				<rect x="209.09" y="126.41" class="st1" width="4.74" height="8.45"/>
				<rect x="220.75" y="126.41" class="st1" width="4.74" height="8.45"/>
			</g>
			<g>
				<rect x="174.13" y="141.93" class="st1" width="4.74" height="6.13"/>
				<rect x="185.78" y="141.93" class="st1" width="4.74" height="6.13"/>
				<rect x="197.44" y="141.93" class="st1" width="4.74" height="6.13"/>
				<rect x="209.09" y="141.93" class="st1" width="4.74" height="6.13"/>
				<rect x="220.75" y="141.93" class="st1" width="4.74" height="6.13"/>
			</g>
		</g>
		<g>
			<path class="st0" d="M104.89,92.6H3.03v60.74H105.5V93.21C105.5,92.88,105.23,92.6,104.89,92.6z"/>
			<rect x="8.53" y="99.61" class="st1" width="4.74" height="8.45"/>
			<rect x="20.19" y="99.61" class="st1" width="4.74" height="8.45"/>
			<rect x="31.84" y="99.61" class="st1" width="4.74" height="8.45"/>
			<rect x="43.5" y="99.61" class="st1" width="4.74" height="8.45"/>
			<rect x="55.15" y="99.61" class="st1" width="4.74" height="8.45"/>
			<rect x="68.62" y="99.61" class="st1" width="4.74" height="8.45"/>
			<rect x="80.28" y="99.61" class="st1" width="4.74" height="8.45"/>
			<rect x="91.93" y="99.61" class="st1" width="4.74" height="8.45"/>
			<rect x="68.62" y="113.01" class="st1" width="4.74" height="8.45"/>
			<rect x="80.28" y="113.01" class="st1" width="4.74" height="8.45"/>
			<rect x="91.93" y="113.01" class="st1" width="4.74" height="8.45"/>
			<rect x="68.62" y="126.41" class="st1" width="4.74" height="8.45"/>
			<rect x="80.28" y="126.41" class="st1" width="4.74" height="8.45"/>
			<rect x="91.93" y="126.41" class="st1" width="4.74" height="8.45"/>
			<rect x="68.62" y="141.93" class="st1" width="4.74" height="6.32"/>
			<rect x="80.28" y="141.93" class="st1" width="4.74" height="6.32"/>
			<rect x="91.93" y="141.93" class="st1" width="4.74" height="6.32"/>
			<g>
				<rect x="8.53" y="113.01" class="st1" width="4.74" height="8.45"/>
				<rect x="20.19" y="113.01" class="st1" width="4.74" height="8.45"/>
				<rect x="31.84" y="113.01" class="st1" width="4.74" height="8.45"/>
				<rect x="43.5" y="113.01" class="st1" width="4.74" height="8.45"/>
				<rect x="55.15" y="113.01" class="st1" width="4.74" height="8.45"/>
			</g>
			<g>
				<rect x="8.53" y="126.41" class="st1" width="4.74" height="8.45"/>
				<rect x="20.19" y="126.41" class="st1" width="4.74" height="8.45"/>
				<rect x="31.84" y="126.41" class="st1" width="4.74" height="8.45"/>
				<rect x="43.5" y="126.41" class="st1" width="4.74" height="8.45"/>
				<rect x="55.15" y="126.41" class="st1" width="4.74" height="8.45"/>
			</g>
			<g>
				<rect x="8.53" y="141.93" class="st1" width="4.74" height="6.13"/>
				<rect x="20.19" y="141.93" class="st1" width="4.74" height="6.13"/>
				<rect x="31.84" y="141.93" class="st1" width="4.74" height="6.13"/>
				<rect x="43.5" y="141.93" class="st1" width="4.74" height="6.13"/>
				<rect x="55.15" y="141.93" class="st1" width="4.74" height="6.13"/>
			</g>
		</g>
	</g>
	<g>
		<g>
			
				<rect x="108.44" y="125.81" transform="matrix(-1 -1.224647e-16 1.224647e-16 -1 221.112 260.642)" class="st1" width="4.23" height="9.03"/>
			
				<rect x="108.44" y="112.72" transform="matrix(-1 -1.224647e-16 1.224647e-16 -1 221.112 234.4654)" class="st1" width="4.23" height="9.03"/>
			
				<rect x="108.44" y="99.32" transform="matrix(-1 -1.224647e-16 1.224647e-16 -1 221.112 207.6694)" class="st1" width="4.23" height="9.03"/>
		</g>
		<g>
			
				<rect x="161.47" y="125.81" transform="matrix(-1 -1.224647e-16 1.224647e-16 -1 327.159 260.642)" class="st1" width="4.23" height="9.03"/>
			
				<rect x="161.47" y="112.72" transform="matrix(-1 -1.224647e-16 1.224647e-16 -1 327.159 234.4654)" class="st1" width="4.23" height="9.03"/>
			
				<rect x="161.47" y="99.32" transform="matrix(-1 -1.224647e-16 1.224647e-16 -1 327.159 207.6694)" class="st1" width="4.23" height="9.03"/>
		</g>
	</g>
	<rect x="119.6" y="48.78" class="st0" width="34.94" height="27.54"/>
	<g>
		<path class="st2" d="M137.07,31.22c-10.05,0-18.2,10.41-18.2,17.56h36.39C155.26,41.62,147.12,31.22,137.07,31.22z"/>
		<path class="st3" d="M137.07,31.22c10.05,0,18.19,10.41,18.19,17.56h-18.19"/>
	</g>
	<path class="st4" d="M137.07,18.27l-3.65,3.07c-0.07,0.06-0.04,0.19,0.05,0.19h7.21c0.08,0,0.12-0.13,0.05-0.19L137.07,18.27z"/>
	<g>
		<line class="st5" x1="124.63" y1="48.78" x2="124.63" y2="75.35"/>
		<line class="st5" x1="130.85" y1="48.78" x2="130.85" y2="75.35"/>
		<line class="st5" x1="137.07" y1="75.35" x2="137.07" y2="48.78"/>
		<line class="st5" x1="143.29" y1="48.78" x2="143.29" y2="75.35"/>
		<line class="st5" x1="149.51" y1="48.78" x2="149.51" y2="75.35"/>
	</g>
	<rect x="132.17" y="28.88" class="st4" width="9.8" height="3.21"/>
	<rect x="132.91" y="21.53" class="st0" width="8.32" height="7.35"/>
	<line class="st5" x1="137.07" y1="18.27" x2="137.07" y2="6.48"/>
	<g>
		<polygon class="st0" points="139.9,122.04 144.23,122.04 143.71,87.28 140.42,87.28 		"/>
		<polygon class="st0" points="129.91,122.04 134.23,122.04 133.72,87.28 130.42,87.28 		"/>
	</g>
	
		<rect x="119.91" y="122.04" transform="matrix(-1 -1.224647e-16 1.224647e-16 -1 274.1355 265.8754)" class="st0" width="34.31" height="21.79"/>
	<g>
		
			<rect x="146.47" y="109.45" transform="matrix(-1 -1.224647e-16 1.224647e-16 -1 297.9966 227.9307)" class="st1" width="5.05" height="9.03"/>
		
			<rect x="134.54" y="109.45" transform="matrix(-1 -1.224647e-16 1.224647e-16 -1 274.1352 227.9307)" class="st1" width="5.05" height="9.03"/>
		
			<rect x="122.61" y="109.45" transform="matrix(-1 -1.224647e-16 1.224647e-16 -1 250.2738 227.9307)" class="st1" width="5.05" height="9.03"/>
	</g>
	<g>
		
			<rect x="146.47" y="96.05" transform="matrix(-1 -1.224647e-16 1.224647e-16 -1 297.9966 201.1347)" class="st1" width="5.05" height="9.03"/>
		
			<rect x="134.54" y="96.05" transform="matrix(-1 -1.224647e-16 1.224647e-16 -1 274.1352 201.1347)" class="st1" width="5.05" height="9.03"/>
		
			<rect x="122.61" y="96.05" transform="matrix(-1 -1.224647e-16 1.224647e-16 -1 250.2738 201.1347)" class="st1" width="5.05" height="9.03"/>
	</g>
	<rect x="112.67" y="143.92" class="st0" width="48.8" height="9.42"/>
	<g>
		<rect x="124.34" y="127.49" class="st4" width="5.46" height="16.34"/>
		<rect x="134.34" y="127.49" class="st4" width="5.46" height="16.34"/>
		<rect x="144.33" y="127.49" class="st4" width="5.46" height="16.34"/>
	</g>
	<line class="st5" x1="109.19" y1="70.53" x2="165.69" y2="70.53"/>
	<g>
		<g>
			<line class="st5" x1="112.88" y1="59.74" x2="112.88" y2="53.97"/>
			<g>
				<rect x="109.19" y="62.55" class="st0" width="7.41" height="13.77"/>
				<path class="st0" d="M112.88,57.75c-2.03,0-3.68,2.15-3.68,4.8h7.37C116.56,59.9,114.91,57.75,112.88,57.75z"/>
			</g>
		</g>
		<g>
			<line class="st5" x1="161.97" y1="59.74" x2="161.97" y2="53.97"/>
			<g>
				<rect x="158.29" y="62.55" class="st0" width="7.41" height="13.77"/>
				<path class="st0" d="M161.97,57.75c-2.03,0-3.68,2.15-3.68,4.8h7.37C165.65,59.9,164,57.75,161.97,57.75z"/>
			</g>
		</g>
	</g>
	<rect x="105.5" y="89.16" class="st0" width="13.37" height="64.18"/>
	<rect x="155.26" y="89.16" class="st0" width="13.37" height="64.18"/>
	<rect x="105.5" y="78.41" class="st3" width="63.12" height="14.19"/>
	<g>
		<rect x="168.62" y="78.41" class="st0" width="102.48" height="14.5"/>
		<rect x="3.03" y="78.1" class="st0" width="102.48" height="14.5"/>
	</g>
	<rect x="105.13" y="70.53" class="st0" width="63.87" height="7.58"/>
</g>
</svg>
