<?xml version="1.0" encoding="utf-8"?>
<!-- Generator: Adobe Illustrator 23.0.1, SVG Export Plug-In . SVG Version: 6.00 Build 0)  -->
<svg version="1.1" id="Layer_1" xmlns="http://www.w3.org/2000/svg" xmlns:xlink="http://www.w3.org/1999/xlink" x="0px" y="0px"
	 viewBox="0 0 320 160" style="enable-background:new 0 0 320 160;" xml:space="preserve">
<style type="text/css">
	.st0{fill:#6ECDED;}
</style>
<path class="st0" d="M225.25,158.35c0.18-0.53,0.28-1.08,0.28-1.66c0-2.52-1.85-4.68-4.49-5.64c0.27-0.65,0.42-1.35,0.42-2.08
	c0-3.6-3.53-6.52-7.88-6.52c-3.68,0-6.77,2.09-7.63,4.92c-0.08,0-0.17-0.01-0.25-0.01c-5.21,0-9.43,3.27-9.43,7.3
	c0,1.35,0.48,2.6,1.3,3.69H225.25z"/>
<path class="st0" d="M120.61,63.49c0.18-0.53,0.28-1.08,0.28-1.66c0-2.52-1.85-4.68-4.49-5.64c0.27-0.65,0.42-1.35,0.42-2.08
	c0-3.6-3.53-6.52-7.88-6.52c-3.68,0-6.77,2.09-7.63,4.92c-0.08,0-0.17-0.01-0.25-0.01c-5.21,0-9.43,3.27-9.43,7.3
	c0,1.35,0.48,2.6,1.3,3.69H120.61z"/>
<path class="st0" d="M313.75,135.36c0.18-0.53,0.28-1.08,0.28-1.66c0-2.52-1.85-4.68-4.49-5.64c0.27-0.65,0.42-1.35,0.42-2.08
	c0-3.6-3.53-6.52-7.88-6.52c-3.68,0-6.77,2.09-7.63,4.92c-0.08,0-0.17-0.01-0.25-0.01c-5.21,0-9.43,3.27-9.43,7.3
	c0,1.35,0.48,2.6,1.3,3.69L313.75,135.36L313.75,135.36z"/>
</svg>
