<?xml version="1.0" standalone="no"?>
<!DOCTYPE svg PUBLIC "-//W3C//DTD SVG 20010904//EN"
 "http://www.w3.org/TR/2001/REC-SVG-20010904/DTD/svg10.dtd">
<svg version="1.0" xmlns="http://www.w3.org/2000/svg"
 width="260.000000pt" height="260.000000pt" viewBox="0 0 260.000000 260.000000"
 preserveAspectRatio="xMidYMid meet">
<metadata>
Created by potrace 1.11, written by Peter Selinger 2001-2013
</metadata>
<g transform="translate(0.000000,260.000000) scale(0.100000,-0.100000)"
fill="#000000" stroke="none">
<path d="M1275 2497 c-5 -21 -12 -26 -24 -22 -66 27 -148 3 -186 -55 -22 -33
-44 -33 -81 1 -25 24 -34 24 -34 2 0 -11 -15 -24 -40 -35 -27 -11 -45 -27 -57
-52 -10 -21 -27 -39 -39 -42 -13 -3 -30 -14 -40 -25 -13 -14 -21 -16 -36 -8
-25 13 -33 6 -19 -19 12 -22 6 -32 -20 -32 -10 0 -31 -12 -48 -26 -24 -20 -31
-34 -31 -63 0 -44 34 -83 72 -83 84 2 166 10 183 19 17 9 28 4 72 -37 l52 -48
-187 1 c-120 1 -196 -2 -212 -9 l-25 -12 25 -9 c50 -20 167 -45 245 -54 121
-12 179 -31 183 -59 3 -21 1 -22 -25 -14 -25 8 -139 11 -203 5 -14 -1 -46 1
-72 4 -26 4 -58 5 -73 1 -69 -18 -88 -95 -35 -148 27 -26 35 -29 68 -24 20 4
45 6 55 6 9 -1 34 -1 55 -1 20 0 57 0 82 -1 61 -1 115 -1 175 0 28 1 60 1 73
1 41 0 92 -1 120 0 15 0 43 0 62 -1 19 0 67 -1 105 0 39 0 111 0 160 0 50 -1
104 -1 120 0 17 0 50 0 75 0 161 -3 200 9 200 61 0 84 -130 137 -240 98 -28
-10 -42 -10 -70 0 -19 6 -56 12 -82 12 -27 1 -48 5 -48 11 0 19 39 29 147 38
61 6 136 19 169 30 32 12 85 28 117 37 31 8 57 20 57 24 0 19 -71 25 -262 22
-123 -1 -198 1 -198 7 0 6 15 23 33 39 33 29 34 29 143 26 161 -5 166 -5 193
15 58 43 45 128 -23 153 -40 15 -52 35 -34 57 11 13 10 15 -8 10 -12 -3 -32 1
-45 8 -13 7 -47 13 -75 14 -44 0 -52 3 -62 25 -8 17 -25 29 -56 37 -29 8 -42
16 -39 25 7 17 -7 17 -27 -2 -15 -14 -21 -11 -58 24 -46 44 -88 57 -156 48
-39 -6 -43 -4 -53 21 l-10 27 -8 -28z m-25 -53 c33 -13 46 -14 66 -5 35 16
100 14 134 -4 16 -8 41 -31 56 -51 26 -33 31 -35 65 -30 50 8 83 -6 98 -42 12
-28 15 -29 56 -24 64 7 93 -4 117 -43 11 -21 28 -35 39 -35 27 0 59 -35 59
-64 0 -15 -11 -33 -27 -46 -23 -18 -35 -21 -68 -15 -22 4 -69 7 -105 6 -73 -2
-107 15 -135 69 -12 23 -22 28 -65 32 -51 5 -100 36 -100 64 0 22 -18 25 -49
9 -41 -21 -89 -19 -135 6 -38 20 -39 20 -60 1 -33 -30 -61 -42 -101 -42 -22 0
-47 -8 -62 -20 -18 -14 -41 -20 -74 -20 l-49 0 0 -34 c0 -52 -47 -87 -114 -86
-28 0 -64 -2 -79 -6 -36 -8 -67 18 -67 57 0 32 27 55 79 65 21 4 36 15 41 29
10 27 47 55 72 55 11 0 23 13 31 33 27 63 65 79 152 64 37 -6 41 -5 60 26 20
32 75 67 107 67 10 0 36 -7 58 -16z m-24 -240 c-3 -26 -6 -60 -6 -76 0 -29 0
-29 -40 21 -44 56 -46 61 -26 61 8 0 24 9 37 20 36 29 42 24 35 -26z m194 31
c0 -3 -16 -25 -35 -51 -19 -25 -35 -51 -36 -57 -2 -19 -17 35 -18 64 -1 21 5
27 37 36 47 13 52 14 52 8z m-132 -14 c8 -5 16 -35 19 -70 6 -61 6 -61 -21
-61 -34 0 -40 17 -31 85 7 56 10 61 33 46z m-134 -81 c41 -52 44 -66 15 -75
-27 -9 -34 -1 -63 72 -22 56 -22 61 -6 55 10 -4 34 -27 54 -52z m294 -14 c-24
-64 -31 -71 -57 -57 -28 15 -27 28 9 84 26 41 32 46 48 36 18 -12 18 -13 0
-63z m-364 -13 l24 -61 -27 14 c-14 8 -52 25 -83 40 -65 29 -77 54 -25 54 18
0 42 6 53 14 24 18 29 14 58 -61z m491 29 c0 -8 -26 -29 -58 -48 l-59 -34 7
32 c13 61 22 69 68 66 27 -2 42 -8 42 -16z m-481 -113 c5 -4 2 -19 -8 -34
l-17 -26 -49 27 c-60 33 -105 78 -97 98 5 13 19 9 84 -21 43 -19 82 -39 87
-44z m521 66 c2 -5 -24 -34 -56 -64 l-60 -55 -17 25 c-9 13 -16 26 -15 29 0 3
27 22 59 42 58 36 85 43 89 23z m-254 -40 c84 -30 148 -117 149 -202 0 -49
-23 -63 -71 -43 -19 8 -52 10 -96 6 -80 -8 -83 -8 -195 0 l-88 6 0 37 c1 52
31 113 78 152 69 58 142 72 223 44z m567 -90 c-14 -14 -176 -54 -240 -60 -40
-3 -92 -8 -114 -11 -38 -4 -42 -3 -46 21 -3 14 0 29 6 33 6 4 72 10 146 13
214 9 254 9 248 4z m-905 -27 c19 -10 24 -58 4 -58 -6 0 -44 9 -82 20 -38 11
-89 20 -113 20 -59 0 -142 21 -117 30 26 9 286 -1 308 -12z m-256 -153 c23
-16 63 -75 63 -94 0 -25 -56 -11 -90 24 -19 19 -42 35 -52 35 -25 0 -23 -8 7
-32 28 -22 25 -38 -8 -38 -36 0 -67 28 -67 60 0 18 8 34 22 44 28 20 97 21
125 1z m443 2 c26 -13 70 -71 70 -93 0 -9 -12 -14 -32 -14 -24 0 -43 10 -74
41 -23 22 -44 37 -48 31 -3 -5 3 -17 14 -27 28 -25 25 -45 -5 -45 -19 0 -34
12 -56 44 -18 24 -31 48 -31 53 2 22 123 30 162 10z m445 -1 c33 -14 75 -66
75 -93 0 -8 -13 -13 -32 -13 -24 0 -42 10 -70 37 -37 36 -67 40 -35 5 24 -26
21 -42 -6 -42 -27 0 -47 19 -71 68 -13 25 -14 33 -4 36 7 3 20 7 28 9 30 10
81 7 115 -7z"/>
<path d="M1130 2404 c-40 -34 -25 -57 16 -25 29 23 64 27 95 11 15 -8 19 -7
19 4 0 42 -85 48 -130 10z"/>
<path d="M1325 2408 c-24 -14 -35 -29 -29 -40 3 -5 15 -1 27 7 12 8 41 15 65
15 35 0 49 -6 74 -30 33 -34 38 -36 38 -16 0 8 -16 28 -35 45 -28 24 -45 31
-78 31 -23 0 -51 -6 -62 -12z"/>
<path d="M920 2321 c-17 -16 -30 -37 -30 -45 0 -25 14 -19 33 14 17 29 45 42
77 37 8 -1 17 3 20 8 3 6 -12 11 -33 13 -30 3 -43 -2 -67 -27z"/>
<path d="M1550 2320 c0 -5 15 -10 34 -10 23 0 38 -7 48 -22 8 -12 17 -17 21
-11 3 5 -1 19 -9 31 -11 16 -25 22 -55 22 -21 0 -39 -4 -39 -10z"/>
<path d="M1717 2262 c-32 -13 -24 -27 14 -24 27 2 41 -3 61 -23 18 -18 29 -22
33 -14 10 15 -33 56 -65 63 -14 3 -33 2 -43 -2z"/>
<path d="M810 2232 c-12 -10 -21 -25 -19 -34 3 -13 12 -10 44 18 34 29 37 34
19 34 -12 0 -32 -8 -44 -18z"/>
<path d="M1850 2175 c0 -8 8 -15 19 -15 10 0 21 -9 24 -20 7 -26 27 -26 27 -1
0 20 -35 51 -57 51 -7 0 -13 -7 -13 -15z"/>
<path d="M684 2145 c-14 -14 -22 -30 -19 -36 4 -6 16 0 30 16 14 14 35 25 50
25 15 0 24 4 20 10 -11 18 -56 10 -81 -15z"/>
<path d="M1159 1939 c-23 -19 -23 -20 -3 -14 14 4 24 0 28 -10 6 -16 46 -21
46 -5 0 6 7 10 15 10 20 0 19 26 -1 34 -30 11 -62 6 -85 -15z"/>
<path d="M1323 1954 c-18 -8 -16 -34 2 -34 8 0 15 -4 15 -10 0 -16 40 -11 46
5 4 11 13 13 28 9 19 -5 19 -5 6 9 -16 17 -77 29 -97 21z"/>
<path d="M1277 1862 c-32 -4 -31 -25 1 -30 13 -2 25 3 28 13 8 20 6 21 -29 17z"/>
<path d="M584 1545 c-3 -8 -4 -205 -1 -437 5 -477 9 -506 77 -645 73 -147 210
-249 437 -322 179 -57 181 -57 323 -16 259 74 412 180 490 338 70 143 74 183
75 667 l0 425 -698 3 c-609 2 -698 0 -703 -13z m584 -267 l-3 -243 -272 -3
-273 -2 0 245 0 245 275 0 275 0 -2 -242z m782 -3 l0 -245 -270 0 -270 0 0
245 0 245 270 0 270 0 0 -245z m-780 -790 c0 -204 -4 -325 -10 -325 -18 0
-165 57 -235 91 -68 34 -195 142 -195 167 0 8 20 12 65 12 37 0 65 -4 65 -10
0 -5 16 -10 35 -10 19 0 35 5 35 10 0 6 32 10 75 10 l75 0 0 130 c0 109 -2
130 -15 130 -9 0 -15 9 -15 25 0 27 -6 29 -160 28 -149 0 -150 -1 -150 -28 0
-18 -5 -25 -20 -25 -19 0 -20 -7 -21 -112 l-1 -113 -19 41 c-27 59 -47 144
-55 230 l-7 74 277 0 276 0 0 -325z m776 247 c-7 -89 -28 -175 -55 -236 l-19
-41 -1 118 c-1 94 -4 117 -15 117 -8 0 -16 10 -18 23 -3 19 -11 23 -58 28 -60
6 -238 2 -251 -7 -5 -3 -9 -14 -9 -25 0 -10 -7 -19 -15 -19 -13 0 -15 -21 -15
-130 l0 -130 80 0 c47 0 80 -4 80 -10 0 -13 57 -13 65 0 8 12 135 13 135 1 0
-19 -138 -138 -195 -168 -48 -25 -224 -93 -241 -93 -2 0 -4 146 -4 325 l0 325
271 0 272 0 -7 -78z m-1078 -20 c9 -6 12 -37 10 -117 l-3 -108 -52 -4 -53 -4
0 115 0 115 33 4 c17 2 37 4 42 5 6 1 16 -2 23 -6z m125 -2 l27 0 0 -115 0
-115 -55 2 -55 3 0 111 c0 61 3 114 7 118 4 4 17 5 28 2 11 -3 32 -6 48 -6z
m665 -110 l3 -115 -56 -3 -56 -3 3 113 3 113 35 6 c66 12 65 15 68 -111z m140
105 c9 -3 12 -35 12 -115 l0 -110 -55 2 -55 3 0 111 c0 61 3 114 7 117 6 7 59
1 91 -8z"/>
<path d="M768 1443 c-19 -3 -28 -10 -28 -22 0 -10 -9 -21 -20 -24 -20 -5 -20
-12 -18 -134 l3 -128 78 -3 c42 -2 77 -7 77 -12 0 -13 57 -13 65 0 3 6 40 10
81 10 l74 0 0 135 c0 113 -2 135 -15 135 -8 0 -15 8 -15 19 0 14 -10 20 -42
25 -46 6 -196 5 -240 -1z m110 -140 l3 -111 -52 -4 c-28 -1 -53 -1 -55 1 -2 2
-4 53 -4 112 0 119 0 119 65 116 l40 -2 3 -112z m120 111 c21 -6 22 -11 22
-114 0 -65 -4 -110 -10 -112 -6 -2 -31 -2 -55 0 l-45 4 0 114 0 114 33 0 c17
0 42 -3 55 -6z"/>
<path d="M1553 1443 c-25 -3 -33 -9 -33 -24 0 -10 -7 -19 -15 -19 -13 0 -15
-22 -15 -135 l0 -135 80 0 c47 0 80 -4 80 -10 0 -5 14 -10 30 -10 17 0 30 5
30 10 0 6 33 10 80 10 l80 0 0 135 c0 113 -2 135 -15 135 -8 0 -15 8 -15 19 0
14 -10 20 -37 25 -40 6 -195 6 -250 -1z m107 -137 l0 -114 -45 -4 c-24 -2 -49
-2 -55 0 -15 5 -13 219 3 225 6 3 31 6 55 6 l42 1 0 -114z m124 108 c13 -5 16
-25 16 -113 0 -59 -2 -110 -4 -112 -2 -2 -27 -2 -55 -1 l-51 4 0 107 c0 59 3
111 7 114 8 9 66 9 87 1z"/>
</g>
</svg>
