<?xml version="1.0" encoding="utf-8"?>
<svg version="1.1" id="Layer_1" xmlns="http://www.w3.org/2000/svg" xmlns:xlink="http://www.w3.org/1999/xlink" x="0px" y="0px" viewBox="0 0 165 40" style="enable-background:new 0 0 165 40;" xml:space="preserve">
<style type="text/css">
.st0{fill:#fff;}
.st1{fill:none;}
.st2{fill-rule:evenodd;clip-rule:evenodd;fill:#fff;}
</style>
<path class="st0" d="M164.8,8.4c0-0.3,0-0.6,0-0.9c0-0.7-0.1-1.3-0.2-2c-0.1-0.7-0.3-1.3-0.6-1.9c-0.3-0.6-0.7-1.1-1.2-1.6
	c-0.5-0.5-1-0.9-1.6-1.2c-0.6-0.3-1.2-0.5-1.9-0.6c-0.7-0.1-1.3-0.2-2-0.2c-0.3,0-0.6,0-0.9,0c-0.4,0-0.7,0-1.1,0H9.5
	C9.2,0,8.8,0,8.4,0C8.1,0,7.8,0,7.5,0c-0.7,0-1.3,0.1-2,0.2C4.8,0.3,4.2,0.5,3.6,0.8C3,1.1,2.5,1.5,2,2C1.5,2.5,1.1,3,0.8,3.6
	C0.5,4.2,0.3,4.9,0.2,5.5C0.1,6.2,0,6.9,0,7.5c0,0.3,0,0.6,0,0.9c0,0.4,0,0.7,0,1.1v20.9c0,0.4,0,0.7,0,1.1c0,0.3,0,0.6,0,0.9
	c0,0.7,0.1,1.3,0.2,2c0.1,0.7,0.3,1.3,0.6,1.9C1.1,37,1.5,37.5,2,38c0.5,0.5,1,0.9,1.6,1.2c0.6,0.3,1.2,0.5,1.9,0.6
	c0.7,0.1,1.3,0.2,2,0.2c0.3,0,0.6,0,0.9,0c0.4,0,0.7,0,1.1,0h145.8c0.4,0,0.7,0,1.1,0c0.3,0,0.6,0,0.9,0c0.7,0,1.3-0.1,2-0.2
	c0.7-0.1,1.3-0.3,1.9-0.6c0.6-0.3,1.1-0.7,1.6-1.2c0.5-0.5,0.9-1,1.2-1.6c0.3-0.6,0.5-1.2,0.6-1.9c0.1-0.7,0.2-1.3,0.2-2
	c0-0.3,0-0.6,0-0.9c0-0.4,0-0.7,0-1.1V9.5C164.9,9.2,164.9,8.8,164.8,8.4z M164,30.5c0,0.4,0,0.7,0,1.1c0,0.3,0,0.6,0,0.9
	c0,0.6-0.1,1.2-0.2,1.9c-0.1,0.6-0.3,1.2-0.5,1.7c-0.3,0.5-0.6,1-1,1.4c-0.4,0.4-0.9,0.8-1.4,1c-0.5,0.3-1,0.4-1.7,0.5
	c-0.6,0.1-1.3,0.1-1.9,0.2c-0.3,0-0.6,0-0.9,0l-1.1,0l-146.9,0c-0.3,0-0.6,0-0.9,0c-0.6,0-1.2,0-1.9-0.2c-0.6-0.1-1.2-0.3-1.7-0.5
	c-0.5-0.3-1-0.6-1.4-1c-0.4-0.4-0.8-0.9-1-1.4c-0.3-0.5-0.4-1-0.5-1.7c-0.1-0.7-0.2-1.4-0.2-1.9c0-0.2,0-0.9,0-0.9V8.4
	c0,0,0-0.7,0-0.9c0-0.5,0-1.2,0.2-1.9C1.2,5.1,1.3,4.5,1.6,4c0.3-0.5,0.6-1,1-1.4C3,2.2,3.5,1.9,4,1.6c0.5-0.3,1.1-0.4,1.7-0.5
	C6.3,0.9,7,0.9,7.5,0.9l0.9,0h148l0.9,0c0.5,0,1.2,0,1.9,0.2c0.6,0.1,1.1,0.3,1.7,0.5c0.5,0.3,1,0.6,1.4,1c0.4,0.4,0.8,0.9,1,1.4
	c0.3,0.5,0.4,1.1,0.5,1.6c0.1,0.6,0.2,1.3,0.2,1.9c0,0.3,0,0.6,0,0.9c0,0.4,0,0.7,0,1.1V30.5z"/>
<path id="XMLID_660_" class="st1" d="M32.2,29.2c-0.2,0.6-0.8,1.5-1.6,2.1c-0.5,0.4-1,0.7-1.8,0.9c-0.8,0.2-1.8,0.3-3,0.3H14.4
	c-1.2,0-2.2-0.1-3-0.3c-0.8-0.2-1.3-0.6-1.8-0.9c-0.8-0.6-1.4-1.5-1.6-2.1c-0.5-1.3-0.5-2.7-0.5-3.6l0,0V14.3l0,0
	c0-0.9,0-2.3,0.5-3.6c0.2-0.6,0.8-1.5,1.6-2.1c0.5-0.4,1-0.7,1.8-0.9c0.8-0.2,1.8-0.3,3-0.3l0,0h11.3l0,0c1.2,0,2.2,0.1,3,0.3
	c0.8,0.2,1.3,0.6,1.8,0.9c0.8,0.6,1.4,1.5,1.6,2.1c0.5,1.3,0.5,2.7,0.5,3.6v11.3C32.7,26.6,32.7,28,32.2,29.2z"/>
<path class="st2" d="M32.2,10.8c-0.2-0.6-0.8-1.5-1.6-2.1c-0.5-0.4-1-0.7-1.8-0.9c-0.8-0.2-1.8-0.3-3-0.3H14.4c-1.2,0-2.2,0.1-3,0.3
	C10.6,8,10.1,8.3,9.6,8.7C8.8,9.3,8.3,10.2,8,10.8c-0.5,1.3-0.5,2.7-0.5,3.6v11.3c0,0.9,0,2.3,0.5,3.6c0.2,0.6,0.8,1.5,1.6,2.1
	c0.5,0.4,1,0.7,1.8,0.9c0.8,0.2,1.8,0.3,3,0.3h11.3c1.2,0,2.2-0.1,3-0.3c0.8-0.2,1.3-0.6,1.8-0.9c0.8-0.6,1.4-1.5,1.6-2.1
	c0.5-1.3,0.5-2.7,0.5-3.6V14.3C32.7,13.4,32.7,12,32.2,10.8z M22.2,24.5c-0.1,0.8-0.2,1.8-0.4,2.8c-0.1,0.7-0.2,1.1-0.3,1.4
	c-0.1,0.5-0.7,0.9-1.5,0.9c-0.8,0-1.3-0.4-1.5-0.9c-0.1-0.3-0.2-0.7-0.3-1.4c-0.2-1-0.3-2.1-0.4-2.8c-0.1-0.8-0.1-1.3,0-1.9
	c0-0.3,0.1-0.5,0.3-0.7c0.4-0.4,1-0.7,1.8-0.7c0.8,0,1.4,0.3,1.8,0.7c0.2,0.2,0.3,0.4,0.3,0.7C22.3,23.2,22.3,23.7,22.2,24.5z
	 M16.8,22.6c0.1,0.1,0.1,0.2,0.1,0.3c0,0.3,0,0.6,0,1c0,0.1-0.1,0.2-0.2,0.1c-1.6-1.1-2.6-2.9-2.6-5c0-3.1,2.6-5.7,5.7-5.8
	c3.4-0.1,6.2,2.6,6.2,5.9c0,2-1,3.8-2.6,4.9c-0.1,0.1-0.2,0-0.2-0.1c0-0.4,0-0.7,0-1c0-0.1,0-0.2,0.1-0.3c0.9-0.9,1.5-2.1,1.5-3.5
	c0-2.7-2.3-4.9-5-4.8c-2.5,0.1-4.5,2.2-4.6,4.7C15.3,20.4,15.9,21.7,16.8,22.6z M22.2,18.3c0,1.1-0.9,2.1-2.1,2.1
	c-1.1,0-2.1-0.9-2.1-2.1c0-1.1,0.9-2.1,2.1-2.1C21.2,16.3,22.2,17.2,22.2,18.3z M23,27.4c-0.1,0-0.2,0-0.2-0.1
	c0-0.3,0.1-0.6,0.1-0.9c0-0.1,0.1-0.2,0.2-0.2c2.7-1.2,4.6-3.9,4.6-7.1c0-4.3-3.5-7.8-7.8-7.7c-4.2,0-7.6,3.5-7.7,7.6
	c0,3.2,1.9,5.9,4.6,7.2c0.1,0,0.2,0.1,0.2,0.2c0,0.3,0.1,0.6,0.1,0.9c0,0.1-0.1,0.2-0.2,0.1c-3.5-1.2-6-4.6-5.9-8.5
	c0.1-4.8,4-8.7,8.8-8.7c4.9,0,8.9,4,8.9,8.8C29,22.9,26.5,26.2,23,27.4z"/>
<g>
	<path class="st0" d="M46.2,27.8h-4.7l-1.1,3.4h-2l4.5-12.4h2.1l4.5,12.4h-2L46.2,27.8z M42,26.3h3.8l-1.8-5.4h-0.1L42,26.3z"/>
	<path class="st0" d="M59.1,26.7c0,2.8-1.5,4.6-3.8,4.6c-1.3,0-2.3-0.6-2.8-1.6h0v4.5h-1.9v-12h1.8v1.5h0c0.5-1,1.6-1.6,2.9-1.6
		C57.6,22,59.1,23.8,59.1,26.7z M57.2,26.7c0-1.8-0.9-3-2.4-3c-1.4,0-2.4,1.2-2.4,3c0,1.8,1,3,2.4,3C56.2,29.7,57.2,28.5,57.2,26.7z
		"/>
	<path class="st0" d="M69,26.7c0,2.8-1.5,4.6-3.8,4.6c-1.3,0-2.3-0.6-2.8-1.6h0v4.5h-1.9v-12h1.8v1.5h0c0.5-1,1.6-1.6,2.9-1.6
		C67.5,22,69,23.8,69,26.7z M67.1,26.7c0-1.8-0.9-3-2.4-3c-1.4,0-2.4,1.2-2.4,3c0,1.8,1,3,2.4,3C66.2,29.7,67.1,28.5,67.1,26.7z"/>
	<path class="st0" d="M70.6,18.8h1.9v12.4h-1.9V18.8z"/>
	<path class="st0" d="M82.1,28.5c-0.2,1.6-1.9,2.8-3.9,2.8c-2.6,0-4.3-1.8-4.3-4.6c0-2.8,1.6-4.7,4.2-4.7c2.5,0,4.1,1.7,4.1,4.5v0.6
		h-6.4v0.1c0,1.5,1,2.6,2.4,2.6c1,0,1.8-0.5,2.1-1.3L82.1,28.5L82.1,28.5z M75.8,25.8h4.5c0-1.4-0.9-2.3-2.2-2.3
		C76.8,23.5,75.9,24.4,75.8,25.8z"/>
	<path class="st0" d="M92.1,18.8c2.4,0,4.1,1.7,4.1,4.1c0,2.4-1.7,4.1-4.1,4.1h-2.7v4.2h-1.9V18.8H92.1z M89.4,25.3h2.2
		c1.7,0,2.6-0.9,2.6-2.5c0-1.6-1-2.5-2.6-2.5h-2.2C89.4,20.4,89.4,25.3,89.4,25.3z"/>
	<path class="st0" d="M96.9,26.7c0-2.8,1.7-4.6,4.3-4.6c2.6,0,4.3,1.8,4.3,4.6c0,2.9-1.7,4.6-4.3,4.6C98.5,31.3,96.9,29.5,96.9,26.7
		z M103.5,26.7c0-2-0.9-3.1-2.4-3.1s-2.4,1.2-2.4,3.1c0,2,0.9,3.1,2.4,3.1S103.5,28.6,103.5,26.7z"/>
	<path class="st0" d="M106.7,26.7c0-2.8,1.5-4.6,3.8-4.6c1.3,0,2.3,0.6,2.8,1.6h0v-4.9h1.9v12.4h-1.8v-1.5h0c-0.5,1-1.6,1.6-2.9,1.6
		C108.3,31.3,106.7,29.4,106.7,26.7z M108.6,26.7c0,1.9,0.9,3,2.4,3c1.4,0,2.4-1.2,2.4-3c0-1.8-1-3-2.4-3
		C109.6,23.6,108.6,24.8,108.6,26.7z"/>
	<path class="st0" d="M123.2,25.2c-0.2-1-0.9-1.7-2.1-1.7c-1.4,0-2.4,1.2-2.4,3.1c0,1.9,1,3.1,2.4,3.1c1.2,0,1.9-0.6,2.1-1.6h1.8
		c-0.2,1.9-1.7,3.2-3.9,3.2c-2.6,0-4.3-1.8-4.3-4.6c0-2.8,1.7-4.6,4.3-4.6c2.3,0,3.8,1.5,3.9,3.2L123.2,25.2L123.2,25.2z"/>
	<path class="st0" d="M126.1,28.6c0-1.6,1.2-2.5,3.4-2.7l2.5-0.1v-0.7c0-1-0.7-1.6-1.8-1.6c-1,0-1.8,0.5-1.9,1.3h-1.7
		c0.1-1.6,1.6-2.8,3.7-2.8c2.2,0,3.6,1.2,3.6,3v6.2H132v-1.5h0c-0.5,1-1.7,1.6-2.9,1.6C127.4,31.3,126.1,30.2,126.1,28.6z M132,27.8
		v-0.7l-2.2,0.1c-1.1,0.1-1.7,0.6-1.7,1.3c0,0.8,0.7,1.3,1.7,1.3C130.9,29.9,132,29,132,27.8z"/>
	<path class="st0" d="M139,22c2,0,3.4,1.1,3.5,2.7h-1.7c-0.1-0.8-0.8-1.3-1.8-1.3c-1,0-1.7,0.5-1.7,1.2c0,0.5,0.4,0.9,1.4,1.1
		l1.5,0.4c1.8,0.4,2.5,1.1,2.5,2.4c0,1.6-1.5,2.8-3.8,2.8c-2.1,0-3.6-1.1-3.7-2.7h1.8c0.1,0.9,0.8,1.3,2,1.3c1.1,0,1.8-0.5,1.8-1.2
		c0-0.6-0.3-0.9-1.3-1.1l-1.6-0.4c-1.6-0.4-2.5-1.2-2.5-2.5C135.4,23.1,136.9,22,139,22z"/>
	<path class="st0" d="M146.7,20v2.1h1.7v1.5h-1.7v5c0,0.8,0.3,1.1,1.1,1.1c0.2,0,0.5,0,0.6,0v1.5c-0.2,0.1-0.6,0.1-1,0.1
		c-1.8,0-2.5-0.7-2.5-2.4v-5.2h-1.3v-1.5h1.3V20H146.7z"/>
	<path class="st0" d="M153.4,22c2,0,3.4,1.1,3.5,2.7h-1.7c-0.1-0.8-0.8-1.3-1.8-1.3c-1,0-1.7,0.5-1.7,1.2c0,0.5,0.4,0.9,1.4,1.1
		l1.5,0.4c1.8,0.4,2.5,1.1,2.5,2.4c0,1.6-1.5,2.8-3.8,2.8c-2.1,0-3.6-1.1-3.7-2.7h1.8c0.1,0.9,0.8,1.3,2,1.3c1.1,0,1.8-0.5,1.8-1.2
		c0-0.6-0.3-0.9-1.3-1.1l-1.6-0.4c-1.6-0.4-2.5-1.2-2.5-2.5C149.9,23.1,151.3,22,153.4,22z"/>
</g>
<g>
	<path class="st0" d="M43,14.7h-3.7v-6h0.9v5.1H43V14.7z"/>
	<path class="st0" d="M44,8.8c0-0.3,0.2-0.5,0.6-0.5c0.3,0,0.6,0.2,0.6,0.5c0,0.3-0.2,0.5-0.6,0.5C44.3,9.4,44,9.1,44,8.8z
		 M44.2,10.2h0.9v4.5h-0.9V10.2z"/>
	<path class="st0" d="M48.1,10.1c1,0,1.7,0.5,1.8,1.3H49c-0.1-0.3-0.4-0.5-0.9-0.5c-0.5,0-0.9,0.2-0.9,0.6c0,0.3,0.2,0.4,0.7,0.6
		l0.7,0.2c0.9,0.2,1.3,0.6,1.3,1.2c0,0.8-0.8,1.4-1.9,1.4c-1.1,0-1.8-0.5-1.8-1.3h0.9c0.1,0.3,0.4,0.6,1,0.6c0.6,0,0.9-0.2,0.9-0.6
		c0-0.3-0.2-0.4-0.7-0.5l-0.8-0.2c-0.9-0.2-1.3-0.6-1.3-1.3C46.4,10.6,47.1,10.1,48.1,10.1z"/>
	<path class="st0" d="M52.3,9v1.1h1v0.7h-1v2.3c0,0.5,0.2,0.7,0.6,0.7c0.1,0,0.2,0,0.3,0v0.7c-0.1,0-0.3,0-0.5,0
		c-1,0-1.4-0.3-1.4-1.2v-2.5h-0.7v-0.7h0.7V9H52.3z"/>
	<path class="st0" d="M58.3,13.4c-0.2,0.8-0.9,1.3-2,1.3c-1.3,0-2.1-0.9-2.1-2.3c0-1.4,0.8-2.4,2.1-2.4c1.3,0,2,0.9,2,2.3v0.3h-3.2
		v0c0,0.8,0.5,1.3,1.2,1.3c0.5,0,0.9-0.2,1.1-0.5H58.3z M55.1,12h2.3c0-0.7-0.5-1.2-1.1-1.2C55.6,10.8,55.2,11.3,55.1,12z"/>
	<path class="st0" d="M59.5,10.2h0.9v0.7h0.1c0.2-0.5,0.7-0.8,1.3-0.8c1,0,1.6,0.6,1.6,1.7v2.9h-0.9V12c0-0.7-0.3-1.1-1-1.1
		c-0.7,0-1.1,0.4-1.1,1.1v2.6h-0.9C59.5,14.7,59.5,10.2,59.5,10.2z"/>
	<path class="st0" d="M66.9,12.4c0-1.5,0.8-2.3,2.1-2.3c1.3,0,2.1,0.9,2.1,2.3c0,1.5-0.8,2.3-2.1,2.3C67.7,14.7,66.9,13.9,66.9,12.4
		z M70.3,12.4c0-1-0.4-1.5-1.2-1.5c-0.8,0-1.2,0.6-1.2,1.5c0,1,0.4,1.6,1.2,1.6C69.8,14,70.3,13.4,70.3,12.4z"/>
	<path class="st0" d="M72.4,10.2h0.9v0.7h0.1c0.2-0.5,0.7-0.8,1.3-0.8c1,0,1.6,0.6,1.6,1.7v2.9h-0.9V12c0-0.7-0.3-1.1-1-1.1
		c-0.7,0-1.1,0.4-1.1,1.1v2.6h-0.9V10.2z"/>
</g>
</svg>
