<?xml version="1.0" encoding="utf-8"?>
<!-- Generator: Adobe Illustrator 23.0.2, SVG Export Plug-In . SVG Version: 6.00 Build 0)  -->
<svg version="1.1" id="Layer_1" xmlns="http://www.w3.org/2000/svg" xmlns:xlink="http://www.w3.org/1999/xlink" x="0px" y="0px"
	 viewBox="0 0 320 160" enable-background="new 0 0 320 160" xml:space="preserve">
<g>
	<path fill="#FFFFFF" d="M124.34,66.44c3.85,0,6.04,0.64,7.8,1.87c1.82,1.28,2.78,3.21,2.78,5.88c0,4.7-4.43,7-7,7.64v0.11
		c4.86,0.69,9.25,3.58,9.25,8.98c0,3.79-1.87,6.47-4.97,8.23c-2.72,1.49-6.14,2.03-10.21,2.03h-12.29v-1.23
		c4.49-0.32,4.92-0.69,4.92-6.52V74.19c-0.05-5.83-0.38-6.2-4.6-6.52v-1.23H124.34z M119.11,81.56h3.37c5.13,0,7.69-2.4,7.69-6.78
		c0-3.21-1.34-6.79-7.64-6.79c-1.76,0-2.51,0.16-2.94,0.32c-0.32,0.11-0.48,0.32-0.48,1.39V81.56z M119.11,83.11v11.65
		c0,3.58,0.69,4.81,4.6,4.76c4.49,0,8.28-2.24,8.28-7.91c0-5.82-4.28-8.5-9.78-8.5H119.11z"/>
	<path fill="#FFFFFF" d="M155.77,93.43c0,5.82,0.43,6.2,4.81,6.52v1.23h-14.21v-1.23c4.49-0.32,4.92-0.69,4.92-6.52V74.19
		c0-5.82-0.43-6.2-4.7-6.52v-1.23h13.57c3.42,0,6.47,0.48,8.44,1.82c2.14,1.33,3.53,3.74,3.53,6.84c0,4.44-2.73,7.59-7.05,9.35
		c0.96,1.6,3.15,5.29,4.76,7.64c1.92,2.83,3.04,4.27,4.49,5.87c1.12,1.34,2.08,2.19,4.01,2.67l-0.11,1.01h-0.75
		c-6.14-0.16-8.01-2.03-10.04-4.97c-1.66-2.41-3.9-6.36-5.4-8.87c-0.86-1.39-1.71-1.93-3.37-1.93h-2.89V93.43z M155.77,84.34h3.1
		c2.19,0,3.9-0.27,5.35-1.44c2.3-1.82,3.1-4.44,3.1-7.05c0-5.61-4.06-7.86-8.07-7.86c-1.82,0-2.57,0.11-2.99,0.27
		c-0.32,0.11-0.48,0.38-0.48,1.44V84.34z"/>
	<path fill="#FFFFFF" d="M219.91,83.33c0,11.11-7.75,18.65-17.96,18.65c-10.1,0-17.26-7.69-17.26-17.79
		c0-8.98,6.31-18.54,18.22-18.54C212.16,65.64,219.91,72.8,219.91,83.33 M201.53,67.4c-6.31,0-11.65,5.18-11.65,15.23
		c0,10.32,5.39,17.58,13.2,17.58c6.41,0,11.65-4.97,11.65-14.91C214.73,73.76,209.17,67.4,201.53,67.4"/>
	<path fill="#FFFFFF" d="M238.17,67.67l-1.66,0.21c-2.4,0.32-2.72,0.8-1.97,3.15l7.21,22.76h0.11l8.55-26.82h1.28l9.67,26.77h0.11
		c2.19-6.73,5.29-18.01,6.2-21.86c0.75-3.1,0.48-3.74-1.92-4.01l-1.55-0.21v-1.23h11.33v1.23c-3.53,0.43-3.9,0.64-5.67,5.5
		c-0.48,1.34-4.38,13.63-8.87,28.32h-1.44l-9.62-26.13l-0.11,0.11l-8.71,26.02h-1.5l-9.24-28.69c-1.44-4.43-2.25-4.81-5.29-5.13
		v-1.23h13.09V67.67z"/>
	<path fill="#FFFFFF" d="M314.98,101.55h-1.39L290.4,73.39h-0.11v13.62c0,5.61,0.21,8.5,0.43,10.15c0.27,1.87,1.71,2.62,5.24,2.78
		v1.23h-12.82v-1.23c2.94-0.11,4.33-0.91,4.6-2.78c0.21-1.65,0.43-4.54,0.43-10.15v-11.6c0-3.85-0.05-4.7-1.01-5.93
		c-1.01-1.28-2.46-1.65-4.7-1.82v-1.23h7.8l22.5,26.93h0.1V80.6c0-5.61-0.21-8.5-0.43-10.15c-0.27-1.87-1.71-2.62-5.23-2.78v-1.23
		H320v1.23c-2.94,0.11-4.33,0.91-4.6,2.78c-0.21,1.65-0.43,4.54-0.43,10.15V101.55z"/>
	<path fill="#FFFFFF" d="M19.2,120.46c0,0,0.34-0.68,1.53-0.64c1.53,0.05,3.02,0.47,4.23,0.66c0.55,0.08,1.04,0.13,1.44,0.06v14.87
		c0,0-0.21,0.16-0.7,0.23c-0.3,0.04-0.7,0.06-1.22-0.01c-0.32-0.04-0.69-0.12-1.11-0.24c-2.88-0.82-4.17,0.12-4.17,0.12l1.31-1.39
		l-1.31,1.34V120.46z M9.75,135.4v-14.87v0.06c1.27,0.22,3.44-0.71,5.67-0.78c1.19-0.04,1.53,0.63,1.53,0.63l0,0.01v15l-0.25-0.13
		c0,0-1.04-0.71-3.92,0.06c-0.09,0.02-0.18,0.05-0.26,0.07c-1.62,0.41-2.71-0.01-2.72-0.03 M0,66.43v45.77
		c0,15.13,3.78,25.61,11.86,32.97c8.03,7.31,20.05,11.02,31.8,13.79c12.07-2.85,23.69-6.41,31.8-13.79
		c8.09-7.36,11.85-17.84,11.85-32.97V66.43H0z M57.18,74.94h2.18V71.8c2.22,0.54,5.83-0.68,7.44-0.68c1.8,0,2.71,0.78,2.71,0.78
		s0.93-0.78,2.71-0.78c1.62,0,5.23,1.21,7.45,0.68v3.14h2.18V92.2H71.63v1.28H67.4V92.2H57.18V74.94z M5.68,74.85h2.16v-3.11
		c2.19,0.53,5.95-0.63,7.55-0.62c1.78,0,2.69,0.77,2.69,0.77s0.92-0.77,2.68-0.77c1.6,0,5.17,1.19,7.37,0.67v3.11h2.31v17.32H20.17
		v1.27h-4.19v-1.27l-10.3-0.05V74.85z M30.4,138.94H20.19v1.34l-4.23-0.06v-1.28H6.53l-0.79-1.28v-15.99h2.18v-3.14
		c2.21,0.54,5.83-0.68,7.44-0.68c1.8,0,2.72,0.78,2.72,0.78s0.92-0.78,2.71-0.78c1.61,0,5.23,1.21,7.44,0.68v3.19l2.18-0.05V138.94z
		 M80.81,138.92h-9.14v1.29h-4.24v-1.29H57.2l0-17.28h2.18v-3.15c2.22,0.54,5.83-0.68,7.45-0.68c1.8,0,2.72,0.78,2.72,0.78
		s0.93-0.78,2.71-0.78c1.61,0,5.23,1.21,7.45,0.68v3.15h2.18v15.51L80.81,138.92z M86.32,113.07H51.27v42.77l-7.6,1.99l-7.64-2.01
		v-42.75H0.99V99.14h35.05V67.41h15.28v31.73h35.01V113.07z M68.1,88.72c0,0-1.29-0.9-4.16-0.08c-2.23,0.64-3.04,0.02-3.04,0.02
		V73.8c1.28,0.22,3.45-0.65,5.67-0.72c1.19-0.04,1.53,0.65,1.53,0.65V88.72z M70.36,88.72v-15c0,0,0.34-0.68,1.53-0.65
		c2.22,0.07,4.39,0.94,5.67,0.72v14.86c0,0-0.81,0.61-3.03-0.02C71.65,87.82,70.36,88.72,70.36,88.72 M16.95,88.72
		c0,0-1.29-0.9-4.2-0.08c-2.24,0.64-3.06,0.02-3.06,0.02V73.77c1.29,0.22,3.47-0.65,5.71-0.72c1.21-0.04,1.54,0.64,1.54,0.64V88.72z
		 M19.18,88.82V73.71c0,0,0.33-0.69,1.51-0.65c2.2,0.07,4.45,0.85,5.71,0.62v14.98c0,0-0.93,0.57-3.13-0.07
		C20.43,87.77,19.18,88.82,19.18,88.82 M70.68,120.42c0,0,0.34-0.68,1.53-0.64c1.53,0.05,3.03,0.47,4.23,0.66
		c0.55,0.08,1.04,0.13,1.44,0.06v14.88c0,0-0.21,0.16-0.7,0.23c-0.3,0.04-0.7,0.06-1.23-0.01c-0.32-0.04-0.69-0.12-1.11-0.24
		c-2.89-0.83-4.17,0.07-4.17,0.07V120.42z M68.42,135.43l-0.05-0.03c0,0-1.24-0.87-4.12-0.04c-0.09,0.03-0.18,0.05-0.27,0.07
		c-1.63,0.41-2.43,0.13-2.68,0l-0.09-0.05V120.5l0.05,0.01c1.27,0.22,3.4-0.67,5.62-0.73c1.19-0.04,1.53,0.64,1.53,0.64V135.43z"/>
	<path fill="#FFFFFF" d="M30.2,21.91c0.18,0.29,0.4,0.67,0.73,1.21c0.85,1.41,2.16,6.74,3.86,8.5c0.9-0.62,2.47-1.42,3.36-1.74
		c-0.21-0.35-1.16-1.98-2.22-3.37c-2.04-2.72-3.5-4.18-3.67-4.41C31.72,22.09,30.78,22.12,30.2,21.91"/>
	<path fill="#FFFFFF" d="M45.49,29c0.4-2.79-0.52-7.41-1.06-8.57c-0.69-0.18-1.4-0.42-1.99-0.71c-0.08,0.36-0.6,2.24-0.77,5.03
		c-0.09,1.49-0.06,3.75,0.22,4.25C42.77,28.91,44.24,28.88,45.49,29"/>
	<path fill="#FFFFFF" d="M58.68,45.42c0-8.38-6.53-14.95-14.87-14.95c-8.21,0-14.87,6.69-14.87,14.95c0,0.39,0.09,1.16,0.22,1.97
		c4.28-1,9.95-0.81,12.47,1.2c3.98-2.28,9.99-2.34,14.26,0c1.72-0.89,2.41-1.03,2.66-1.12C58.6,46.88,58.68,45.82,58.68,45.42
		 M40.56,40.32c-0.04,0.96-0.86,1.7-1.82,1.65c-0.95-0.04-1.68-0.87-1.64-1.82l0.01-0.19c-0.15-0.23-0.93-0.48-2.08,0.22
		c-0.58,0.36-1.23,0.11-0.22-0.77c1.07-0.93,2.09-1.47,2.99-1.59l0.03-0.01c1.51-0.11,3.47,0.21,4.39,0.58
		c0.38,0.16-0.01,2.04-0.1,2.01c-0.31-0.07-0.99-0.36-1.56-0.23L40.56,40.32z M45.52,45.53c-0.3,0.89-3.43,1.17-4,0.01
		c-0.23-0.46-0.54-1.64-0.12-1.4c0.69,0.41,3.21,0.12,3.68,0c0.42-0.11,0.15-0.69,0.4-0.62C45.8,43.61,45.8,44.69,45.52,45.53
		 M52.87,40.61c-0.79-0.65-1.81-0.94-2.21-0.65l0.01,0.13c0.08,0.96-0.62,1.8-1.57,1.89c-0.95,0.08-1.79-0.63-1.87-1.58v-0.08
		c-0.62-0.19-1.61,0.15-1.75,0.1c-0.08-0.04-0.5-1.81,0.05-2.03c1.49-0.61,6.3-0.91,7.7,1.81C53.39,40.52,53.29,40.96,52.87,40.61"
		/>
	<path fill="#FFFFFF" d="M53.77,21.75c-1.75,1.49-4.42,5.1-4.76,7.98c0.82,0.33,2.99,1.37,3.28,1.62c2.15-2.13,1.71-4.48,2.56-6.3
		c0.36-0.78,0.71-1.4,0.92-1.75C55.07,22.91,54.32,22.37,53.77,21.75"/>
	<path fill="#FFFFFF" d="M64.2,27.46c-0.39,0.21-1.29,0.77-1.6,1c-2.06,1.56-6.54,3.67-7.57,4.82c0.82,0.73,2.04,2.05,2.58,3.15
		c0.5,0.02,1.95-1.16,4.81-4.55c0.92-1.08,1.89-1.65,3.67-2.65C65.37,28.71,64.73,28.1,64.2,27.46"/>
	<path fill="#FFFFFF" d="M28.15,39.97c-0.97-0.96-2.89-1.79-5.39-1.58c-5.12,0.4-8.49,0.07-10.43-0.2
		c-3.32-0.48-5.37-0.01-7.03-0.01c-5.04,0,0.14,0.46,0.73,0.69c2.37,0.94,7.15,2.13,10.92,1.86c1.83-0.13,4.91,1,5.44,1.18
		c1.35,0.49,3.8,1.28,5.12,1.25C27.58,42.54,27.89,40.73,28.15,39.97"/>
	<path fill="#FFFFFF" d="M32.27,33.65c-2.57-2.09-4.94-2.53-8.72-4.32c-0.86-0.4-2.29-1.37-2.37-1.42c-0.1-0.07-0.29-0.19-0.52-0.33
		c-0.22,0.71-0.67,1.68-1.08,2.22c0.58,0.76,4.81,5.61,10.21,7.12C30.38,35.87,31.33,34.67,32.27,33.65"/>
	<path fill="#FFFFFF" d="M86.39,37.39c-0.25-0.04-1.22-0.17-1.83-0.17c-0.81,0-6.15,0.03-7.61,0.25c-2.99,0.47-8.76,0.23-11.93,0.11
		c-2.37-0.09-5.09,0.83-5.93,1.29c0,0,0.92,2.29,0.97,3.85c1,0.18,1.97-1.1,4.85-1.05c2.99,0.05,10.36-0.35,14.08-1.81
		c2.78-1.08,5.12-1.63,7.02-2.01C86.65,37.71,87.66,37.59,86.39,37.39"/>
	<path fill="#FFFFFF" d="M15.16,17.05c-2.22,0.51-4.52,1.04-5.21,4.59"/>
	<path fill="#FFFFFF" d="M9.17,18.45c-0.25-0.16-0.44-0.27-0.51-0.32C4.38,15.27,6.35,18.94,8,20.56C8,20.56,8.09,19.31,9.17,18.45"
		/>
	<path fill="#FFFFFF" d="M25.38,8.42c-0.54-0.71-1.33-1.6-2.43-2.57c-0.75-0.67-1.36-0.32-0.92,0.99c0.18,0.51,0.33,0.96,0.47,1.38
		C22.5,8.22,23.76,8.06,25.38,8.42"/>
	<path fill="#FFFFFF" d="M44.85,4.24c-0.15-1.29-0.32-2.36-0.51-2.97c-0.47-1.56-1.04-0.33-1.13,0.15C43.11,2.07,42.96,2.96,42.79,4
		C42.79,4,44.2,4.82,44.85,4.24"/>
	<path fill="#FFFFFF" d="M62.9,9.52c0.13-0.3,0.25-0.57,0.34-0.78c0.92-1.93,0.42-2.41-0.54-1.56c-1.08,0.97-1.77,1.65-2.29,2.21
		c0,0,0.17,0.71,0.75,0.96c0.53,0.22,1.37,0,1.37,0S62.69,10.03,62.9,9.52"/>
	<path fill="#FFFFFF" d="M81.15,17.29c0.35-0.45,0.83-0.97,1.05-1.22c0.26-0.33,1.17-1.84-1.26-0.58c-0.12,0.06-0.51,0.29-0.81,0.46
		C80.13,15.94,81.01,16.55,81.15,17.29"/>
	<path fill="#FFFFFF" d="M19.68,22.41c0.24-0.2,0.57-0.18,0.87-0.08c2.52,0.82,6.14,0.26,7.83-2.43c0.24-0.38,0.7-0.51,1.11-0.34
		c1.75,0.71,5.32,1.04,9.68-3.4c0.33-0.33,0.85-0.29,1.22,0c3.83,3.09,7.81,3.28,11.85,0.58c0.25-0.17,0.57-0.39,0.85-0.27
		c0.28,0.11,0.49,0.36,0.55,0.66c1.29,6,7.52,5.47,9.4,5.17c0.24-0.04,0.49,0.02,0.68,0.17c0.2,0.15,0.33,0.36,0.36,0.61
		c0.21,1.4,1.75,4.12,4.43,5.52c2.29,1.18,4.79,1.09,7.42-0.27c0.26-0.14,0.58-0.14,0.85,0c3.38,1.82,6.42,1.93,8.35,0.3
		c1.36-1.15,1.91-3.02,1.37-4.66c-0.6-1.82-2.4-2.96-4.94-3.11c-0.43-0.03-0.78-0.35-0.85-0.77c-0.23-1.46-1.04-2.65-2.34-3.45
		c-1.99-1.22-4.91-1.36-7.82-0.38c-0.26,0.08-0.54,0.05-0.77-0.09c-0.23-0.14-0.38-0.38-0.42-0.65c-0.16-1.12-0.64-2.65-2.04-3.51
		c-1.48-0.91-3.71-0.89-6.46,0.06c-0.43,0.15-0.9-0.04-1.1-0.44c-1.76-3.4-4.25-5.61-7.17-6.39c-2.62-0.7-5.53-0.19-7.99,1.39
		c-0.32,0.21-0.74,0.19-1.04-0.04c-2.47-1.86-5.43-2.46-8.11-1.63c-2.62,0.8-4.61,2.86-5.61,5.78c-0.08,0.24-0.25,0.43-0.48,0.54
		c-0.23,0.1-0.49,0.11-0.72,0.01c-4.01-1.62-7.28-1.58-9.46,0.12c-1.87,1.46-2.45,3.75-2.37,4.42c0.06,0.46-0.22,0.89-0.67,1
		l-0.96,0.23c-2.22,0.51-4.52,1.04-5.21,4.59c-0.08,0.4-0.4,0.69-0.81,0.74c-3.86,0.39-6.38,1.83-6.92,3.95
		c-0.38,1.49,0.31,3.19,1.68,4.11c1.38,0.94,3.03,0.84,4.54-0.26c0.25-0.18,0.58-0.23,0.86-0.11c2.26,0.87,5.94,0.7,8.17-1.1
		c1.61-1.31,2.25-3.23,1.88-5.71C19.32,22.93,19.44,22.62,19.68,22.41 M80.83,22.67c2.29-0.53,5.04,1.15,4.26,4.24
		c-0.13,0.53-1.42,0.57-1.38,0.03c0.2-2.59-1.08-2.8-2.77-2.78C80.3,24.17,80.35,22.77,80.83,22.67 M71.03,18.06
		c2.23-1.28,6.78-1.05,8.2,3.04c0.24,0.7-0.67,1.88-1.24,0.83c-1.71-3.17-4.48-3.16-6.79-2.27C70.67,19.86,70.21,18.54,71.03,18.06
		 M61.45,13.35c2.07-0.74,5.59-1.06,6.53,2.42c0.27,0.97-0.92,1.43-1.18,0.75c-0.96-2.52-2.76-2.42-4.92-1.73
		C60.88,15.12,61.12,13.46,61.45,13.35 M44.56,9.44c1.49-2.44,9.28-4.71,13.28,2.19c0.42,0.75-0.14,1.18-0.59,1.5
		c-0.32,0.22-0.51-0.29-0.72-0.63C53.14,7.1,47,8.52,45.35,11.02C45.02,11.53,44.13,10.16,44.56,9.44 M32,9.83
		c1.37-2.18,6.06-5.54,10.22-1.84c0.47,0.41-0.09,1.93-0.61,1.57c-3.81-2.63-6.8-0.52-8.39,1.39C32.47,11.85,31.68,10.36,32,9.83
		 M9.53,25.09c-1.59,0-2.87,0.03-3.99,1.26c-1.2,1.31-0.91,2.02-1.13,2.26c-0.33,0.32-1.15-0.25-1.14-0.89
		c0.07-3.07,3.76-4.27,5.94-4.02C10.06,23.78,10.27,25.09,9.53,25.09 M16.01,19.93c-2.33,0.26-3.01,1.4-3.42,2.71
		c-0.17,0.49-1.48,0.14-1.27-0.83c0.62-2.89,3.73-3.59,4.86-3.35C16.56,18.54,16.44,19.89,16.01,19.93 M18.01,16.82
		c0.48-2.55,2.96-6.26,8.61-4.81c0.69,0.18,0.28,1.95-0.46,1.65c-4.13-1.63-6.2,1.52-6.87,4.01C19.19,18.01,17.81,17.88,18.01,16.82
		"/>
	<path fill="#FFFFFF" d="M65.53,58.05c-1.12-1.33-1.85-3.08-3.07-3.86c-0.62-0.32-1.03-1.03-0.21-1.48c0.81-0.24,1.57,0.5,2.54,1.83
		c0.25,0.32,0.56,0.66,0.84,1.03c1.41,1.59,1.6,3.28,2.93,3.29c1.74,0.08,3.35-0.32,4.5-1.02c3.61,1.62,10.25,0.89,11.92-0.24
		c3.17-2.15,1.2-6.71-1.94-8.36c-6.44-3.11-12.2-0.54-13.79,0.18c-1.46-0.99-3.86-1.43-6.9-1.36c-3.33,0.22-4.9,0.7-7.1,1.8
		c-4.04-2.36-9.6-2.26-13.61-0.03c-1.62-1.29-4.68-1.75-7.72-1.65c-2.53,0.13-4.93,0.52-6.33,1.43c-1.75-1.29-7.68-3.55-14.62-0.66
		c-1.47-0.5-4.58-2.23-8.81-0.82c-5.15,1.71-4.42,6.41-2.73,8.63c2.29,3.05,6.62,2.54,8,0.97c-0.36-0.84-1-1.47-1.66-2.33
		c-0.56-0.72-1.14-1.32-1.48-1.45c-1.18-0.01-0.76-1.25-0.34-1.36c1.31-0.5,2.97,1.8,4.56,3.71c0.82,0.99,1.25,2.59,2.37,2.58
		c2.44-0.04,3.47-0.75,4.33-1.22c1.41,0.82,8.12,2.12,13.24,0.06c0.7,0.52,3.51,1.99,7.12,0.17c-1.4-1.48-2.1-3.01-3.43-4.01
		c-0.89-0.42-0.72-1.27-0.27-1.42c0.94-0.29,1.9,0.72,2.74,1.85c0.49,0.67,1.04,1.41,1.57,1.96c0.97,1.13,1.81,2.53,2.76,2.55
		c2.01,0.04,3.11-0.49,3.94-1.16c0.58,0.42,1.31,0.76,2.62,0.99c0.95,0.17,2.12,0.29,3.95,0.29c2.38-0.03,4.15-0.21,5.27-0.56
		c0.72-0.21,1.3-0.6,1.58-0.84C58.36,57.55,61.7,59.68,65.53,58.05 M18.46,56.45c-1.91-0.85-3.36-5.21-3.96-5.81
		c-0.21-0.24,3.27-1.49,6.93-1.22c6.28,0.47,6.39,4.44,7.89,6.36C29.87,56.48,24.24,58.07,18.46,56.45 M46.62,56.74
		c-1.9-0.85-3.37-5.24-3.93-5.8c-0.22-0.22,3.39-1.51,7.05-1.19c6.23,0.53,6.29,4.39,7.79,6.34C58.08,56.78,52.37,58.37,46.62,56.74
		 M84.93,55.5c-0.53,1.18-4.39,2.66-10.18,1.03c-1.91-0.85-3.39-5.22-3.94-5.78c-0.23-0.22,3.28-1.49,6.94-1.22
		C83.97,49.98,85.54,54.13,84.93,55.5"/>
</g>
<path fill="#FFFFFF" d="M139.22,137.38v-0.91c2.06-0.17,2.31-0.42,2.31-2.73v-5.73c0-2.87-1.08-4.3-3.46-4.3
	c-1.29,0-2.66,0.66-3.6,1.82v8.21c0,2.24,0.17,2.52,2.31,2.73v0.91h-7.51v-0.91c2.24-0.21,2.45-0.45,2.45-2.76v-17.58
	c-1.92-0.21-3.74-0.24-6.81-0.24h-2.48v17.12c0,2.97,0.28,3.22,3.49,3.42v0.94h-9.86v-0.94c3.11-0.21,3.39-0.49,3.39-3.42v-17.12
	h-2.2c-3.11,0-3.74,0.31-4.23,1.15c-0.42,0.66-0.73,1.47-1.15,3.08h-1.01c0.17-2.06,0.35-4.44,0.42-6.33h0.66
	c0.49,0.77,0.94,0.87,1.92,0.87h14.54c2.9,0,3.32-0.21,3.32-0.94v-0.49c0.7-0.1,1.78-0.45,2.76-0.8v11.81
	c1.29-1.33,3.08-2.48,4.89-2.52c2.94-0.07,4.93,1.78,4.93,5.94v6.08c0,2.34,0.24,2.55,2.34,2.73v0.91H139.22z M160.93,134.44
	c-2.2,2.73-4.61,3.36-5.7,3.36c-4.3,0-6.81-3.49-6.81-7.44c0-2.38,0.87-4.54,2.31-6.08c1.43-1.57,3.32-2.55,5.1-2.55h0.03
	c2.9,0,5.24,2.59,5.24,5.28c0,0.7-0.14,0.98-0.8,1.12c-0.56,0.1-4.96,0.45-9.16,0.59c0.04,4.75,2.8,6.71,5.24,6.71
	c1.43,0,2.73-0.56,4.02-1.75L160.93,134.44z M154.99,123.01c-1.57,0-3.15,1.47-3.67,4.26c1.96,0,3.91-0.03,5.94-0.1
	c0.63,0,0.84-0.17,0.84-0.66c0.03-1.82-1.15-3.49-3.08-3.49H154.99z M180.14,114.66c2.48,0,4.51,0.42,5.91,1.43
	c1.36,1.05,2.24,2.66,2.24,4.93c0,4.54-3.39,6.74-6.81,7.16c-0.52,0.07-1.19,0.07-1.57,0.03l-2.59-0.66v5.49
	c0,2.97,0.31,3.15,3.46,3.36v0.98h-9.47v-0.98c2.8-0.21,3.08-0.49,3.08-3.39v-13.98c0-3.08-0.28-3.22-2.87-3.39v-0.98H180.14z
	 M177.3,126.4c0.45,0.17,1.4,0.42,2.55,0.42c2.27,0,5.07-1.22,5.07-5.66c0-3.77-2.41-5.38-5.28-5.38c-0.98,0-1.71,0.17-1.96,0.42
	c-0.28,0.21-0.38,0.63-0.38,1.64V126.4z M197.42,121.72c4.33,0,7.55,3.49,7.55,7.79c0,5.63-4.12,8.28-7.58,8.28
	c-4.79,0-7.65-3.84-7.65-7.69c0-5.77,4.47-8.39,7.65-8.39H197.42z M196.97,122.87c-2.1,0-3.98,2.17-3.98,6.12
	c0,4.4,1.89,7.65,4.79,7.65c2.17,0,3.95-1.57,3.95-6.4c0-4.05-1.64-7.37-4.72-7.37H196.97z M206.53,137.38v-0.91
	c2.2-0.21,2.52-0.42,2.52-2.73v-16.53c0-2.38-0.21-2.45-2.41-2.66v-0.84c1.82-0.21,3.98-0.8,5.17-1.22v21.25
	c0,2.31,0.28,2.52,2.52,2.73v0.91H206.53z M215.96,137.38v-0.91c2.2-0.21,2.45-0.42,2.45-2.8v-7.2c0-2.13-0.1-2.31-2.2-2.62v-0.84
	c1.78-0.28,3.46-0.73,4.96-1.36v12.02c0,2.38,0.24,2.59,2.48,2.8v0.91H215.96z M219.6,114.62c0.98,0,1.75,0.8,1.75,1.82
	c0,0.94-0.77,1.78-1.78,1.78c-0.91,0-1.75-0.84-1.75-1.75c0-1.05,0.84-1.85,1.75-1.85H219.6z M238.39,134.23
	c-1.54,2.03-3.84,3.56-5.91,3.56c-4.4,0-7.02-3.53-7.02-7.27c0-2.69,1.19-5.03,3.53-6.81c1.82-1.4,3.91-1.99,5.21-1.99h0.04
	c1.43,0,2.59,0.45,3.15,0.94c0.45,0.35,0.56,0.66,0.56,1.05c0,0.73-0.77,1.5-1.15,1.5c-0.21,0-0.38-0.1-0.66-0.38
	c-1.05-0.98-2.27-1.43-3.53-1.43c-2.31,0-4.3,1.92-4.3,5.59c0,4.82,3.29,6.43,5.28,6.43c1.5,0,2.62-0.42,4.23-1.92L238.39,134.23z
	 M256.2,123.05c-1.85,0.28-2.13,0.56-3.08,2.52c-0.91,1.85-1.99,4.75-4.4,10.52c-2.34,5.56-3.11,7.55-3.6,9.4
	c-0.17,0.7-0.63,0.87-1.12,0.87c-0.98,0-1.96-0.84-1.96-1.68c0-0.56,0.28-0.87,0.87-1.26c1.12-0.7,1.78-1.54,2.62-3.11
	c0.63-1.22,0.91-1.92,1.08-2.41c0.17-0.52,0.14-0.98-0.07-1.54c-1.4-3.98-2.97-8.21-3.98-10.69c-0.77-1.89-1.08-2.38-3.01-2.62
	v-0.91h7.06l0.03,0.91c-1.64,0.24-1.82,0.59-1.33,1.92l3.15,8.74c0.98-2.38,2.52-6.5,3.22-8.67c0.42-1.33,0.21-1.71-1.82-1.99v-0.91
	h6.33V123.05z M281.81,131.89c-0.21,1.08-0.94,4.4-1.26,5.49h-15.83v-0.98c2.94-0.21,3.22-0.45,3.22-3.42v-13.98
	c0-2.97-0.21-3.15-3.08-3.36v-0.98h9.12v0.98c-2.76,0.21-3.08,0.38-3.08,3.36v13.8c0,1.89,0.17,2.59,0.8,2.94
	c0.7,0.38,1.89,0.45,3.36,0.45c1.92,0,3.11-0.17,3.91-1.08c0.63-0.7,1.26-1.82,1.78-3.42L281.81,131.89z M294.93,137.8
	c-0.52,0-1.26-0.31-1.64-0.66c-0.45-0.45-0.66-0.94-0.84-1.57c-1.4,0.94-3.08,2.24-4.12,2.24c-2.48,0-4.19-2.06-4.19-4.26
	c0-1.68,0.91-2.76,2.83-3.42c2.1-0.7,4.65-1.64,5.42-2.27v-0.59c0-2.55-1.15-3.95-2.94-3.95c-0.66,0-1.19,0.24-1.54,0.66
	c-0.45,0.45-0.73,1.22-1.05,2.27c-0.17,0.56-0.52,0.8-1.01,0.8c-0.63,0-1.5-0.66-1.5-1.47c0-0.52,0.42-0.91,1.08-1.4
	c0.98-0.7,3.22-1.99,5.21-2.45c1.05,0,2.1,0.31,2.87,0.94c1.22,1.05,1.57,2.45,1.57,4.3v6.47c0,1.57,0.63,2.1,1.22,2.1
	c0.42,0,0.91-0.21,1.26-0.42l0.35,0.91L294.93,137.8z M292.38,129.02c-0.73,0.38-2.41,1.12-3.15,1.47
	c-1.36,0.63-2.13,1.26-2.13,2.55c0,1.82,1.4,2.66,2.48,2.66c0.91,0,2.13-0.59,2.8-1.26V129.02z M305.97,122.07
	c0.56-0.24,1.01-0.35,1.43-0.35c3.74,0,6.88,3.22,6.88,7.34c0,5.1-4.12,8.74-8.77,8.74c-1.43,0-3.22-0.35-5.14-1.26v-19.4
	c0-2.17-0.07-2.41-2.31-2.59v-0.84c1.64-0.21,3.77-0.73,5.07-1.22v10.8L305.97,122.07z M303.14,133.32c0,0.52,0.07,0.87,0.21,1.22
	c0.24,0.7,1.26,1.92,3.08,1.92c2.94,0,4.75-2.48,4.75-6.5c0-3.98-2.41-6.29-5.31-6.29c-0.98,0-2.1,0.28-2.73,0.66V133.32z"/>
</svg>
