<?xml version="1.0" encoding="utf-8"?>
<!-- Generator: Adobe Illustrator 23.0.2, SVG Export Plug-In . SVG Version: 6.00 Build 0)  -->
<svg version="1.1" id="Layer_1" xmlns="http://www.w3.org/2000/svg" xmlns:xlink="http://www.w3.org/1999/xlink" x="0px" y="0px"
	 viewBox="0 0 320 160" enable-background="new 0 0 320 160" xml:space="preserve">
<g>
	<defs>
		<rect id="SVGID_1_" width="320" height="160"/>
	</defs>
	<clipPath id="SVGID_2_">
		<use xlink:href="#SVGID_1_"  overflow="visible"/>
	</clipPath>
	<path clip-path="url(#SVGID_2_)" d="M120.51,80.1v11.67c0,3.59,0.69,4.82,4.59,4.77c4.48,0,8.27-2.25,8.27-7.93
		c0-5.84-4.27-8.51-9.77-8.51H120.51z M120.51,78.54h3.36c5.12,0,7.68-2.41,7.68-6.8c0-3.21-1.33-6.8-7.63-6.8
		c-1.76,0-2.5,0.16-2.93,0.33c-0.32,0.1-0.48,0.31-0.48,1.39V78.54z M125.74,63.38c3.84,0,6.03,0.65,7.79,1.88
		c1.81,1.28,2.77,3.21,2.77,5.88c0,4.71-4.43,7.01-6.98,7.66v0.1c4.85,0.69,9.23,3.59,9.23,9c0,3.8-1.87,6.48-4.96,8.24
		c-2.73,1.5-6.14,2.04-10.19,2.04h-12.28v-1.24c4.49-0.32,4.91-0.7,4.91-6.53V71.15c-0.05-5.84-0.37-6.21-4.59-6.53v-1.24H125.74z"
		/>
	<path clip-path="url(#SVGID_2_)" d="M157.11,81.33h3.1c2.19,0,3.89-0.27,5.34-1.45c2.29-1.82,3.09-4.44,3.09-7.07
		c0-5.62-4.06-7.86-8.05-7.86c-1.82,0-2.56,0.11-3,0.27c-0.32,0.1-0.48,0.37-0.48,1.45V81.33z M157.11,90.43
		c0,5.83,0.43,6.21,4.81,6.53v1.24h-14.2v-1.24c4.48-0.32,4.91-0.7,4.91-6.53V71.15c0-5.84-0.43-6.21-4.7-6.53v-1.24h13.56
		c3.41,0,6.45,0.48,8.43,1.83c2.13,1.34,3.53,3.74,3.53,6.85c0,4.45-2.73,7.61-7.05,9.37c0.97,1.61,3.15,5.31,4.75,7.66
		c1.92,2.84,3.04,4.28,4.49,5.89c1.12,1.34,2.08,2.2,4,2.68l-0.11,1.02h-0.75c-6.13-0.17-8-2.04-10.03-4.98
		c-1.66-2.42-3.9-6.38-5.4-8.9c-0.85-1.39-1.7-1.93-3.36-1.93h-2.88V90.43z"/>
	<path clip-path="url(#SVGID_2_)" d="M202.26,64.35c-6.3,0-11.64,5.2-11.64,15.26c0,10.34,5.39,17.62,13.18,17.62
		c6.4,0,11.63-4.98,11.63-14.94C215.44,70.73,209.89,64.35,202.26,64.35 M220.61,80.31c0,11.14-7.74,18.69-17.93,18.69
		c-10.09,0-17.23-7.72-17.23-17.83c0-9,6.29-18.58,18.19-18.58C212.88,62.58,220.61,69.76,220.61,80.31"/>
	<path clip-path="url(#SVGID_2_)" d="M238.85,64.62l-1.66,0.21c-2.4,0.32-2.72,0.8-1.98,3.16l7.21,22.81h0.1l8.53-26.88h1.29
		L262,90.75h0.12c2.18-6.75,5.28-18.05,6.19-21.9c0.74-3.1,0.47-3.75-1.92-4.02l-1.55-0.21v-1.24h11.31v1.24
		c-3.52,0.43-3.89,0.65-5.65,5.51c-0.48,1.34-4.38,13.65-8.86,28.38h-1.45l-9.6-26.19l-0.11,0.11l-8.7,26.08h-1.49l-9.23-28.76
		c-1.44-4.45-2.24-4.82-5.29-5.14v-1.24h13.08V64.62z"/>
	<path clip-path="url(#SVGID_2_)" d="M314.99,98.57h-1.38l-23.17-28.22h-0.11V84c0,5.63,0.22,8.52,0.43,10.18
		c0.27,1.87,1.7,2.62,5.23,2.78v1.24h-12.81v-1.24c2.94-0.11,4.32-0.91,4.59-2.78c0.21-1.66,0.43-4.55,0.43-10.18V72.39
		c0-3.86-0.05-4.72-1.02-5.95c-1.02-1.29-2.45-1.66-4.69-1.82v-1.24h7.78l22.47,26.99h0.11v-12.8c0-5.62-0.21-8.51-0.42-10.17
		c-0.27-1.87-1.72-2.62-5.23-2.78v-1.24H320v1.24c-2.93,0.11-4.32,0.91-4.59,2.78c-0.22,1.67-0.42,4.55-0.42,10.17V98.57z"/>
	<path clip-path="url(#SVGID_2_)" fill="#FFFFFF" d="M32.21,21.21c0.18,0.29,0.4,0.66,0.73,1.19c0.84,1.4,2.15,6.67,3.83,8.42
		c0.9-0.61,2.46-1.4,3.34-1.72c-0.2-0.34-1.15-1.96-2.2-3.35c-2.02-2.7-3.48-4.14-3.64-4.37C33.72,21.39,32.79,21.41,32.21,21.21"/>
	<path clip-path="url(#SVGID_2_)" fill="#FFFFFF" d="M47.39,28.23c0.4-2.76-0.51-7.34-1.05-8.49c-0.68-0.17-1.39-0.42-1.98-0.7
		c-0.07,0.35-0.59,2.22-0.76,4.98c-0.09,1.47-0.05,3.72,0.22,4.21C44.69,28.14,46.15,28.11,47.39,28.23"/>
	<path clip-path="url(#SVGID_2_)" fill="#FFFFFF" d="M60.49,44.49c0-8.3-6.48-14.81-14.76-14.81c-8.15,0-14.76,6.63-14.76,14.81
		c0,0.39,0.09,1.18,0.22,1.99c4.24-0.99,9.87-0.83,12.38,1.16c4.05-2.32,9.88-2.46,14.15,0.04c0.85-0.43,1.74-0.74,2.63-0.99
		C60.45,45.88,60.49,45.05,60.49,44.49 M42.49,39.44c-0.05,0.95-0.85,1.68-1.8,1.64c-0.95-0.05-1.67-0.86-1.63-1.81l0.02-0.19
		c-0.15-0.23-0.92-0.48-2.07,0.22c-0.58,0.36-1.22,0.11-0.22-0.76c1.06-0.93,2.07-1.46,2.96-1.58l0.03-0.01
		c1.5-0.1,3.45,0.2,4.36,0.58c0.38,0.16-0.01,2.02-0.1,2c-0.31-0.07-0.98-0.35-1.55-0.23L42.49,39.44z M47.42,44.6
		c-0.3,0.88-3.4,1.16-3.97,0.02c-0.22-0.45-0.54-1.62-0.12-1.38c0.69,0.4,3.19,0.12,3.66,0c0.42-0.11,0.14-0.69,0.4-0.62
		C47.7,42.7,47.7,43.77,47.42,44.6 M54.72,39.73c-0.78-0.65-1.8-0.93-2.19-0.65l0.02,0.13c0.08,0.95-0.62,1.78-1.56,1.87
		c-0.95,0.08-1.78-0.62-1.86-1.57v-0.07c-0.61-0.2-1.6,0.15-1.74,0.09c-0.08-0.04-0.5-1.79,0.05-2.01c1.48-0.61,6.25-0.9,7.64,1.79
		C55.23,39.64,55.13,40.07,54.72,39.73"/>
	<path clip-path="url(#SVGID_2_)" fill="#FFFFFF" d="M55.61,21.05c-1.74,1.47-4.39,5.05-4.73,7.91c0.81,0.33,2.96,1.36,3.26,1.6
		c2.14-2.11,1.7-4.44,2.54-6.24c0.36-0.77,0.71-1.39,0.91-1.74C56.9,22.2,56.16,21.67,55.61,21.05"/>
	<path clip-path="url(#SVGID_2_)" fill="#FFFFFF" d="M65.96,26.7c-0.38,0.21-1.28,0.76-1.59,0.99c-2.05,1.55-6.49,3.63-7.51,4.77
		c0.82,0.73,2.02,2.03,2.57,3.12c0.5,0.02,1.93-1.15,4.77-4.51c0.91-1.07,1.88-1.64,3.64-2.62C67.12,27.94,66.49,27.34,65.96,26.7"
		/>
	<path clip-path="url(#SVGID_2_)" fill="#FFFFFF" d="M30.18,39.1c-0.96-0.95-2.87-1.77-5.35-1.57c-5.08,0.4-8.43,0.07-10.35-0.2
		c-3.29-0.47-5.33-0.01-6.98-0.01c-5,0,0.14,0.45,0.73,0.68c2.35,0.93,7.1,2.11,10.83,1.84c1.82-0.13,4.87,0.99,5.4,1.17
		c1.34,0.48,3.77,1.26,5.08,1.24C29.61,41.64,29.92,39.85,30.18,39.1"/>
	<path clip-path="url(#SVGID_2_)" fill="#FFFFFF" d="M34.27,32.83c-2.56-2.07-4.91-2.51-8.65-4.28c-0.85-0.4-2.27-1.36-2.35-1.4
		c-0.1-0.07-0.29-0.19-0.52-0.33c-0.22,0.7-0.67,1.66-1.08,2.19c0.58,0.76,4.77,5.56,10.13,7.05
		C32.39,35.04,33.34,33.85,34.27,32.83"/>
	<path clip-path="url(#SVGID_2_)" fill="#FFFFFF" d="M87.99,36.55c-0.25-0.04-1.21-0.17-1.82-0.17c-0.81,0.01-6.1,0.03-7.55,0.25
		c-2.96,0.47-8.7,0.23-11.84,0.1c-2.35-0.09-5.06,0.83-5.88,1.27c0,0,0.91,2.27,0.97,3.81c1,0.18,1.96-1.09,4.81-1.04
		c2.97,0.05,10.28-0.35,13.98-1.8c2.76-1.08,5.08-1.61,6.97-2C88.25,36.86,89.25,36.74,87.99,36.55"/>
	<path clip-path="url(#SVGID_2_)" fill="#FFFFFF" d="M21.77,21.7c0.24-0.2,0.57-0.18,0.86-0.08c2.51,0.81,6.1,0.26,7.78-2.4
		c0.23-0.37,0.7-0.5,1.11-0.34c1.73,0.7,5.28,1.03,9.6-3.37c0.33-0.33,0.85-0.29,1.21,0c3.8,3.06,7.75,3.25,11.76,0.57
		c0.25-0.17,0.57-0.38,0.84-0.27c0.28,0.11,0.48,0.36,0.54,0.65c1.28,5.95,7.47,5.42,9.33,5.12c0.24-0.04,0.48,0.02,0.68,0.16
		c0.2,0.15,0.33,0.36,0.36,0.6c0.2,1.39,1.74,4.09,4.4,5.46c2.27,1.17,4.75,1.08,7.37-0.27c0.26-0.13,0.58-0.13,0.84,0.01
		c3.36,1.8,6.38,1.91,8.29,0.29c1.35-1.14,1.89-2.99,1.36-4.61c-0.6-1.81-2.39-2.93-4.91-3.08c-0.42-0.03-0.77-0.34-0.84-0.77
		c-0.23-1.44-1.03-2.62-2.32-3.41c-1.97-1.21-4.88-1.35-7.77-0.38c-0.26,0.08-0.53,0.05-0.76-0.09c-0.23-0.14-0.38-0.38-0.42-0.65
		c-0.16-1.11-0.64-2.62-2.03-3.48c-1.47-0.9-3.68-0.88-6.41,0.06c-0.42,0.15-0.89-0.04-1.09-0.44c-1.75-3.37-4.21-5.56-7.12-6.33
		c-2.6-0.69-5.49-0.19-7.93,1.38c-0.32,0.2-0.73,0.19-1.04-0.04C43,4.17,40.07,3.58,37.4,4.4c-2.59,0.8-4.57,2.83-5.57,5.73
		c-0.08,0.23-0.25,0.43-0.48,0.53c-0.23,0.1-0.48,0.11-0.72,0.02c-3.98-1.6-7.22-1.56-9.39,0.12c-1.86,1.44-2.43,3.72-2.35,4.38
		c0.06,0.46-0.22,0.88-0.66,0.99l-0.95,0.23c-2.21,0.5-4.49,1.03-5.17,4.55c-0.07,0.39-0.4,0.69-0.8,0.73
		c-3.83,0.38-6.34,1.81-6.87,3.91c-0.37,1.48,0.31,3.16,1.67,4.08c1.36,0.93,3.01,0.83,4.51-0.26c0.25-0.18,0.57-0.22,0.85-0.11
		c2.25,0.87,5.9,0.69,8.12-1.09c1.6-1.29,2.23-3.2,1.87-5.66C21.41,22.22,21.53,21.9,21.77,21.7 M82.47,21.96
		c2.27-0.53,5.01,1.14,4.23,4.21c-0.13,0.53-1.41,0.56-1.37,0.02c0.2-2.57-1.07-2.77-2.75-2.75C81.94,23.44,81.99,22.06,82.47,21.96
		 M72.74,17.4c2.21-1.27,6.73-1.04,8.14,3.01c0.24,0.69-0.67,1.86-1.24,0.81c-1.7-3.14-4.45-3.13-6.74-2.25
		C72.39,19.18,71.92,17.87,72.74,17.4 M63.23,12.73c2.05-0.73,5.55-1.05,6.48,2.39c0.27,0.96-0.91,1.42-1.17,0.75
		c-0.95-2.49-2.74-2.39-4.89-1.71C62.67,14.48,62.91,12.85,63.23,12.73 M46.47,8.86c1.48-2.42,9.21-4.66,13.18,2.17
		c0.42,0.74-0.14,1.18-0.59,1.48c-0.31,0.23-0.5-0.29-0.71-0.62c-3.37-5.35-9.46-3.94-11.1-1.46C46.92,10.93,46.04,9.57,46.47,8.86
		 M34,9.24c1.36-2.16,6.02-5.48,10.15-1.82c0.46,0.4-0.09,1.91-0.61,1.56c-3.78-2.61-6.75-0.51-8.32,1.37
		C34.47,11.25,33.68,9.77,34,9.24 M11.7,24.35c-1.58,0-2.85,0.03-3.96,1.25c-1.19,1.29-0.9,2-1.12,2.24
		c-0.33,0.32-1.14-0.24-1.13-0.88c0.07-3.04,3.73-4.23,5.9-3.99C12.22,23.07,12.43,24.35,11.7,24.35 M18.13,19.25
		c-2.31,0.25-2.99,1.39-3.4,2.69c-0.17,0.49-1.47,0.14-1.26-0.82c0.61-2.86,3.7-3.56,4.82-3.31C18.67,17.87,18.56,19.21,18.13,19.25
		 M20.11,16.17c0.48-2.52,2.93-6.2,8.55-4.77c0.69,0.18,0.28,1.93-0.46,1.64c-4.1-1.61-6.16,1.51-6.82,3.97
		C21.29,17.34,19.91,17.21,20.11,16.17"/>
	<path clip-path="url(#SVGID_2_)" fill="#FFFFFF" d="M8.72,47.17C6,47.11,3.74,47.88,2.94,49.28c-1.47,2.58,0.26,4.8,1.29,5.43
		c2.37,1.43,4.62,0.49,4.78-0.38c-0.65-0.73-1.76-2.38-2.39-2.4c-0.91-0.02-0.83-1.21-0.17-1.42c1.58-0.52,3.11,2.48,5.38,4.11
		c2.02,1.45,4.85,0.39,4.85-0.21C15.45,53.28,13.98,47.29,8.72,47.17"/>
	<path clip-path="url(#SVGID_2_)" fill="#FFFFFF" d="M62.8,54.26c1.88,1.91,4.45,1.09,4.56,0.47c-0.21-0.38-1.4-2.14-2.09-2.52
		c-0.57-0.31-0.94-0.84-0.63-1.27c0.51-0.73,1.54-0.21,2.2,0.59c0.66,0.81,2.47,3.17,3.1,3.53c1.65,0.91,5.28,0.59,4.99-0.48
		c-1-1.6-1.7-4.82-4.69-6.23c-3.11-1.47-7.09-1.09-10.78,0.23C60.11,49.9,61.84,53.29,62.8,54.26"/>
	<path clip-path="url(#SVGID_2_)" fill="#FFFFFF" d="M40.97,48.24c-3.11-1.47-7.51-0.98-11.2,0.34c1.02,1.37,2.72,4.57,3.6,5.64
		c1.7,2.08,4.61,1.03,4.73,0.4c-0.2-0.38-1.76-2.41-2.35-2.74c-0.55-0.32-0.87-0.82-0.56-1.25c0.52-0.73,1.73,0,2.38,0.8
		c0.66,0.8,2.5,3.12,3.11,3.53c1.82,1.24,5.28,0.59,4.99-0.47C44.48,52.89,43.96,49.65,40.97,48.24"/>
	<path clip-path="url(#SVGID_2_)" fill="#FFFFFF" d="M17.66,72.13c-2.21,0.06-4.37,0.94-5.64,0.72V87.7c0,0,0.8,0.61,3.02-0.02
		c2.87-0.82,4.15,0.08,4.15,0.08V72.78C19.18,72.78,18.85,72.09,17.66,72.13"/>
	<path clip-path="url(#SVGID_2_)" fill="#FFFFFF" d="M25.58,134.25c2.22,0.64,3.02,0.02,3.02,0.02v-14.85
		c-1.27,0.22-3.43-0.65-5.64-0.72c-1.19-0.04-1.53,0.64-1.53,0.64v14.99C21.43,134.32,22.71,133.43,25.58,134.25"/>
	<path clip-path="url(#SVGID_2_)" fill="#FFFFFF" d="M73.78,72.13c-1.19-0.04-1.53,0.65-1.53,0.65v14.99c0,0,1.28-0.9,4.15-0.08
		c2.22,0.63,3.02,0.02,3.02,0.02V72.85C78.15,73.07,75.99,72.19,73.78,72.13"/>
	<path clip-path="url(#SVGID_2_)" fill="#FFFFFF" d="M22.95,72.13c-1.19-0.04-1.53,0.65-1.53,0.65v14.99c0,0,1.28-0.9,4.15-0.08
		c2.22,0.63,3.02,0.02,3.02,0.02V72.85C27.33,73.07,25.17,72.19,22.95,72.13"/>
	<path clip-path="url(#SVGID_2_)" fill="#FFFFFF" d="M19.18,134.32v-14.99c0,0-0.34-0.68-1.52-0.64c-2.21,0.07-4.38,0.94-5.64,0.72
		v14.86c0,0,0.8,0.61,3.01-0.02C17.9,133.43,19.18,134.32,19.18,134.32"/>
	<path clip-path="url(#SVGID_2_)" fill="#FFFFFF" d="M72.53,119.34v14.99c0,0,1.28-0.9,4.15-0.07c2.22,0.63,3.02,0.02,3.02,0.02
		v-14.85c-1.27,0.22-3.43-0.65-5.64-0.72C72.86,118.66,72.53,119.34,72.53,119.34"/>
	<path clip-path="url(#SVGID_2_)" fill="#FFFFFF" d="M68.48,72.13c-2.21,0.06-4.38,0.94-5.65,0.72V87.7c0,0,0.8,0.61,3.02-0.02
		c2.86-0.82,4.14,0.08,4.14,0.08V72.78C70,72.78,69.67,72.09,68.48,72.13"/>
	<path clip-path="url(#SVGID_2_)" fill="#FFFFFF" d="M63.11,119.42v14.86c0,0,0.8,0.61,3.02-0.02c2.87-0.82,4.15,0.08,4.15,0.08
		v-14.99c0,0-0.34-0.68-1.53-0.64C66.54,118.76,64.38,119.64,63.11,119.42"/>
	<path clip-path="url(#SVGID_2_)" fill="#FFFFFF" d="M88.98,65.53h-35.5v32.31h35.5V65.53z M83.68,91.24H73.51v1.28H69.3v-1.28
		H59.13V73.99h2.16v-3.14c2.21,0.54,5.81-0.68,7.41-0.68c1.79,0.01,2.7,0.78,2.7,0.78s0.92-0.78,2.7-0.78c1.61,0,5.2,1.21,7.41,0.68
		v3.14h2.17V91.24z"/>
	<path clip-path="url(#SVGID_2_)" fill="#FFFFFF" d="M37.99,65.53H2.47v32.31h35.53V65.53z M32.59,91.24H22.42v1.28H18.2v-1.28H8.03
		V73.99h2.17v-3.14c2.21,0.54,5.8-0.68,7.41-0.68c1.79,0.01,2.7,0.78,2.7,0.78s0.92-0.78,2.7-0.78c1.61,0,5.2,1.21,7.41,0.68v3.14
		h2.17V91.24z"/>
	<path clip-path="url(#SVGID_2_)" fill="#FFFFFF" d="M53.48,155.6c8.95-2.6,17.82-6.07,23.82-11.58c2.12-1.95,3.89-3.99,5.37-6.21
		h-9.16v1.29H69.3v-1.29H59.12v-17.25h2.18v-3.14c2.2,0.54,5.8-0.68,7.41-0.68c1.79,0,2.7,0.78,2.7,0.78s0.92-0.78,2.7-0.78
		c1.61,0,5.21,1.21,7.42,0.68v3.14h2.17v15.6c3.27-5.67,4.82-12.62,5.35-22.38l-0.06-1.45h-35.5V155.6z"/>
</g>
<g>
	<defs>
		<rect id="SVGID_3_" y="0" width="320" height="160"/>
	</defs>
	<clipPath id="SVGID_4_">
		<use xlink:href="#SVGID_3_"  overflow="visible"/>
	</clipPath>
	<path clip-path="url(#SVGID_4_)" fill="#FFFFFF" d="M8.03,135.98v-15.43h2.17v-3.14c2.2,0.54,5.8-0.68,7.41-0.68
		c1.79,0,2.7,0.78,2.7,0.78s0.92-0.78,2.7-0.78c1.61,0,5.2,1.21,7.41,0.68v3.14h2.17v17.25H22.41v1.29H18.2v-1.29H9.14
		c1.45,2.21,3.16,4.25,5.18,6.14c5.66,5.32,14.53,8.93,23.67,11.62v-43.25H2.47l0.07,1.37C2.9,122.62,4.57,129.9,8.03,135.98"/>
	<path clip-path="url(#SVGID_4_)" d="M92.92,35.62c-0.53-0.39-6.19-1.09-7.07-1.09c-0.86,0-5.75,0.04-7.64,0.33
		c-2.93,0.44-7.94,0.44-11.74,0c-1.38-0.16-2.9,0.18-4.14,0.58c0.25-0.21,0.51-0.45,0.82-0.77c1.12-1.16,2.38-3.36,4.61-4.45
		c0.56-0.28,1.09-0.57,1.6-0.85c1.87,0.94,4.82,1.58,8.49-0.16c5.47,2.74,8.74,0.89,9.89-0.09c1.41-1.19,2.2-2.96,2.2-4.73
		c0-0.62-0.1-1.24-0.29-1.84c-0.79-2.39-2.96-3.88-5.94-4.23c-0.17-0.64-0.44-1.23-0.76-1.79c0.35-0.44,0.67-0.86,0.89-1.11
		c0.26-0.33,1.16-1.83-1.25-0.58c-0.12,0.06-0.35,0.19-0.65,0.36c-0.34-0.33-0.71-0.64-1.13-0.9c-2.25-1.37-5.28-1.54-8.4-0.7
		c-0.44-1.67-1.26-3.08-2.57-3.89c-1.38-0.84-3.11-1.09-5.15-0.77c0.13-0.3,0.24-0.57,0.34-0.78c0.91-1.91,0.42-2.39-0.54-1.54
		c-1.08,0.96-1.75,1.64-2.27,2.19C60.27,5.7,57.73,3.6,54.72,2.8c-2.61-0.69-5.42-0.32-7.97,0.91c-0.15-1.28-0.32-2.34-0.5-2.94
		c-0.47-1.55-1.04-0.33-1.13,0.15c-0.11,0.65-0.25,1.53-0.42,2.56c-2.54-1.36-5.36-1.74-8-0.93c-2.9,0.89-5.1,3.05-6.38,6.07
		c-1.05-0.38-2.01-0.6-2.9-0.76c-0.53-0.7-1.32-1.59-2.42-2.55c-0.74-0.66-1.35-0.32-0.91,0.98c0.17,0.5,0.33,0.95,0.46,1.37
		c-2.07,0.11-3.58,0.8-4.59,1.58c-2.01,1.56-2.82,3.79-2.99,5.2c-0.12,0.03-0.28,0.07-0.28,0.07c-1.68,0.39-3.96,1.02-5.38,3.28
		c-0.25-0.16-0.44-0.27-0.51-0.32c-4.25-2.83-2.29,0.81-0.65,2.41c-5.65,0.8-7.24,3.52-7.65,5.14c-0.1,0.41-0.15,0.83-0.15,1.25
		c0,1.84,0.96,3.68,2.56,4.77c1.88,1.28,4.18,1.21,6.21-0.1c2.66,0.86,6.41,0.72,9.11-1.25c1.55,1.68,2.81,2.87,3.49,3.55
		c1.69,1.69,4.18,2.98,5.45,3.46c-1.25-0.49-3.35-1.01-5.44-0.72c-4.51,0.63-7.51-0.19-9.44-0.38c-3.18-0.32-6.46,0.23-8.09,0.23
		c-1.73,0-4.16,0.81-5.36,0.99c-1.28,0.19-1.2,1.04,0.59,1.52c1.77,0.48,5.09,0.78,5.99,1.16c2.88,1.25,7.7,2.3,11.1,2.03
		c2.41-0.19,4.84,0.99,5.46,1.18c1.2,0.37,4.16,1.18,5.38,1.16c0-0.07,0,1.72,0.13,2.57c-0.46,0.15-0.9,0.32-1.3,0.5
		c-1.35-0.82-7.27-3.23-14.48-0.23c-1.52-0.53-4.75-2.32-9.17-0.86c-5.46,1.81-4.57,6.82-2.77,9.12c2.43,3.11,6.94,2.48,8.25,0.91
		c2.93,1.95,5.92,1.29,8.09-0.06c1.43,0.84,8.45,2.24,13.78,0.06c0.73,0.54,3.66,2.08,7.42,0.18c2.17,1.29,5.76,1.39,7.6-0.24
		c0.67,0.57,2.67,1.39,6.94,1.34c5.12-0.06,6.31-0.83,7.03-1.46c1.1,0.51,3.98,2.02,7.54,0.5c1.92,1.21,5.76,1.14,7.82-0.22
		c3.77,1.72,10.67,0.94,12.4-0.26c3.09-2.15,1.6-6.54-1.81-8.62c-6.69-3.39-12.92-0.76-14.58,0.09c-1.97-1.34-6.1-2.19-10.38-1.4
		c0.07-0.51-0.01-1.1-0.01-1.75c0-0.07-0.01-0.13-0.01-0.2c0.85-0.26,2.06-1.18,4.51-1.33c3.34-0.23,11.23-0.12,15.17-2.15
		c2.25-1.15,10.08-2.7,11.12-3.31C93.76,36.46,93.48,36,92.92,35.62 M64.21,31.08c-2.84,3.36-4.28,4.53-4.78,4.51
		c-0.54-1.09-1.75-2.39-2.56-3.12c1.02-1.14,5.46-3.22,7.51-4.77c0.3-0.23,1.2-0.78,1.59-0.99c0.53,0.63,1.16,1.24,1.88,1.75
		C66.08,29.44,65.12,30.01,64.21,31.08 M23.24,23.79c2.39,0.38,5.17-0.18,7.19-2.01c2.48,3.98,2.55,7.58,4.94,10.07
		c-3.03-2.94-5.66-2.88-9.99-5.23c-0.75-0.4-1.86-1.13-2.18-1.29c-0.01-0.01-0.01-0.01-0.02-0.01c0.05-0.37,0.08-0.75,0.08-1.16
		C23.27,24.05,23.24,23.91,23.24,23.79 M41.69,28.24l0.06,0.14c0,0-1.32-1.98-1.48-2.24c-0.45-0.69-1.04-1.39-1.7-2.2
		c-1.03-1.25-1.94-2.27-2.64-3.03c1.72-0.42,3.7-1.41,5.82-3.42c0.22,0.17,0.45,0.29,0.68,0.44c-0.12,0.68-0.22,1.3-0.3,1.75
		c-0.49,2.68-0.52,4.74-0.56,5.63C41.55,26.14,41.63,27.46,41.69,28.24 M37.9,25.76c1.05,1.38,2,3,2.2,3.35
		c-0.88,0.32-2.44,1.11-3.34,1.72c-1.69-1.75-2.99-7.02-3.83-8.42c-0.32-0.54-0.55-0.91-0.72-1.19c0.58,0.2,1.51,0.18,2.05,0.18
		C34.43,21.62,35.88,23.06,37.9,25.76 M45.73,29.68c8.28,0,14.76,6.51,14.76,14.81c0,0.56-0.04,1.39-0.14,2.19
		c-0.89,0.26-1.78,0.56-2.63,0.99c-4.27-2.5-10.11-2.35-14.15-0.03c-2.5-1.99-8.13-2.15-12.38-1.16c-0.13-0.8-0.21-1.6-0.21-1.99
		C30.97,36.31,37.57,29.68,45.73,29.68 M43.6,24.02c0.17-2.75,0.69-4.62,0.76-4.97c0.58,0.28,1.29,0.52,1.98,0.7
		c0.54,1.15,1.46,5.73,1.05,8.49c-1.25-0.12-2.71-0.09-3.58,0C43.55,27.74,43.51,25.5,43.6,24.02 M56.68,24.32
		c-0.83,1.8-0.4,4.13-2.53,6.24c-0.29-0.24-2.45-1.27-3.26-1.6c0.34-2.86,2.99-6.43,4.73-7.91c0.54,0.62,1.29,1.16,1.98,1.53
		C57.39,22.93,57.04,23.54,56.68,24.32 M58.94,23.74c0.07-0.12,0.15-0.27,0.23-0.44c1.59,0.53,3.33,0.67,5.04,0.48
		c0.17,0.56,0.44,1.16,0.79,1.76c-0.01,0-0.03,0.01-0.03,0.02c-0.85,0.4-3.41,2.17-7.16,4.26c-0.97,0.54-1.57,1.06-1.91,1.41
		c0.41-0.56,0.92-1.3,1.23-2.11C57.79,27.43,57.62,26.07,58.94,23.74 M49.86,25.91c-0.41,1.03-0.57,1.58-0.72,2.16
		c0.32-2.22-0.28-5.47-0.93-8.27c1.93,0.04,3.89-0.47,5.82-1.57c0.15,0.44,0.35,0.82,0.55,1.2C53.49,20.43,50.88,23.31,49.86,25.91
		 M19.59,28.19c-2.21,1.78-5.86,1.95-8.11,1.09c-0.29-0.11-0.61-0.07-0.85,0.11c-1.5,1.1-3.14,1.19-4.51,0.26
		c-1.36-0.92-2.04-2.6-1.67-4.08c0.53-2.1,3.03-3.52,6.86-3.91c0.4-0.04,0.72-0.34,0.8-0.73c0.69-3.52,2.97-4.04,5.17-4.55
		l0.95-0.23c0.45-0.11,0.72-0.53,0.66-0.99c-0.08-0.66,0.49-2.94,2.35-4.38c2.17-1.68,5.41-1.72,9.39-0.12
		c0.23,0.09,0.49,0.09,0.71-0.02c0.22-0.1,0.4-0.29,0.48-0.53c1-2.9,2.98-4.93,5.57-5.73c2.67-0.82,5.6-0.23,8.06,1.62
		c0.3,0.23,0.72,0.24,1.03,0.04c2.44-1.57,5.33-2.08,7.93-1.38c2.9,0.77,5.37,2.96,7.12,6.33c0.21,0.4,0.67,0.58,1.09,0.44
		c2.73-0.94,4.94-0.96,6.41-0.06c1.39,0.85,1.87,2.36,2.03,3.48c0.04,0.27,0.19,0.5,0.42,0.65c0.23,0.14,0.51,0.17,0.76,0.09
		c2.89-0.97,5.79-0.83,7.77,0.38c1.3,0.79,2.1,1.97,2.32,3.41c0.06,0.42,0.41,0.74,0.84,0.77c2.53,0.15,4.31,1.28,4.91,3.08
		c0.53,1.62-0.01,3.47-1.36,4.62c-1.91,1.61-4.93,1.51-8.29-0.29c-0.26-0.14-0.58-0.14-0.84-0.01c-2.62,1.35-5.09,1.44-7.37,0.27
		c-2.66-1.38-4.2-4.07-4.4-5.46c-0.03-0.24-0.16-0.46-0.36-0.6c-0.2-0.14-0.44-0.2-0.68-0.16c-1.86,0.3-8.05,0.83-9.33-5.12
		c-0.06-0.3-0.27-0.54-0.54-0.65c-0.28-0.11-0.59,0.1-0.84,0.27c-4.01,2.68-7.97,2.48-11.76-0.57c-0.36-0.29-0.89-0.33-1.21,0
		c-4.32,4.4-7.87,4.08-9.6,3.37c-0.41-0.17-0.87-0.04-1.1,0.34c-1.68,2.66-5.27,3.22-7.78,2.4c-0.3-0.1-0.62-0.12-0.86,0.08
		c-0.24,0.2-0.36,0.52-0.31,0.83C21.82,24.99,21.19,26.9,19.59,28.19 M21.67,29.02c0.41-0.53,0.86-1.49,1.08-2.19
		c0.23,0.14,0.42,0.26,0.52,0.33c0.07,0.04,1.5,1,2.35,1.4c3.75,1.77,6.1,2.21,8.65,4.28c-0.93,1.02-1.88,2.2-2.47,3.23
		C26.44,34.57,22.25,29.77,21.67,29.02 M24.46,41.01c-0.52-0.18-3.58-1.3-5.4-1.17c-3.73,0.27-8.48-0.91-10.83-1.84
		c-0.59-0.23-5.73-0.68-0.73-0.68c1.64,0,3.69-0.46,6.98,0.01c1.92,0.27,5.27,0.6,10.35,0.2c2.48-0.2,4.39,0.62,5.35,1.57
		c-0.26,0.75-0.57,2.54-0.64,3.15C28.23,42.27,25.8,41.49,24.46,41.01 M11.84,54.61c-2.27-1.62-3.8-4.63-5.38-4.11
		c-0.66,0.22-0.73,1.4,0.17,1.42c0.62,0.01,1.74,1.67,2.38,2.39c-0.17,0.88-2.42,1.81-4.78,0.38c-1.03-0.62-2.76-2.85-1.29-5.42
		c0.8-1.4,3.06-2.17,5.78-2.11c5.26,0.12,6.73,6.12,7.97,7.24C16.69,55,13.86,56.07,11.84,54.61 M19.47,54.53
		c-1.99-0.88-3.56-5.47-4.14-6.06c-0.23-0.23,3.51-1.6,7.32-1.27c6.48,0.55,6.5,4.59,8.1,6.61C31.32,54.55,25.48,56.23,19.47,54.53
		 M40.68,54.94c-0.61-0.41-2.45-2.73-3.11-3.53c-0.66-0.8-1.87-1.52-2.38-0.8c-0.31,0.44,0.01,0.94,0.56,1.25
		c0.59,0.34,2.15,2.36,2.35,2.74c-0.12,0.63-3.03,1.68-4.73-0.4c-0.88-1.08-2.58-4.28-3.6-5.65c3.69-1.32,8.09-1.81,11.2-0.33
		c2.99,1.41,3.51,4.66,4.7,6.24C45.96,55.53,42.5,56.18,40.68,54.94 M48.82,54.86c-1.98-0.89-3.56-5.48-4.14-6.06
		c-0.23-0.23,3.51-1.59,7.32-1.26c6.49,0.55,6.5,4.59,8.1,6.61C60.68,54.88,54.84,56.57,48.82,54.86 M81.24,47.32
		c6.48,0.55,8.02,4.83,7.38,6.22c-0.57,1.22-4.54,2.8-10.55,1.1c-1.99-0.89-3.56-5.48-4.14-6.06C73.69,48.35,77.43,47,81.24,47.32
		 M70.23,48.34c2.99,1.41,3.69,4.64,4.69,6.23c0.29,1.07-3.34,1.39-4.99,0.48c-0.64-0.36-2.45-2.73-3.1-3.53
		c-0.66-0.8-1.69-1.31-2.2-0.59c-0.31,0.44,0.06,0.96,0.63,1.27c0.7,0.38,1.88,2.13,2.09,2.52c-0.12,0.62-2.69,1.45-4.56-0.47
		c-0.96-0.97-2.69-4.36-3.35-5.69C63.14,47.25,67.12,46.87,70.23,48.34 M87.62,36.99c-1.88,0.38-4.2,0.92-6.96,2
		c-3.7,1.45-11.01,1.85-13.98,1.8c-2.85-0.05-3.81,1.22-4.81,1.04c-0.06-1.54-0.96-3.81-0.96-3.81c0.82-0.45,3.53-1.37,5.88-1.27
		c3.14,0.12,8.88,0.36,11.84-0.11c1.45-0.22,6.75-0.25,7.55-0.25c0.61-0.01,1.56,0.12,1.82,0.16
		C89.25,36.74,88.25,36.86,87.62,36.99"/>
</g>
<g>
	<defs>
		<rect id="SVGID_5_" width="320" height="160"/>
	</defs>
	<clipPath id="SVGID_6_">
		<use xlink:href="#SVGID_5_"  overflow="visible"/>
	</clipPath>
	<path clip-path="url(#SVGID_6_)" d="M11.7,24.35c-1.58,0-2.85,0.03-3.96,1.25c-1.19,1.29-0.9,2-1.12,2.24
		c-0.33,0.32-1.14-0.24-1.13-0.89c0.07-3.04,3.73-4.23,5.9-3.98C12.22,23.07,12.44,24.35,11.7,24.35"/>
	<path clip-path="url(#SVGID_6_)" d="M18.13,19.25c-2.31,0.25-2.99,1.39-3.4,2.69c-0.17,0.49-1.47,0.14-1.26-0.82
		c0.61-2.86,3.7-3.56,4.82-3.31C18.67,17.87,18.55,19.21,18.13,19.25"/>
	<path clip-path="url(#SVGID_6_)" d="M28.2,13.04c-4.1-1.61-6.16,1.51-6.82,3.97c-0.09,0.33-1.46,0.21-1.27-0.84
		c0.48-2.52,2.93-6.2,8.55-4.77C29.35,11.57,28.94,13.33,28.2,13.04"/>
	<path clip-path="url(#SVGID_6_)" d="M43.55,8.98c-3.78-2.61-6.75-0.51-8.32,1.37c-0.76,0.89-1.54-0.59-1.22-1.11
		c1.36-2.16,6.02-5.48,10.15-1.82C44.62,7.82,44.06,9.33,43.55,8.98"/>
	<path clip-path="url(#SVGID_6_)" d="M59.06,12.51c-0.32,0.23-0.5-0.29-0.71-0.62c-3.37-5.35-9.46-3.94-11.1-1.46
		c-0.33,0.5-1.22-0.86-0.79-1.57c1.48-2.42,9.21-4.66,13.18,2.17C60.07,11.77,59.51,12.2,59.06,12.51"/>
	<path clip-path="url(#SVGID_6_)" d="M68.54,15.87c-0.95-2.49-2.74-2.39-4.89-1.71c-0.99,0.32-0.75-1.32-0.42-1.43
		c2.05-0.73,5.55-1.05,6.48,2.39C69.98,16.08,68.8,16.54,68.54,15.87"/>
	<path clip-path="url(#SVGID_6_)" d="M79.64,21.22c-1.7-3.14-4.45-3.13-6.74-2.25c-0.51,0.2-0.98-1.11-0.16-1.58
		c2.21-1.27,6.73-1.04,8.14,3.01C81.12,21.1,80.21,22.27,79.64,21.22"/>
	<path clip-path="url(#SVGID_6_)" d="M86.7,26.16c-0.13,0.53-1.41,0.56-1.37,0.02c0.2-2.57-1.07-2.77-2.75-2.75
		c-0.64,0.01-0.59-1.37-0.11-1.47C84.75,21.43,87.48,23.1,86.7,26.16"/>
	<path clip-path="url(#SVGID_6_)" d="M42.5,39.44c-0.05,0.95-0.85,1.68-1.8,1.64c-0.95-0.05-1.67-0.86-1.63-1.81l0.02-0.19
		c-0.15-0.23-0.92-0.48-2.07,0.22c-0.58,0.35-1.22,0.11-0.22-0.76c1.06-0.93,2.07-1.46,2.96-1.58l0.03-0.01
		c1.5-0.1,3.45,0.2,4.36,0.58c0.38,0.15-0.02,2.02-0.1,1.99c-0.31-0.07-0.98-0.36-1.55-0.23L42.5,39.44"/>
	<path clip-path="url(#SVGID_6_)" d="M47.42,44.6c-0.3,0.88-3.4,1.16-3.97,0.02c-0.22-0.45-0.54-1.62-0.12-1.38
		c0.69,0.4,3.19,0.12,3.66,0c0.42-0.11,0.14-0.69,0.4-0.62C47.7,42.7,47.7,43.77,47.42,44.6"/>
	<path clip-path="url(#SVGID_6_)" d="M54.72,39.73c-0.78-0.65-1.8-0.93-2.19-0.65l0.02,0.13c0.08,0.95-0.62,1.78-1.56,1.87
		c-0.95,0.08-1.78-0.62-1.86-1.57v-0.07c-0.61-0.2-1.6,0.15-1.74,0.09c-0.08-0.04-0.5-1.79,0.05-2.01c1.48-0.61,6.25-0.9,7.64,1.79
		C55.23,39.64,55.13,40.07,54.72,39.73"/>
	<path clip-path="url(#SVGID_6_)" d="M53.48,65.53h35.5v32.31h-35.5V65.53z M2.47,65.53H38v32.31H2.47V65.53z M37.99,155.57
		c-9.14-2.69-18.02-6.3-23.67-11.62c-2.02-1.9-3.73-3.94-5.18-6.14h9.06v1.28h4.21v-1.28h10.18v-17.26h-2.17v-3.14
		c-2.21,0.53-5.8-0.68-7.41-0.68c-1.78,0-2.7,0.78-2.7,0.78s-0.91-0.78-2.7-0.78c-1.61,0-5.21,1.22-7.41,0.68v3.14H8.03v15.43
		c-3.46-6.08-5.13-13.36-5.48-22.29l-0.07-1.37h35.52V155.57z M12.02,134.27v-14.86c1.27,0.22,3.43-0.65,5.64-0.72
		c1.19-0.04,1.52,0.64,1.52,0.64v14.99c0,0-1.28-0.9-4.15-0.08C12.82,134.89,12.02,134.27,12.02,134.27 M21.43,134.33v-14.99
		c0,0,0.34-0.68,1.53-0.64c2.21,0.07,4.37,0.95,5.64,0.72v14.86c0,0-0.8,0.61-3.02-0.02C22.71,133.43,21.43,134.33,21.43,134.33
		 M51.62,156.16l-5.88,1.5l-5.89-1.53v-45.8H2.47V99.82h37.37V65.53h11.78v34.29h37.35v10.52H51.62V156.16z M83.69,136.16v-15.6
		h-2.17v-3.14c-2.21,0.53-5.8-0.68-7.41-0.68c-1.77,0-2.7,0.78-2.7,0.78s-0.91-0.78-2.7-0.78c-1.61,0-5.21,1.22-7.41,0.68v3.14
		h-2.18v17.26H69.3v1.28h4.21v-1.28h9.15c-1.48,2.22-3.24,4.26-5.37,6.21c-6,5.51-14.87,8.98-23.82,11.58v-43.28h35.5l0.06,1.46
		C88.51,123.54,86.96,130.49,83.69,136.16 M79.69,119.42v14.86c0,0-0.8,0.61-3.02-0.02c-2.87-0.82-4.15,0.08-4.15,0.08v-14.99
		c0,0,0.33-0.68,1.53-0.64C76.26,118.77,78.42,119.64,79.69,119.42 M70.28,119.34v14.99c0,0-1.28-0.9-4.15-0.08
		c-2.22,0.63-3.02,0.02-3.02,0.02v-14.86c1.27,0.22,3.43-0.65,5.64-0.72C69.94,118.66,70.28,119.34,70.28,119.34 M0.3,63.35v47.81
		c0,15.8,3.93,26.74,12.34,34.43c8.36,7.63,20.87,11.51,33.1,14.4c12.57-2.98,24.66-6.7,33.1-14.4
		c8.41-7.69,12.32-18.63,12.32-34.43V63.35H0.3z"/>
	<path clip-path="url(#SVGID_6_)" d="M30.42,73.99v-3.14c-2.21,0.52-5.8-0.68-7.41-0.68c-1.77,0-2.7,0.78-2.7,0.78
		s-0.91-0.78-2.7-0.78c-1.61-0.01-5.21,1.22-7.41,0.68v3.14H8.03v17.25H18.2v1.28h4.22v-1.28h10.17V73.99H30.42z M19.18,87.76
		c0,0-1.28-0.9-4.15-0.08c-2.22,0.63-3.02,0.02-3.02,0.02V72.85c1.27,0.22,3.43-0.65,5.64-0.72c1.19-0.04,1.52,0.65,1.52,0.65V87.76
		z M28.6,87.7c0,0-0.8,0.61-3.02-0.02c-2.87-0.82-4.15,0.08-4.15,0.08V72.78c0,0,0.34-0.68,1.53-0.65c2.21,0.06,4.37,0.94,5.64,0.72
		V87.7z"/>
	<path clip-path="url(#SVGID_6_)" d="M81.52,73.99v-3.14c-2.21,0.52-5.8-0.68-7.41-0.68c-1.78,0-2.7,0.78-2.7,0.78
		s-0.91-0.78-2.7-0.78c-1.61-0.01-5.21,1.22-7.42,0.68v3.14h-2.16v17.25H69.3v1.28h4.22v-1.28h10.17V73.99H81.52z M70,87.76
		c0,0-1.28-0.9-4.15-0.08c-2.22,0.63-3.02,0.02-3.02,0.02V72.85c1.27,0.22,3.44-0.65,5.64-0.72c1.19-0.04,1.52,0.65,1.52,0.65V87.76
		z M79.42,87.7c0,0-0.8,0.61-3.02-0.02c-2.87-0.82-4.15,0.08-4.15,0.08V72.78c0,0,0.34-0.68,1.53-0.65
		c2.21,0.06,4.37,0.94,5.64,0.72V87.7z"/>
	<polygon clip-path="url(#SVGID_6_)" fill="#E81E25" points="39.84,156.14 45.74,157.66 51.62,156.16 51.62,110.34 88.98,110.34 
		88.98,99.82 51.62,99.82 51.62,65.53 39.84,65.53 39.84,99.82 2.47,99.82 2.47,110.34 39.84,110.34 	"/>
	<path clip-path="url(#SVGID_6_)" fill="#E81E25" d="M22.65,47.21c-3.81-0.33-7.55,1.03-7.32,1.27c0.59,0.59,2.16,5.17,4.14,6.06
		c6.02,1.7,11.85,0.02,11.27-0.72C29.15,51.8,29.13,47.76,22.65,47.21"/>
	<path clip-path="url(#SVGID_6_)" fill="#E81E25" d="M52,47.54c-3.81-0.33-7.56,1.03-7.32,1.26c0.58,0.59,2.16,5.18,4.14,6.06
		c6.02,1.7,11.86,0.02,11.28-0.72C58.5,52.13,58.49,48.09,52,47.54"/>
	<path clip-path="url(#SVGID_6_)" fill="#E81E25" d="M78.06,54.65c6.02,1.7,9.98,0.12,10.55-1.1c0.65-1.39-0.9-5.67-7.38-6.22
		c-3.81-0.33-7.55,1.03-7.31,1.26C74.5,49.17,76.08,53.76,78.06,54.65"/>
</g>
<path d="M139.37,135.98v-0.89c2.02-0.17,2.26-0.41,2.26-2.68v-5.63c0-2.81-1.06-4.22-3.39-4.22c-1.27,0-2.6,0.65-3.52,1.78v8.07
	c0,2.2,0.17,2.47,2.26,2.68v0.89h-7.35v-0.89c2.19-0.21,2.39-0.45,2.39-2.71v-17.26c-1.88-0.21-3.66-0.24-6.67-0.24h-2.43v16.82
	c0,2.92,0.27,3.16,3.42,3.36v0.93h-9.64v-0.93c3.04-0.21,3.32-0.48,3.32-3.36v-16.82h-2.15c-3.04,0-3.66,0.31-4.14,1.13
	c-0.41,0.65-0.72,1.44-1.13,3.02h-0.99c0.17-2.02,0.34-4.36,0.41-6.21h0.65c0.48,0.76,0.92,0.86,1.88,0.86h14.23
	c2.84,0,3.25-0.21,3.25-0.93v-0.48c0.68-0.1,1.74-0.45,2.7-0.79v11.6c1.27-1.3,3.01-2.44,4.79-2.47c2.87-0.07,4.82,1.75,4.82,5.83
	v5.97c0,2.3,0.24,2.51,2.29,2.68v0.89H139.37z M160.64,133.1c-2.15,2.68-4.51,3.29-5.57,3.29c-4.21,0-6.67-3.43-6.67-7.31
	c0-2.33,0.85-4.46,2.26-5.97c1.4-1.54,3.25-2.51,4.99-2.51h0.03c2.84,0,5.13,2.54,5.13,5.18c0,0.69-0.14,0.96-0.79,1.1
	c-0.55,0.1-4.86,0.45-8.96,0.58c0.03,4.67,2.74,6.59,5.13,6.59c1.4,0,2.67-0.55,3.93-1.72L160.64,133.1z M154.83,121.88
	c-1.54,0-3.08,1.44-3.59,4.19c1.92,0,3.83-0.03,5.81-0.1c0.62,0,0.82-0.17,0.82-0.65c0.03-1.78-1.13-3.43-3.01-3.43H154.83z
	 M179.45,113.68c2.43,0,4.41,0.41,5.78,1.41c1.33,1.03,2.19,2.61,2.19,4.84c0,4.46-3.32,6.62-6.67,7.04
	c-0.51,0.07-1.16,0.07-1.54,0.03l-2.53-0.65v5.39c0,2.92,0.31,3.09,3.39,3.29v0.96h-9.27v-0.96c2.74-0.21,3.01-0.48,3.01-3.33
	v-13.73c0-3.02-0.27-3.16-2.8-3.33v-0.96H179.45z M176.68,125.21c0.44,0.17,1.37,0.41,2.5,0.41c2.22,0,4.96-1.2,4.96-5.56
	c0-3.71-2.36-5.29-5.16-5.29c-0.96,0-1.68,0.17-1.92,0.41c-0.27,0.21-0.38,0.62-0.38,1.61V125.21z M196.38,120.61
	c4.24,0,7.39,3.43,7.39,7.65c0,5.53-4.04,8.13-7.42,8.13c-4.69,0-7.49-3.78-7.49-7.55c0-5.66,4.38-8.24,7.49-8.24H196.38z
	 M195.93,121.74c-2.05,0-3.9,2.13-3.9,6.01c0,4.32,1.85,7.52,4.69,7.52c2.12,0,3.86-1.54,3.86-6.28c0-3.98-1.61-7.24-4.62-7.24
	H195.93z M205.3,135.98v-0.89c2.15-0.21,2.46-0.41,2.46-2.68v-16.23c0-2.33-0.21-2.4-2.36-2.61v-0.82c1.78-0.21,3.9-0.79,5.06-1.2
	v20.87c0,2.27,0.27,2.47,2.46,2.68v0.89H205.3z M214.53,135.98v-0.89c2.15-0.21,2.39-0.41,2.39-2.75v-7.07
	c0-2.09-0.1-2.27-2.15-2.57v-0.82c1.74-0.27,3.39-0.72,4.86-1.34v11.81c0,2.33,0.24,2.54,2.43,2.75v0.89H214.53z M218.09,113.64
	c0.96,0,1.71,0.79,1.71,1.78c0,0.93-0.75,1.75-1.74,1.75c-0.89,0-1.71-0.82-1.71-1.72c0-1.03,0.82-1.82,1.71-1.82H218.09z
	 M236.49,132.9c-1.5,1.99-3.76,3.5-5.78,3.5c-4.31,0-6.87-3.47-6.87-7.14c0-2.64,1.16-4.94,3.45-6.69c1.78-1.37,3.83-1.96,5.1-1.96
	h0.03c1.4,0,2.53,0.45,3.08,0.93c0.44,0.34,0.55,0.65,0.55,1.03c0,0.72-0.75,1.48-1.13,1.48c-0.21,0-0.38-0.1-0.65-0.38
	c-1.03-0.96-2.22-1.41-3.45-1.41c-2.26,0-4.21,1.89-4.21,5.49c0,4.74,3.21,6.31,5.16,6.31c1.47,0,2.56-0.41,4.14-1.89L236.49,132.9z
	 M253.93,121.91c-1.81,0.27-2.09,0.55-3.01,2.47c-0.89,1.82-1.95,4.67-4.31,10.33c-2.29,5.46-3.04,7.41-3.52,9.23
	c-0.17,0.69-0.62,0.86-1.09,0.86c-0.96,0-1.92-0.82-1.92-1.65c0-0.55,0.27-0.86,0.85-1.24c1.09-0.69,1.74-1.51,2.56-3.05
	c0.62-1.2,0.89-1.89,1.06-2.37c0.17-0.51,0.14-0.96-0.07-1.51c-1.37-3.91-2.91-8.07-3.9-10.5c-0.75-1.85-1.06-2.33-2.94-2.57v-0.89
	h6.91l0.03,0.89c-1.61,0.24-1.78,0.58-1.3,1.89l3.08,8.58c0.96-2.33,2.46-6.38,3.15-8.51c0.41-1.3,0.21-1.68-1.78-1.96v-0.89h6.19
	V121.91z M278.99,130.6c-0.21,1.06-0.92,4.32-1.23,5.39h-15.49v-0.96c2.87-0.21,3.15-0.45,3.15-3.36v-13.73
	c0-2.92-0.21-3.09-3.01-3.29v-0.96h8.93v0.96c-2.7,0.21-3.01,0.38-3.01,3.29v13.56c0,1.85,0.17,2.54,0.79,2.88
	c0.68,0.38,1.85,0.45,3.28,0.45c1.88,0,3.04-0.17,3.83-1.06c0.62-0.69,1.23-1.78,1.74-3.36L278.99,130.6z M291.85,136.4
	c-0.51,0-1.23-0.31-1.61-0.65c-0.44-0.45-0.65-0.93-0.82-1.54c-1.37,0.93-3.01,2.2-4.04,2.2c-2.43,0-4.1-2.02-4.1-4.19
	c0-1.65,0.89-2.71,2.77-3.36c2.05-0.69,4.55-1.61,5.3-2.23v-0.58c0-2.51-1.13-3.88-2.87-3.88c-0.65,0-1.16,0.24-1.5,0.65
	c-0.44,0.45-0.72,1.2-1.03,2.23c-0.17,0.55-0.51,0.79-0.99,0.79c-0.62,0-1.47-0.65-1.47-1.44c0-0.51,0.41-0.89,1.06-1.37
	c0.96-0.69,3.15-1.96,5.1-2.4c1.03,0,2.05,0.31,2.8,0.93c1.2,1.03,1.54,2.4,1.54,4.22v6.35c0,1.54,0.62,2.06,1.2,2.06
	c0.41,0,0.89-0.21,1.23-0.41l0.34,0.89L291.85,136.4z M289.35,127.78c-0.72,0.38-2.36,1.1-3.08,1.44c-1.33,0.62-2.09,1.24-2.09,2.51
	c0,1.78,1.37,2.61,2.43,2.61c0.89,0,2.09-0.58,2.74-1.24V127.78z M302.65,120.95c0.55-0.24,0.99-0.34,1.4-0.34
	c3.66,0,6.74,3.16,6.74,7.21c0,5.01-4.04,8.58-8.58,8.58c-1.4,0-3.15-0.34-5.03-1.24v-19.05c0-2.13-0.07-2.37-2.26-2.54v-0.82
	c1.61-0.21,3.69-0.72,4.96-1.2v10.6L302.65,120.95z M299.88,132c0,0.51,0.07,0.86,0.21,1.2c0.24,0.69,1.23,1.89,3.01,1.89
	c2.87,0,4.65-2.44,4.65-6.38c0-3.91-2.36-6.18-5.2-6.18c-0.96,0-2.05,0.27-2.67,0.65V132z"/>
</svg>
