<?xml version="1.0" encoding="utf-8"?>
<svg version="1.1" id="Layer_1" xmlns="http://www.w3.org/2000/svg" xmlns:xlink="http://www.w3.org/1999/xlink" x="0px" y="0px" viewBox="0 0 165 40" style="enable-background:new 0 0 165 40;" xml:space="preserve">
<style type="text/css">
.st0{fill:#fff;}
.st1{fill:none;}
.st2{fill-rule:evenodd;clip-rule:evenodd;fill:#fff;}
</style>
<path class="st0" d="M164.8,8.4c0-0.3,0-0.6,0-0.9c0-0.7-0.1-1.3-0.2-2c-0.1-0.7-0.3-1.3-0.6-1.9c-0.3-0.6-0.7-1.1-1.2-1.6
	c-0.5-0.5-1-0.9-1.6-1.2c-0.6-0.3-1.2-0.5-1.9-0.6c-0.7-0.1-1.3-0.2-2-0.2c-0.3,0-0.6,0-0.9,0c-0.4,0-0.7,0-1.1,0H9.5
	C9.2,0,8.8,0,8.4,0C8.1,0,7.8,0,7.5,0c-0.7,0-1.3,0.1-2,0.2C4.8,0.3,4.2,0.5,3.6,0.8C3,1.1,2.5,1.5,2,2C1.5,2.5,1.1,3,0.8,3.6
	C0.5,4.2,0.3,4.9,0.2,5.5C0.1,6.2,0,6.9,0,7.5c0,0.3,0,0.6,0,0.9c0,0.4,0,0.7,0,1.1v20.9c0,0.4,0,0.7,0,1.1c0,0.3,0,0.6,0,0.9
	c0,0.7,0.1,1.3,0.2,2c0.1,0.7,0.3,1.3,0.6,1.9C1.1,37,1.5,37.5,2,38c0.5,0.5,1,0.9,1.6,1.2c0.6,0.3,1.2,0.5,1.9,0.6
	c0.7,0.1,1.3,0.2,2,0.2c0.3,0,0.6,0,0.9,0c0.4,0,0.7,0,1.1,0h145.8c0.4,0,0.7,0,1.1,0c0.3,0,0.6,0,0.9,0c0.7,0,1.3-0.1,2-0.2
	c0.7-0.1,1.3-0.3,1.9-0.6c0.6-0.3,1.1-0.7,1.6-1.2c0.5-0.5,0.9-1,1.2-1.6c0.3-0.6,0.5-1.2,0.6-1.9c0.1-0.7,0.2-1.3,0.2-2
	c0-0.3,0-0.6,0-0.9c0-0.4,0-0.7,0-1.1V9.5C164.9,9.2,164.9,8.8,164.8,8.4z M164,30.5c0,0.4,0,0.7,0,1.1c0,0.3,0,0.6,0,0.9
	c0,0.6-0.1,1.2-0.2,1.9c-0.1,0.6-0.3,1.2-0.5,1.7c-0.3,0.5-0.6,1-1,1.4c-0.4,0.4-0.9,0.8-1.4,1c-0.5,0.3-1,0.4-1.7,0.5
	c-0.6,0.1-1.3,0.1-1.9,0.2c-0.3,0-0.6,0-0.9,0l-1.1,0l-146.9,0c-0.3,0-0.6,0-0.9,0c-0.6,0-1.2,0-1.9-0.2c-0.6-0.1-1.2-0.3-1.7-0.5
	c-0.5-0.3-1-0.6-1.4-1c-0.4-0.4-0.8-0.9-1-1.4c-0.3-0.5-0.4-1-0.5-1.7c-0.1-0.7-0.2-1.4-0.2-1.9c0-0.2,0-0.9,0-0.9V8.4
	c0,0,0-0.7,0-0.9c0-0.5,0-1.2,0.2-1.9C1.2,5.1,1.3,4.5,1.6,4c0.3-0.5,0.6-1,1-1.4C3,2.2,3.5,1.9,4,1.6c0.5-0.3,1.1-0.4,1.7-0.5
	C6.3,0.9,7,0.9,7.5,0.9l0.9,0h148l0.9,0c0.5,0,1.2,0,1.9,0.2c0.6,0.1,1.1,0.3,1.7,0.5c0.5,0.3,1,0.6,1.4,1c0.4,0.4,0.8,0.9,1,1.4
	c0.3,0.5,0.4,1.1,0.5,1.6c0.1,0.6,0.2,1.3,0.2,1.9c0,0.3,0,0.6,0,0.9c0,0.4,0,0.7,0,1.1V30.5z"/>
<path id="XMLID_660_" class="st1" d="M32.2,29.2c-0.2,0.6-0.8,1.5-1.6,2.1c-0.5,0.4-1,0.7-1.8,0.9c-0.8,0.2-1.8,0.3-3,0.3H14.4
	c-1.2,0-2.2-0.1-3-0.3c-0.8-0.2-1.3-0.6-1.8-0.9c-0.8-0.6-1.4-1.5-1.6-2.1c-0.5-1.3-0.5-2.7-0.5-3.6l0,0V14.3l0,0
	c0-0.9,0-2.3,0.5-3.6c0.2-0.6,0.8-1.5,1.6-2.1c0.5-0.4,1-0.7,1.8-0.9c0.8-0.2,1.8-0.3,3-0.3l0,0h11.3l0,0c1.2,0,2.2,0.1,3,0.3
	c0.8,0.2,1.3,0.6,1.8,0.9c0.8,0.6,1.4,1.5,1.6,2.1c0.5,1.3,0.5,2.7,0.5,3.6v11.3C32.7,26.6,32.7,28,32.2,29.2z"/>
<g>
	<path class="st0" d="M9.1,17.4c-0.9,0-1.6,0.7-1.6,1.6v1.7c0,0.9,0.7,1.6,1.6,1.6c0.9,0,1.6-0.7,1.6-1.6V19
		C10.7,18.1,10,17.4,9.1,17.4z"/>
	<path class="st0" d="M31.1,17.4c-0.9,0-1.6,0.7-1.6,1.6v1.7c0,0.9,0.7,1.6,1.6,1.6c0.9,0,1.6-0.7,1.6-1.6V19
		C32.7,18.1,32,17.4,31.1,17.4z"/>
	<path class="st0" d="M14.5,22.6c-0.9,0-1.6,0.7-1.6,1.6v1.7c0,0.9,0.7,1.6,1.6,1.6c0.9,0,1.6-0.7,1.6-1.6v-1.7
		C16.1,23.3,15.4,22.6,14.5,22.6z"/>
	<path class="st0" d="M14.5,12.2c-0.9,0-1.6,0.7-1.6,1.6v5.6h0c0,0.9,0.7,1.5,1.6,1.5c0.9,0,1.6-0.7,1.6-1.5h0v-5.6
		C16.1,13,15.4,12.2,14.5,12.2z"/>
	<path class="st0" d="M25.7,12.2c-0.9,0-1.6,0.7-1.6,1.6v1.7c0,0.9,0.7,1.6,1.6,1.6c0.9,0,1.6-0.7,1.6-1.6v-1.7
		C27.3,13,26.6,12.2,25.7,12.2z"/>
	<path class="st0" d="M20.1,7.2c-0.9,0-1.6,0.7-1.6,1.6v1.7c0,0.9,0.7,1.6,1.6,1.6c0.9,0,1.6-0.7,1.6-1.6V8.8
		C21.7,7.9,21,7.2,20.1,7.2z"/>
	<path class="st0" d="M20.1,27.6c-0.9,0-1.6,0.7-1.6,1.6v1.7c0,0.9,0.7,1.6,1.6,1.6c0.9,0,1.6-0.7,1.6-1.6v-1.7
		C21.7,28.3,21,27.6,20.1,27.6z"/>
	<path class="st0" d="M25.7,18.7c-0.9,0-1.6,0.7-1.6,1.6v5.6c0,0.9,0.7,1.6,1.6,1.6c0.9,0,1.6-0.7,1.6-1.6v-5.6
		C27.3,19.4,26.6,18.7,25.7,18.7z"/>
	<path class="st0" d="M20.1,13.7c-0.9,0-1.6,0.7-1.6,1.6v3.8v1.5v3.8c0,0.9,0.7,1.6,1.6,1.6c0.9,0,1.6-0.7,1.6-1.6v-3.8v-1.5v-3.8
		C21.7,14.4,21,13.7,20.1,13.7z"/>
</g>
<g id="Group" transform="translate(35.000000, 16.000000)">
	<path id="Podcasts" class="st2" d="M54.9,14.7h-1.3V4.5h3.5c0.9,0,1.6,0.3,2.2,0.9c0.6,0.6,0.9,1.3,0.9,2.2S60,9.1,59.4,9.7
		c-0.6,0.6-1.4,0.9-2.2,0.9h-2.2V14.7z M54.9,9.3h2.2c0.6,0,1-0.2,1.3-0.6C58.8,8.4,59,8,59,7.5s-0.2-0.9-0.5-1.2
		c-0.3-0.4-0.8-0.6-1.3-0.6h-2.2V9.3z M61.4,8.6c0.7-0.7,1.5-1.1,2.6-1.1s1.9,0.4,2.6,1.1c0.7,0.7,1,1.6,1,2.7c0,1.1-0.3,2-1,2.7
		c-0.7,0.7-1.5,1.1-2.6,1.1s-1.9-0.4-2.6-1.1c-0.7-0.7-1-1.6-1-2.7C60.4,10.2,60.7,9.3,61.4,8.6z M62.4,13.1c0.5,0.5,1,0.7,1.6,0.7
		c0.6,0,1.2-0.2,1.6-0.7s0.7-1.1,0.7-1.8c0-0.8-0.2-1.4-0.7-1.8c-0.5-0.5-1-0.7-1.6-0.7c-0.6,0-1.2,0.2-1.6,0.7
		c-0.5,0.5-0.7,1.1-0.7,1.8C61.7,12,61.9,12.6,62.4,13.1z M71.5,14.9c-0.9,0-1.7-0.4-2.3-1.1c-0.7-0.7-1-1.6-1-2.7s0.3-1.9,1-2.7
		s1.4-1.1,2.3-1.1c0.5,0,1,0.1,1.4,0.3s0.7,0.5,0.9,0.9H74l-0.1-1V4.5h1.3v10.2H74v-1h-0.1c-0.2,0.3-0.5,0.6-0.9,0.9
		C72.5,14.8,72,14.9,71.5,14.9z M71.7,13.7c0.6,0,1.1-0.2,1.6-0.7c0.4-0.5,0.6-1.1,0.6-1.8c0-0.8-0.2-1.4-0.6-1.8s-1-0.7-1.6-0.7
		c-0.6,0-1.1,0.2-1.6,0.7c-0.4,0.5-0.7,1.1-0.7,1.8c0,0.8,0.2,1.4,0.7,1.8C70.6,13.5,71.1,13.7,71.7,13.7z M79.8,14.9
		c-1,0-1.9-0.4-2.6-1.1c-0.7-0.7-1-1.6-1-2.7c0-1.1,0.3-2,1-2.7c0.7-0.7,1.5-1.1,2.6-1.1c0.8,0,1.4,0.2,1.9,0.6
		c0.5,0.4,0.9,0.9,1.1,1.4L81.6,10c-0.4-0.9-1-1.3-2-1.3c-0.6,0-1.1,0.2-1.5,0.7c-0.4,0.5-0.7,1.1-0.7,1.8s0.2,1.3,0.7,1.8
		s1,0.7,1.5,0.7c1,0,1.7-0.4,2-1.3l1.2,0.5c-0.2,0.6-0.6,1-1.1,1.4C81.2,14.8,80.5,14.9,79.8,14.9z M86,14.9c-0.7,0-1.4-0.2-1.9-0.6
		c-0.5-0.4-0.7-1-0.7-1.7c0-0.8,0.3-1.4,0.9-1.8c0.6-0.4,1.3-0.6,2.2-0.6c0.8,0,1.4,0.1,1.9,0.4v-0.2c0-0.5-0.2-0.9-0.5-1.2
		c-0.4-0.3-0.8-0.5-1.3-0.5c-0.4,0-0.7,0.1-1,0.3c-0.3,0.2-0.5,0.4-0.6,0.7l-1.2-0.5c0.2-0.4,0.5-0.8,1-1.2c0.5-0.4,1.1-0.5,1.9-0.5
		c0.9,0,1.6,0.3,2.2,0.8c0.6,0.5,0.9,1.3,0.9,2.2v4.2h-1.3v-1h-0.1C87.7,14.5,87,14.9,86,14.9z M86.2,13.7c0.5,0,1-0.2,1.5-0.6
		c0.4-0.4,0.7-0.9,0.7-1.4c-0.4-0.3-0.9-0.5-1.7-0.5c-0.6,0-1.1,0.1-1.4,0.4c-0.3,0.3-0.5,0.6-0.5,1c0,0.3,0.1,0.6,0.4,0.8
		C85.5,13.6,85.8,13.7,86.2,13.7z M93.4,14.9c-0.8,0-1.4-0.2-1.9-0.6C91,14,90.6,13.5,90.4,13l1.2-0.5c0.4,0.9,1,1.3,1.9,1.3
		c0.4,0,0.7-0.1,1-0.3c0.3-0.2,0.4-0.4,0.4-0.7c0-0.5-0.3-0.8-1-0.9l-1.4-0.3c-0.4-0.1-0.9-0.3-1.3-0.6c-0.4-0.3-0.6-0.7-0.6-1.3
		c0-0.6,0.3-1.1,0.8-1.5c0.5-0.4,1.2-0.6,1.9-0.6c0.6,0,1.2,0.1,1.7,0.4c0.5,0.3,0.8,0.7,1,1.2l-1.1,0.5c-0.3-0.6-0.8-0.9-1.6-0.9
		c-0.4,0-0.7,0.1-1,0.2c-0.3,0.2-0.4,0.4-0.4,0.7c0,0.4,0.3,0.7,0.9,0.8l1.4,0.3c0.7,0.2,1.1,0.4,1.5,0.8c0.3,0.4,0.5,0.8,0.5,1.3
		c0,0.6-0.3,1.2-0.8,1.6C94.9,14.7,94.2,14.9,93.4,14.9z M100.1,14.8c-0.7,0-1.3-0.2-1.7-0.6c-0.4-0.4-0.6-0.9-0.6-1.7V8.9h-1.2V7.7
		h1.2V5.6h1.3v2.1h1.7v1.2h-1.7v3.6c0,0.8,0.3,1.1,0.9,1.1c0.2,0,0.4,0,0.6-0.1l0.5,1.1C100.9,14.8,100.5,14.8,100.1,14.8z
		 M104.7,14.9c-0.8,0-1.4-0.2-1.9-0.6c-0.5-0.4-0.9-0.9-1.1-1.4l1.2-0.5c0.4,0.9,1,1.3,1.9,1.3c0.4,0,0.7-0.1,1-0.3
		c0.3-0.2,0.4-0.4,0.4-0.7c0-0.5-0.3-0.8-1-0.9l-1.4-0.3c-0.4-0.1-0.9-0.3-1.3-0.6c-0.4-0.3-0.6-0.7-0.6-1.3c0-0.6,0.3-1.1,0.8-1.5
		c0.5-0.4,1.2-0.6,1.9-0.6c0.6,0,1.2,0.1,1.7,0.4c0.5,0.3,0.8,0.7,1,1.2l-1.1,0.5c-0.3-0.6-0.8-0.9-1.6-0.9c-0.4,0-0.7,0.1-1,0.2
		c-0.3,0.2-0.4,0.4-0.4,0.7c0,0.4,0.3,0.7,0.9,0.8l1.4,0.3c0.7,0.2,1.1,0.4,1.5,0.8c0.3,0.4,0.5,0.8,0.5,1.3c0,0.6-0.3,1.2-0.8,1.6
		C106.2,14.7,105.5,14.9,104.7,14.9z"/>
	<path id="Combined-Shape" class="st0" d="M3.8,9.1c0-3.2,2.7-5.8,5.9-5.8c1.8,0,3.1,0.7,4,1.6L12.6,6C11.9,5.3,11,4.8,9.8,4.8
		c-2.4,0-4.2,1.9-4.2,4.2s1.8,4.2,4.2,4.2c1.5,0,2.4-0.6,3-1.2c0.5-0.5,0.8-1.1,0.9-2H9.8V8.6h5.4c0.1,0.3,0.1,0.6,0.1,1
		c0,1.2-0.3,2.7-1.4,3.7c-1,1.1-2.4,1.6-4.1,1.6C6.5,14.9,3.8,12.3,3.8,9.1z M19.5,7.5c2.1,0,3.8,1.6,3.8,3.8c0,2.2-1.7,3.8-3.8,3.8
		s-3.8-1.6-3.8-3.8C15.7,9.1,17.4,7.5,19.5,7.5z M19.5,13.5c1.1,0,2.1-0.9,2.1-2.3c0-1.4-1-2.3-2.1-2.3c-1.1,0-2.1,0.9-2.1,2.3
		C17.4,12.6,18.4,13.5,19.5,13.5z M27.8,7.5c2.1,0,3.8,1.6,3.8,3.8c0,2.2-1.7,3.8-3.8,3.8S24,13.4,24,11.2C24,9.1,25.7,7.5,27.8,7.5
		z M27.8,13.5c1.1,0,2.1-0.9,2.1-2.3c0-1.4-1-2.3-2.1-2.3s-2.1,0.9-2.1,2.3C25.6,12.6,26.6,13.5,27.8,13.5z M37.9,7.6h1.6v6.8
		c0,2.8-1.6,3.9-3.6,3.9c-1.8,0-2.9-1.2-3.3-2.2l1.4-0.6c0.3,0.6,0.9,1.3,1.9,1.3c1.2,0,2-0.8,2-2.2V14h-0.1c-0.4,0.5-1.1,0.9-2,0.9
		c-1.9,0-3.6-1.6-3.6-3.8c0-2.1,1.7-3.8,3.6-3.8c0.9,0,1.6,0.4,2,0.8h0.1V7.6z M36,13.4c1.1,0,2-0.9,2-2.3c0-1.3-0.9-2.3-2-2.3
		c-1.1,0-2.1,1-2.1,2.3C33.9,12.5,34.8,13.4,36,13.4z M40.6,14.8V3.7h1.6v11.1H40.6z M46.8,13.5c0.8,0,1.4-0.4,1.9-1l1.3,0.9
		c-0.4,0.6-1.4,1.7-3.1,1.7c-2.1,0-3.7-1.7-3.7-3.8c0-2.2,1.6-3.8,3.6-3.8c1.9,0,2.9,1.5,3.2,2.4l0.2,0.4l-5,2.1
		C45.3,13.1,45.9,13.5,46.8,13.5z M46.6,8.9c-0.8,0-2,0.7-2,2.2L48,9.7C47.8,9.2,47.3,8.9,46.6,8.9z"/>
</g>
<path id="Listen-on" class="st2" d="M40.3,14.5h3.5v0.8h-4.4V7.9h1V14.5z M46,15.3h-0.9V9.8H46V15.3z M45,8.4c0-0.2,0-0.3,0.1-0.4
	c0.1-0.1,0.2-0.2,0.4-0.2c0.2,0,0.3,0.1,0.4,0.2c0.1,0.1,0.1,0.2,0.1,0.4c0,0.2,0,0.3-0.1,0.4c-0.1,0.1-0.2,0.2-0.4,0.2
	c-0.2,0-0.3-0.1-0.4-0.2C45,8.6,45,8.5,45,8.4z M50.9,13.8c0-0.3-0.1-0.4-0.3-0.6c-0.2-0.1-0.5-0.3-1-0.4c-0.5-0.1-0.8-0.2-1.1-0.4
	c-0.3-0.1-0.5-0.3-0.6-0.5c-0.1-0.2-0.2-0.4-0.2-0.7c0-0.4,0.2-0.8,0.6-1.1s0.9-0.5,1.4-0.5c0.6,0,1.1,0.2,1.5,0.5
	c0.4,0.3,0.6,0.7,0.6,1.2h-0.9c0-0.3-0.1-0.5-0.3-0.7s-0.5-0.3-0.8-0.3c-0.3,0-0.6,0.1-0.8,0.2c-0.2,0.1-0.3,0.3-0.3,0.6
	c0,0.2,0.1,0.4,0.3,0.5c0.2,0.1,0.5,0.2,1,0.3c0.5,0.1,0.8,0.2,1.1,0.4c0.3,0.1,0.5,0.3,0.6,0.5s0.2,0.5,0.2,0.7
	c0,0.5-0.2,0.9-0.6,1.2c-0.4,0.3-0.9,0.4-1.5,0.4c-0.4,0-0.8-0.1-1.2-0.2c-0.3-0.2-0.6-0.4-0.8-0.6c-0.2-0.3-0.3-0.6-0.3-0.9h0.9
	c0,0.3,0.1,0.6,0.4,0.7c0.2,0.2,0.5,0.3,0.9,0.3c0.4,0,0.6-0.1,0.8-0.2C50.8,14.2,50.9,14,50.9,13.8z M54.6,8.5v1.3h1v0.7h-1v3.4
	c0,0.2,0,0.4,0.1,0.5c0.1,0.1,0.2,0.2,0.5,0.2c0.1,0,0.3,0,0.4-0.1v0.8c-0.2,0.1-0.5,0.1-0.7,0.1c-0.4,0-0.7-0.1-0.9-0.4
	s-0.3-0.6-0.3-1.1v-3.4h-1V9.8h1V8.5H54.6z M59.2,15.4c-0.7,0-1.3-0.2-1.8-0.7c-0.5-0.5-0.7-1.1-0.7-1.9v-0.2c0-0.5,0.1-1,0.3-1.4
	c0.2-0.4,0.5-0.8,0.9-1c0.4-0.2,0.8-0.4,1.2-0.4c0.7,0,1.3,0.2,1.7,0.7s0.6,1.1,0.6,2v0.4h-3.7c0,0.5,0.2,1,0.5,1.3
	c0.3,0.3,0.7,0.5,1.1,0.5c0.3,0,0.6-0.1,0.8-0.2c0.2-0.1,0.4-0.3,0.6-0.5l0.6,0.4C60.8,15,60.1,15.4,59.2,15.4z M59.1,10.5
	c-0.4,0-0.7,0.1-0.9,0.4c-0.3,0.3-0.4,0.7-0.5,1.2h2.7V12c0-0.5-0.2-0.8-0.4-1.1C59.8,10.6,59.5,10.5,59.1,10.5z M63.6,9.8l0,0.7
	c0.4-0.5,1-0.8,1.6-0.8c1.2,0,1.7,0.6,1.7,1.9v3.6H66v-3.6c0-0.4-0.1-0.7-0.3-0.9c-0.2-0.2-0.5-0.3-0.8-0.3c-0.3,0-0.6,0.1-0.8,0.2
	c-0.2,0.2-0.4,0.4-0.5,0.6v3.9h-0.9V9.8H63.6z M71.2,12.5c0-0.5,0.1-1,0.3-1.4c0.2-0.4,0.5-0.8,0.9-1c0.4-0.2,0.8-0.3,1.3-0.3
	c0.7,0,1.3,0.3,1.8,0.8c0.5,0.5,0.7,1.2,0.7,2v0.1c0,0.5-0.1,1-0.3,1.4c-0.2,0.4-0.5,0.7-0.9,1c-0.4,0.2-0.8,0.4-1.3,0.4
	c-0.7,0-1.3-0.3-1.8-0.8C71.4,14.1,71.2,13.4,71.2,12.5L71.2,12.5z M72.1,12.6c0,0.6,0.1,1.1,0.4,1.5s0.7,0.5,1.1,0.5
	c0.5,0,0.8-0.2,1.1-0.6c0.3-0.4,0.4-0.9,0.4-1.6c0-0.6-0.1-1.1-0.4-1.5c-0.3-0.4-0.7-0.6-1.1-0.6c-0.5,0-0.8,0.2-1.1,0.5
	C72.3,11.4,72.1,11.9,72.1,12.6z M78.4,9.8l0,0.7c0.4-0.5,1-0.8,1.6-0.8c1.2,0,1.7,0.6,1.7,1.9v3.6h-0.9v-3.6c0-0.4-0.1-0.7-0.3-0.9
	c-0.2-0.2-0.5-0.3-0.8-0.3c-0.3,0-0.6,0.1-0.8,0.2c-0.2,0.2-0.4,0.4-0.5,0.6v3.9h-0.9V9.8H78.4z"/>
</svg>
