<?xml version="1.0" encoding="utf-8"?>
<!-- Generator: Adobe Illustrator 23.0.2, SVG Export Plug-In . SVG Version: 6.00 Build 0)  -->
<svg version="1.1" id="Layer_1" xmlns="http://www.w3.org/2000/svg" xmlns:xlink="http://www.w3.org/1999/xlink" x="0px" y="0px"
	 viewBox="0 0 64.8 64.8" enable-background="new 0 0 64.8 64.8" xml:space="preserve">
<g>
	<path fill="#F6F6F6" d="M50.4,59.4h-28l-10-10v-40c0-1.1,0.9-2,2-2h36c1.1,0,2,0.9,2,2v48C52.4,58.5,51.5,59.4,50.4,59.4z"/>
</g>
<g>
	<rect x="16.62" y="14.71" fill="#70CFEF" width="7.48" height="7.48"/>
	<rect x="16.62" y="26.66" fill="#70CFEF" width="7.48" height="7.48"/>
	<rect x="16.62" y="38.66" fill="#70CFEF" width="7.48" height="7.48"/>
</g>
<g>
	<path fill="#888888" d="M22.4,59.4v-8c0-1.1-0.9-2-2-2h-8L22.4,59.4z"/>
</g>
<g>
	<path fill="#F6EDCC" d="M41.4,3.4v2c0,1.1-0.9,2-2,2h-14c-1.1,0-2-0.9-2-2v-2H41.4z"/>
</g>
<g>
	<path fill="#F6EDCC" d="M56.4,3.4v60h-48v-60h11v4h-5c-1.1,0-2,0.9-2,2v40l10,10h28c1.1,0,2-0.9,2-2v-48c0-1.1-0.9-2-2-2h-5v-4
		H56.4z"/>
</g>
<g>
	<path fill="#F05822" d="M45.4,3.4v4c0,2.21-1.79,4-4,4h-18c-2.21,0-4-1.79-4-4v-4c0-0.53,0.21-1.04,0.59-1.41
		c0.37-0.38,0.88-0.59,1.41-0.59c1.1,0,2,0.9,2,2v2c0,1.1,0.9,2,2,2h14c1.1,0,2-0.9,2-2v-2c0-0.53,0.21-1.04,0.59-1.41
		c0.37-0.38,0.88-0.59,1.41-0.59C44.5,1.4,45.4,2.3,45.4,3.4z"/>
</g>
<g>
	<path fill="#303030" d="M41.4,12.4h-18c-2.76,0-5-2.24-5-5v-4c0-0.79,0.32-1.57,0.89-2.13c0.54-0.55,1.31-0.87,2.1-0.87
		c0,0,0.01,0,0.02,0c1.65,0,2.99,1.35,2.99,3v2c0,0.55,0.45,1,1,1h14c0.55,0,1-0.45,1-1v-2c0-0.8,0.32-1.57,0.89-2.13
		c0.54-0.55,1.31-0.87,2.1-0.87c0,0,0.01,0,0.02,0c1.65,0,2.99,1.35,2.99,3v4C46.4,10.16,44.16,12.4,41.4,12.4z M21.39,2.4
		c-0.26,0-0.51,0.1-0.69,0.29c-0.2,0.2-0.31,0.45-0.31,0.71V7.4c0,1.65,1.35,3,3,3h18c1.65,0,3-1.35,3-3v-4c0-0.55-0.45-1-1-1
		c0,0,0,0-0.01,0c-0.26,0-0.51,0.1-0.69,0.29c-0.2,0.2-0.31,0.45-0.31,0.71c0,0,0,0,0,0.01v2c0,1.65-1.35,3-3,3h-14
		c-1.65,0-3-1.35-3-3v-2C22.4,2.85,21.95,2.4,21.39,2.4C21.4,2.4,21.39,2.4,21.39,2.4z"/>
</g>
<g>
	<rect x="23.4" y="2.4" fill="#303030" width="18" height="2"/>
</g>
<g>
	<path fill="#303030" d="M56.4,64.4h-48c-0.55,0-1-0.45-1-1v-60c0-0.55,0.45-1,1-1h11v2h-10v58h46v-58h-10v-2h11c0.55,0,1,0.45,1,1
		v60C57.4,63.95,56.95,64.4,56.4,64.4z"/>
</g>
<g>
	<path fill="#303030" d="M50.4,60.4h-28c-0.27,0-0.52-0.11-0.71-0.29l-10-10c-0.19-0.19-0.29-0.44-0.29-0.71v-40c0-1.65,1.35-3,3-3
		h5v2h-5c-0.55,0-1,0.45-1,1v39.58l9.41,9.41H50.4c0.55,0,1-0.45,1-1v-48c0-0.55-0.45-1-1-1h-5v-2h5c1.65,0,3,1.35,3,3v48
		C53.4,59.05,52.05,60.4,50.4,60.4z"/>
</g>
<g>
	<path fill="#303030" d="M23.4,59.4h-2v-8c0-0.55-0.45-1-1-1h-8v-2h8c1.65,0,3,1.35,3,3V59.4z"/>
</g>
<g>
	<path fill="#303030" d="M24.4,23.4h-8c-0.55,0-1-0.45-1-1v-8c0-0.55,0.45-1,1-1h8c0.55,0,1,0.45,1,1v8
		C25.4,22.95,24.95,23.4,24.4,23.4z M17.4,21.4h6v-6h-6V21.4z"/>
</g>
<g>
	<path fill="#303030" d="M24.4,35.4h-8c-0.55,0-1-0.45-1-1v-8c0-0.55,0.45-1,1-1h8c0.55,0,1,0.45,1,1v8
		C25.4,34.95,24.95,35.4,24.4,35.4z M17.4,33.4h6v-6h-6V33.4z"/>
</g>
<g>
	<path fill="#303030" d="M24.4,47.4h-8c-0.55,0-1-0.45-1-1v-8c0-0.55,0.45-1,1-1h8c0.55,0,1,0.45,1,1v8
		C25.4,46.95,24.95,47.4,24.4,47.4z M17.4,45.4h6v-6h-6V45.4z"/>
</g>
<g>
	<rect x="27.4" y="15.4" fill="#303030" width="22" height="2"/>
</g>
<g>
	<rect x="27.4" y="19.4" fill="#303030" width="22" height="2"/>
</g>
<g>
	<rect x="27.4" y="27.4" fill="#303030" width="22" height="2"/>
</g>
<g>
	<rect x="27.4" y="31.4" fill="#303030" width="22" height="2"/>
</g>
<g>
	<rect x="27.4" y="39.4" fill="#303030" width="22" height="2"/>
</g>
<g>
	<rect x="27.4" y="43.4" fill="#303030" width="22" height="2"/>
</g>
<g>
	<rect x="46.4" y="54.4" fill="#303030" width="2" height="2"/>
</g>
<g>
	<rect x="42.4" y="54.4" fill="#303030" width="2" height="2"/>
</g>
<g>
	<rect x="38.4" y="54.4" fill="#303030" width="2" height="2"/>
</g>
</svg>
