<?xml version="1.0" encoding="utf-8"?>
<!-- Generator: Adobe Illustrator 23.0.2, SVG Export Plug-In . SVG Version: 6.00 Build 0)  -->
<svg version="1.1" id="Layer_1" xmlns="http://www.w3.org/2000/svg" xmlns:xlink="http://www.w3.org/1999/xlink" x="0px" y="0px"
	 viewBox="0 0 64.8 64.8" enable-background="new 0 0 64.8 64.8" xml:space="preserve">
<g id="_19_-Protest">
	<g>
		<polygon fill="#F05822" points="33.4,3.4 33.4,27.4 49.4,27.4 49.4,33.4 55.4,27.4 63.4,27.4 63.4,3.4 		"/>
	</g>
	<g>
		<polygon fill="#70CDEF" points="1.4,6.4 1.4,22.4 13.4,22.4 18.4,27.4 18.4,22.4 33.4,22.4 33.4,6.4 		"/>
	</g>
	<g>
		<polygon fill="#70CDEF" points="60.4,60.4 60.4,61.4 58.4,61.4 48.4,61.4 46.4,61.4 46.4,57.4 48.4,57.4 58.4,57.4 60.4,57.4 		
			"/>
	</g>
	<g>
		<polygon fill="#F05822" points="23.4,52.4 23.4,44.4 25.4,44.4 39.4,44.4 41.4,44.4 41.4,48.4 41.4,52.4 39.4,52.4 25.4,52.4 		
			"/>
	</g>
	<g>
		<polygon fill="#70CDEF" points="16.4,55.4 6.4,55.4 4.4,55.4 4.4,49.4 6.4,49.4 16.4,49.4 18.4,49.4 18.4,52.4 18.4,55.4 		"/>
	</g>
	<g>
		<path fill="#F6EDCC" d="M58.9,39.4c-0.83,0-1.5,0.67-1.5,1.5v-2c0-0.83-0.67-1.5-1.5-1.5s-1.5,0.67-1.5,1.5v-2
			c0-0.83-0.67-1.5-1.5-1.5s-1.5,0.67-1.5,1.5v2c0-0.83-0.67-1.5-1.5-1.5s-1.5,0.67-1.5,1.5v6.19c-0.58-0.43-1.28-0.67-2-0.69v9l2,2
			v2h10v-2l2-2V40.9C60.4,40.07,59.73,39.4,58.9,39.4z"/>
	</g>
	<g>
		<path fill="#F6EDCC" d="M16.9,31.4c-0.83,0-1.5,0.67-1.5,1.5l0,0v-2c0-0.83-0.67-1.5-1.5-1.5s-1.5,0.67-1.5,1.5v-2
			c0-0.83-0.67-1.5-1.5-1.5s-1.5,0.67-1.5,1.5v2c0-0.83-0.67-1.5-1.5-1.5s-1.5,0.67-1.5,1.5v6.19c-0.58-0.43-1.28-0.67-2-0.69v9l2,2
			v2h10v-2l2-2V32.9C18.4,32.07,17.73,31.4,16.9,31.4L16.9,31.4z"/>
	</g>
	<g>
		<path fill="#F6EDCC" d="M40.81,19.99c-0.37-0.38-0.88-0.59-1.41-0.59c-1.1,0-2,0.89-2,1.99c0,0,0,0.01,0,0.01v-1
			c-0.01-1.1-0.9-1.99-2-2c-1.1,0-2,0.89-2,1.99c0,0,0,0.01,0,0.01v-2c-0.01-1.1-0.9-1.99-2-2c-1.1,0-2,0.89-2,1.99
			c0,0,0,0.01,0,0.01v1.92c-0.05-1.07-0.93-1.91-2-1.92c-1.1,0-2,0.9-2,2v7.5c-0.62-0.3-1.31-0.47-2-0.5v12l2,2v3h14v-3l2-2v-18
			C41.4,20.87,41.19,20.36,40.81,19.99z"/>
	</g>
	<g>
		<rect x="25.4" y="52.4" fill="#F6F6F6" width="14" height="9.88"/>
	</g>
	<g>
		<rect x="6.4" y="55.4" fill="#F6F6F6" width="10" height="6.88"/>
	</g>
	<g>
		<path fill="#303030" d="M58.9,38.4c-0.19,0-0.37,0.02-0.54,0.06c-0.21-1.17-1.23-2.06-2.46-2.06c-0.19,0-0.37,0.02-0.54,0.06
			c-0.21-1.17-1.23-2.06-2.46-2.06s-2.25,0.89-2.46,2.06c-0.18-0.04-0.36-0.06-0.54-0.06c-1.38,0-2.5,1.12-2.5,2.5v4.62
			c-0.28-0.07-0.56-0.11-0.85-0.12h-0.17c-0.54,0.01-0.98,0.46-0.98,1v9c0,0.27,0.11,0.52,0.29,0.71l1.71,1.71v0.59h-1
			c-0.55,0-1,0.45-1,1v4c0,0.55,0.45,1,1,1h14c0.55,0,1-0.45,1-1v-4c0-0.55-0.45-1-1-1h-1v-0.59l1.71-1.71
			c0.19-0.19,0.29-0.44,0.29-0.71V40.9C61.4,39.52,60.28,38.4,58.9,38.4z M59.4,60.4h-12v-2h12V60.4z M59.4,52.99l-1.71,1.71
			c-0.19,0.19-0.29,0.44-0.29,0.71v1h-8v-1c0-0.27-0.11-0.52-0.29-0.71l-1.71-1.71v-7.35c0.17,0.09,0.32,0.21,0.46,0.36
			c0.36,0.37,0.55,0.86,0.54,1.4v2c0,0.27,0.11,0.52,0.29,0.71l1.71,1.71v1.59h2v-2c0-0.27-0.11-0.52-0.29-0.71l-1.71-1.71V48.4h8
			v-2h-8.13c-0.15-0.61-0.44-1.18-0.87-1.67V38.9c0-0.28,0.22-0.5,0.5-0.5s0.5,0.22,0.5,0.5v2.5v2h2v-2v-2.5v-2
			c0-0.28,0.22-0.5,0.5-0.5s0.5,0.22,0.5,0.5v2v2.5v2h2v-2v-2.5c0-0.28,0.22-0.5,0.5-0.5s0.5,0.22,0.5,0.5v2v2.5h2v-2.5
			c0-0.28,0.22-0.5,0.5-0.5s0.5,0.22,0.5,0.5V52.99z"/>
		<path fill="#303030" d="M16.9,30.4c-0.19,0-0.37,0.02-0.54,0.06c-0.21-1.17-1.23-2.06-2.46-2.06c-0.19,0-0.37,0.02-0.54,0.06
			c-0.21-1.17-1.23-2.06-2.46-2.06s-2.25,0.89-2.46,2.06C8.27,28.42,8.09,28.4,7.9,28.4c-1.38,0-2.5,1.12-2.5,2.5v4.62
			c-0.28-0.07-0.56-0.11-0.85-0.12H4.38c-0.54,0.01-0.98,0.46-0.98,1v9c0,0.27,0.11,0.52,0.29,0.71l1.71,1.71v0.59h-1
			c-0.55,0-1,0.45-1,1v6c0,0.55,0.45,1,1,1h1v5.88h2V56.4h8v5.88h2V56.4h1c0.55,0,1-0.45,1-1v-6c0-0.55-0.45-1-1-1h-1v-0.59
			l1.71-1.71c0.19-0.19,0.29-0.44,0.29-0.71V32.9C19.4,31.52,18.28,30.4,16.9,30.4z M17.4,54.4h-12v-4h12V54.4z M17.4,44.99
			l-1.71,1.71c-0.19,0.19-0.29,0.44-0.29,0.71v1h-8v-1c0-0.27-0.11-0.52-0.29-0.71L5.4,44.99v-7.35c0.17,0.09,0.32,0.21,0.46,0.36
			c0.36,0.37,0.55,0.86,0.54,1.4v2c0,0.27,0.11,0.52,0.29,0.71l1.71,1.71v1.59h2v-2c0-0.27-0.11-0.52-0.29-0.71L8.4,40.99V40.4h8v-2
			H8.27c-0.15-0.61-0.44-1.18-0.87-1.67V30.9c0-0.28,0.22-0.5,0.5-0.5c0.28,0,0.5,0.22,0.5,0.5v2.5v2h2v-2v-2.5v-2
			c0-0.28,0.22-0.5,0.5-0.5s0.5,0.22,0.5,0.5v2v2.5v2h2v-2v-2.5c0-0.28,0.22-0.5,0.5-0.5s0.5,0.22,0.5,0.5v2v2.5h2v-2.5
			c0-0.28,0.22-0.5,0.5-0.5s0.5,0.22,0.5,0.5V44.99z"/>
		<path fill="#303030" d="M39.4,18.4c-0.54,0-1.03,0.15-1.47,0.4c-0.53-0.84-1.46-1.4-2.53-1.4c-0.39,0-0.77,0.08-1.12,0.22
			c-0.35-1.27-1.5-2.22-2.88-2.22c-1.38,0-2.54,0.95-2.88,2.22c-0.35-0.14-0.72-0.22-1.12-0.22c-1.65,0-3,1.35-3,3v6.1
			c-0.36-0.07-0.7-0.1-1-0.1c-0.55,0-1,0.45-1,1v12c0,0.27,0.11,0.52,0.29,0.71l1.71,1.71v1.59h-1c-0.55,0-1,0.45-1,1v8
			c0,0.55,0.45,1,1,1h1v8.88h2V53.4h12v8.88h2V53.4h1c0.55,0,1-0.45,1-1v-8c0-0.55-0.45-1-1-1h-1v-1.59l1.71-1.71
			c0.19-0.19,0.29-0.44,0.29-0.71v-18C42.4,19.75,41.05,18.4,39.4,18.4z M40.4,51.4h-16v-6h16V51.4z M40.4,38.99l-1.71,1.71
			c-0.19,0.19-0.29,0.44-0.29,0.71v2h-12v-2c0-0.27-0.11-0.52-0.29-0.71l-1.71-1.71V28.55c0.89,0.26,2,0.97,2,2.85v2
			c0,0.35,0.18,0.68,0.49,0.86l4.51,2.71v3.43h2v-4c0-0.35-0.18-0.68-0.49-0.86l-4.51-2.71V31.4h10v-2H28.06
			c-0.36-0.95-0.97-1.62-1.66-2.08V20.4c0-0.55,0.45-1,1-1c0.54,0,0.98,0.44,1,0.98l-0.01,3.02h0.01v2h2v-5c0-0.01,0-0.03,0-0.04
			l0-1.96c0-0.55,0.45-1,1-1s1,0.45,1,1v2l-0.01,5l2,0l0-2h0.01v-3c0-0.55,0.45-1,1-1s1,0.45,1,1v1l-0.01,4h0.01v0h0.99l1,0v0h0.01
			v-4c0-0.55,0.45-1,1-1s1,0.45,1,1V38.99z"/>
		<path fill="#303030" d="M63.4,2.4h-30c-0.55,0-1,0.45-1,1v11h2v-10h28v22h-7c-0.27,0-0.52,0.11-0.71,0.29l-4.29,4.29V27.4
			c0-0.55-0.45-1-1-1h-5v2h4v5c0,0.4,0.24,0.77,0.62,0.92c0.12,0.05,0.25,0.08,0.38,0.08c0.26,0,0.52-0.1,0.71-0.29l5.71-5.71h7.59
			c0.55,0,1-0.45,1-1v-24C64.4,2.85,63.95,2.4,63.4,2.4z"/>
		<path fill="#303030" d="M22.4,21.4h-4c-0.55,0-1,0.45-1,1v2.59l-3.29-3.29c-0.19-0.19-0.44-0.29-0.71-0.29h-11v-14h28v-2h-29
			c-0.55,0-1,0.45-1,1v16c0,0.55,0.45,1,1,1h11.59l4.71,4.71c0.19,0.19,0.45,0.29,0.71,0.29c0.13,0,0.26-0.02,0.38-0.08
			c0.37-0.15,0.62-0.52,0.62-0.92v-4h3V21.4z"/>
		<rect x="10.4" y="9.4" fill="#303030" width="20" height="2"/>
		<rect x="4.4" y="13.4" fill="#303030" width="26" height="2"/>
		<rect x="4.4" y="17.4" fill="#303030" width="18" height="2"/>
		<rect x="6.4" y="9.4" fill="#303030" width="2" height="2"/>
	</g>
</g>
</svg>
