<?xml version="1.0" encoding="utf-8"?>
<!-- Generator: Adobe Illustrator 23.0.2, SVG Export Plug-In . SVG Version: 6.00 Build 0)  -->
<svg version="1.1" id="Layer_1" xmlns="http://www.w3.org/2000/svg" xmlns:xlink="http://www.w3.org/1999/xlink" x="0px" y="0px"
	 viewBox="0 0 64.8 64.8" enable-background="new 0 0 64.8 64.8" xml:space="preserve">
<g id="_08-research">
	<g>
		<path fill="#F6EDCC" d="M63.4,5.4v50h-28v-4h15l8-8v-38H63.4z"/>
	</g>
	<g>
		<path fill="#888888" d="M50.4,43.4h8l-8,8V43.4z"/>
	</g>
	<g>
		<path fill="#F05822" d="M32.4,11.4c8.84-0.01,16.01,7.14,16.02,15.98c0.01,8.09-6.02,14.92-14.04,15.9
			c-1.32,0.16-2.64,0.16-3.96,0c-8.77-1.08-15-9.07-13.92-17.84C17.48,17.42,24.31,11.39,32.4,11.4z M44.4,27.4
			c0-6.63-5.37-12-12-12s-12,5.37-12,12s5.37,12,12,12S44.4,34.03,44.4,27.4z"/>
	</g>
	<g>
		<circle fill="#70CFEF" cx="32.4" cy="27.4" r="12"/>
	</g>
	<g>
		<polygon fill="#888888" points="36.4,47.4 36.4,51.4 35.4,51.4 29.4,51.4 28.4,51.4 28.4,47.4 30.4,47.4 34.4,47.4 		"/>
	</g>
	<g>
		<path fill="#CCCCCC" d="M35.4,55.4v3c0,1.66-1.34,3-3,3s-3-1.34-3-3l0,0v-7h6V55.4z"/>
	</g>
	<g>
		<path fill="#CCCCCC" d="M34.4,43.4v4h-4v-4l0.02-0.12c1.32,0.16,2.64,0.16,3.96,0L34.4,43.4z"/>
	</g>
	<g>
		<polygon fill="#F6EDCC" points="29.4,51.4 29.4,55.4 1.4,55.4 1.4,5.4 6.4,5.4 6.4,51.4 28.4,51.4 		"/>
	</g>
	<g>
		<rect x="9.4" y="14.4" fill="#303030" width="5" height="2"/>
		<rect x="9.4" y="10.4" fill="#303030" width="5" height="2"/>
		<rect x="9.4" y="6.4" fill="#303030" width="5" height="2"/>
		<rect x="50.4" y="14.4" fill="#303030" width="5" height="2"/>
		<rect x="50.4" y="10.4" fill="#303030" width="5" height="2"/>
		<rect x="50.4" y="6.4" fill="#303030" width="5" height="2"/>
		<rect x="53.4" y="18.4" fill="#303030" width="2" height="2"/>
		<rect x="9.4" y="18.4" fill="#303030" width="2" height="2"/>
		<rect x="9.4" y="46.4" fill="#303030" width="2" height="2"/>
		<rect x="13.4" y="46.4" fill="#303030" width="2" height="2"/>
		<rect x="17.4" y="46.4" fill="#303030" width="2" height="2"/>
		<rect x="21.4" y="46.4" fill="#303030" width="4" height="2"/>
		<rect x="9.4" y="42.4" fill="#303030" width="12" height="2"/>
		<path fill="#303030" d="M19.4,27.4c0,7.17,5.83,13,13,13s13-5.83,13-13s-5.83-13-13-13S19.4,20.23,19.4,27.4z M43.4,27.4
			c0,6.07-4.93,11-11,11s-11-4.93-11-11s4.93-11,11-11S43.4,21.33,43.4,27.4z"/>
		<path fill="#303030" d="M32.4,20.4c3.86,0,7,3.14,7,7h2c0-4.96-4.04-9-9-9V20.4z"/>
		<path fill="#303030" d="M63.4,4.4h-4v-1c0-0.55-0.45-1-1-1h-22c-0.27,0-0.52,0.11-0.71,0.29L32.4,5.99l-3.29-3.29
			C28.92,2.51,28.67,2.4,28.4,2.4h-22c-0.55,0-1,0.45-1,1v1h-4c-0.55,0-1,0.45-1,1v50c0,0.55,0.45,1,1,1h25v-2h-24v-48h3v45
			c0,0.55,0.45,1,1,1h19v-2h-18v-46h20.59l3.41,3.41v2.64c-8.91,0.52-16,7.91-16,16.95c0,8.35,6.05,15.3,14,16.72v2.28h-1
			c-0.55,0-1,0.45-1,1v4c0,0.55,0.45,1,1,1v6c0,2.21,1.79,4,4,4s4-1.79,4-4v-6c0.55,0,1-0.45,1-1v-4c0-0.55-0.45-1-1-1h-1v-2.28
			c7.95-1.42,14-8.37,14-16.72c0-9.04-7.09-16.43-16-16.95V7.81l3.41-3.41H57.4v38h-7c-0.55,0-1,0.45-1,1v7h-10v2h11
			c0.27,0,0.52-0.11,0.71-0.29l8-8c0.19-0.19,0.29-0.44,0.29-0.71v-37h3v48h-24v2h25c0.55,0,1-0.45,1-1v-50
			C64.4,4.85,63.95,4.4,63.4,4.4z M34.4,58.4c0,1.1-0.9,2-2,2c-1.1,0-2-0.9-2-2v-6h4V58.4z M35.4,50.4h-6v-2h6V50.4z M31.4,46.4
			v-2.05c0.33,0.02,0.66,0.05,1,0.05s0.67-0.03,1-0.05v2.05H31.4z M47.4,27.4c0,8.27-6.73,15-15,15s-15-6.73-15-15s6.73-15,15-15
			S47.4,19.13,47.4,27.4z M51.4,48.99V44.4h4.59L51.4,48.99z"/>
	</g>
</g>
</svg>
