<svg xmlns="http://www.w3.org/2000/svg" viewBox="0 0 64 64"><path d="M32 31c6.6 0 12-5.4 12-12S38.6 7 32 7s-12 5.4-12 12 5.4 12 12 12zm-5.5-15c0-3 2.5-5.5 5.5-5.5s5.5 2.5 5.5 5.5c0 2.2-1.3 4-3.1 4.9 2.2.8 4.1 2.5 4.1 4.8 0 2.1-3.4 3.4-6.5 3.4s-6.5-1.3-6.5-3.4c0-2.3 1.9-4 4.1-4.8-1.8-.9-3.1-2.7-3.1-4.9z"/><path d="M32 0C14.3 0 0 14.3 0 32s14.3 32 32 32 32-14.3 32-32S49.7 0 32 0zm0 5c7.7 0 14 6.3 14 14s-6.3 14-14 14-14-6.3-14-14S24.3 5 32 5zM16 37h32v4H16v-4zm29 18H19v-4h26v4zm5-7H14v-4h36v4z"/></svg>