<?xml version="1.0" encoding="utf-8"?>
<svg version="1.1" id="Layer_1" xmlns="http://www.w3.org/2000/svg" xmlns:xlink="http://www.w3.org/1999/xlink" x="0px" y="0px" viewBox="0 0 165 40" style="enable-background:new 0 0 165 40;" xml:space="preserve">
<style type="text/css">
.st0{fill:#fff;}
.st1{fill-rule:evenodd;clip-rule:evenodd;fill:#fff;}
</style>
<path class="st0" d="M164.8,8.4c0-0.3,0-0.6,0-0.9c0-0.7-0.1-1.3-0.2-2c-0.1-0.7-0.3-1.3-0.6-1.9c-0.3-0.6-0.7-1.1-1.2-1.6
	c-0.5-0.5-1-0.9-1.6-1.2c-0.6-0.3-1.2-0.5-1.9-0.6c-0.7-0.1-1.3-0.2-2-0.2c-0.3,0-0.6,0-0.9,0c-0.4,0-0.7,0-1.1,0H9.5
	C9.2,0,8.8,0,8.4,0C8.1,0,7.8,0,7.5,0c-0.7,0-1.3,0.1-2,0.2C4.8,0.3,4.2,0.5,3.6,0.8C3,1.1,2.5,1.5,2,2C1.5,2.5,1.1,3,0.8,3.6
	C0.5,4.2,0.3,4.9,0.2,5.5C0.1,6.2,0,6.9,0,7.5c0,0.3,0,0.6,0,0.9c0,0.4,0,0.7,0,1.1v20.9c0,0.4,0,0.7,0,1.1c0,0.3,0,0.6,0,0.9
	c0,0.7,0.1,1.3,0.2,2c0.1,0.7,0.3,1.3,0.6,1.9C1.1,37,1.5,37.5,2,38c0.5,0.5,1,0.9,1.6,1.2c0.6,0.3,1.2,0.5,1.9,0.6
	c0.7,0.1,1.3,0.2,2,0.2c0.3,0,0.6,0,0.9,0c0.4,0,0.7,0,1.1,0h145.8c0.4,0,0.7,0,1.1,0c0.3,0,0.6,0,0.9,0c0.7,0,1.3-0.1,2-0.2
	c0.7-0.1,1.3-0.3,1.9-0.6c0.6-0.3,1.1-0.7,1.6-1.2c0.5-0.5,0.9-1,1.2-1.6c0.3-0.6,0.5-1.2,0.6-1.9c0.1-0.7,0.2-1.3,0.2-2
	c0-0.3,0-0.6,0-0.9c0-0.4,0-0.7,0-1.1V9.5C164.9,9.2,164.9,8.8,164.8,8.4z M164,30.5c0,0.4,0,0.7,0,1.1c0,0.3,0,0.6,0,0.9
	c0,0.6-0.1,1.2-0.2,1.9c-0.1,0.6-0.3,1.2-0.5,1.7c-0.3,0.5-0.6,1-1,1.4c-0.4,0.4-0.9,0.8-1.4,1c-0.5,0.3-1,0.4-1.7,0.5
	c-0.6,0.1-1.3,0.1-1.9,0.2c-0.3,0-0.6,0-0.9,0l-1.1,0l-146.9,0c-0.3,0-0.6,0-0.9,0c-0.6,0-1.2,0-1.9-0.2c-0.6-0.1-1.2-0.3-1.7-0.5
	c-0.5-0.3-1-0.6-1.4-1c-0.4-0.4-0.8-0.9-1-1.4c-0.3-0.5-0.4-1-0.5-1.7c-0.1-0.7-0.2-1.4-0.2-1.9c0-0.2,0-0.9,0-0.9V8.4
	c0,0,0-0.7,0-0.9c0-0.5,0-1.2,0.2-1.9C1.2,5.1,1.3,4.5,1.6,4c0.3-0.5,0.6-1,1-1.4C3,2.2,3.5,1.9,4,1.6c0.5-0.3,1.1-0.4,1.7-0.5
	C6.3,0.9,7,0.9,7.5,0.9l0.9,0h148l0.9,0c0.5,0,1.2,0,1.9,0.2c0.6,0.1,1.1,0.3,1.7,0.5c0.5,0.3,1,0.6,1.4,1c0.4,0.4,0.8,0.9,1,1.4
	c0.3,0.5,0.4,1.1,0.5,1.6c0.1,0.6,0.2,1.3,0.2,1.9c0,0.3,0,0.6,0,0.9c0,0.4,0,0.7,0,1.1V30.5z"/>
<g id="spotify-podcast-badge-blk-wht-660x160">
	<g id="Group-2-Copy-2">
		<path id="Combined-Shape" class="st1" d="M89.6,18.8c0.6,0.3,1.3,0.2,1.7-0.4c0.3-0.6,0.2-1.3-0.4-1.7c-4.8-2.9-12.4-3.1-17-1.7
			c-0.6,0.2-1,0.9-0.8,1.5c0.2,0.6,0.9,1,1.5,0.8C78.5,16,85.4,16.3,89.6,18.8z M89.4,22.5c0.3-0.5,0.1-1.1-0.3-1.4
			c-4-2.5-9.9-3.2-14.6-1.7c-0.5,0.2-0.8,0.7-0.7,1.3c0.2,0.5,0.7,0.8,1.3,0.7c4.1-1.3,9.5-0.6,12.9,1.5
			C88.5,23.1,89.1,22.9,89.4,22.5z M87.9,26c0.2-0.4,0.1-0.9-0.3-1.1c-3.4-2.1-7.7-2.6-12.6-1.5c-0.4,0.1-0.7,0.5-0.6,1
			c0.1,0.4,0.5,0.7,1,0.6c4.5-1,8.4-0.6,11.4,1.3C87.1,26.5,87.6,26.4,87.9,26z M81.9,7.2c7.2,0,13,5.8,13,13.1
			c0,7.2-5.8,13.1-13,13.1c-7.2,0-13-5.8-13-13.1C68.9,13,74.7,7.2,81.9,7.2z M104.2,19.2c2.7,0.7,3.8,1.7,3.8,3.6
			c0,2.2-1.7,3.7-4.3,3.7c-1.8,0-3.6-0.7-4.9-1.9c-0.1-0.1-0.1-0.1,0-0.2l1.2-1.5c0,0,0.1,0,0.1-0.1c0,0,0.1,0,0.1,0
			c1.2,1,2.3,1.5,3.6,1.5c1.2,0,1.9-0.5,1.9-1.3c0-0.7-0.4-1.2-2.5-1.7c-2.5-0.6-4-1.4-4-3.6c0-2.1,1.7-3.6,4.1-3.6
			c1.6,0,3.1,0.5,4.3,1.5c0.1,0,0.1,0.1,0,0.2l-1.1,1.6c0,0-0.1,0.1-0.1,0.1c0,0-0.1,0-0.1,0c-1.1-0.8-2.1-1.2-3.1-1.2
			c-1,0-1.7,0.5-1.7,1.3C101.6,18.3,102,18.7,104.2,19.2z M115.9,21.7c0-1.6-1-2.7-2.4-2.7c-1.4,0-2.4,1.2-2.4,2.7
			c0,1.5,1,2.7,2.4,2.7C114.9,24.4,115.9,23.3,115.9,21.7z M114,17c2.1,0,4.2,1.6,4.2,4.7c0,3.1-2.1,4.7-4.2,4.7
			c-1.1,0-2.1-0.4-2.8-1.3v3.6c0,0.1-0.1,0.1-0.1,0.1h-2c-0.1,0-0.1-0.1-0.1-0.1V17.3c0-0.1,0.1-0.1,0.1-0.1h2
			c0.1,0,0.1,0.1,0.1,0.1v1C111.9,17.5,112.9,17,114,17z M123.7,24.4c1.5,0,2.5-1.1,2.5-2.7c0-1.5-1.1-2.7-2.5-2.7
			c-1.4,0-2.5,1.1-2.5,2.7C121.2,23.3,122.2,24.4,123.7,24.4z M123.7,17c2.7,0,4.8,2.1,4.8,4.7c0,2.7-2.1,4.8-4.8,4.8
			c-2.7,0-4.8-2.1-4.8-4.7C118.9,19.1,121,17,123.7,17z M134.3,17.2c0.1,0,0.1,0.1,0.1,0.1v1.7c0,0.1-0.1,0.1-0.1,0.1h-2.2v4.2
			c0,0.7,0.3,1,0.9,1c0.4,0,0.8-0.1,1.2-0.3c0,0,0.1,0,0.1,0c0,0,0.1,0.1,0.1,0.1v1.7c0,0.1,0,0.1-0.1,0.1c-0.6,0.3-1.2,0.5-1.9,0.5
			c-1.8,0-2.7-0.9-2.7-2.7v-4.5h-1c-0.1,0-0.1-0.1-0.1-0.1v-1.7c0-0.1,0.1-0.1,0.1-0.1h1v-2.3c0-0.1,0.1-0.1,0.1-0.1h2
			c0.1,0,0.1,0.1,0.1,0.1v2.3H134.3z M142,17.2h3.4c0.1,0,0.1,0,0.1,0.1l2.3,6.2l2.1-6.2c0-0.1,0.1-0.1,0.1-0.1h2.1
			c0,0,0.1,0,0.1,0.1c0,0,0,0.1,0,0.1l-3.5,9.1c-0.7,1.9-1.5,2.6-3,2.6c-0.8,0-1.4-0.2-2.1-0.6c-0.1,0-0.1-0.1-0.1-0.2l0.7-1.5
			c0,0,0-0.1,0.1-0.1c0,0,0.1,0,0.1,0c0.4,0.2,0.8,0.3,1.1,0.3c0.4,0,0.8-0.1,1.1-0.9l-2.9-6.9H142v6.9c0,0.1-0.1,0.1-0.1,0.1h-2
			c-0.1,0-0.1-0.1-0.1-0.1v-6.9h-1c-0.1,0-0.1-0.1-0.1-0.1v-1.7c0-0.1,0.1-0.1,0.1-0.1h1v-0.4c0-2,1-3,2.8-3c0.8,0,1.3,0.1,1.7,0.2
			c0.1,0,0.1,0.1,0.1,0.1v1.7c0,0,0,0.1-0.1,0.1c0,0-0.1,0-0.1,0c-0.4-0.1-0.7-0.2-1.1-0.2c-0.7,0-1,0.4-1,1.2V17.2z M137.5,17.2
			c0.1,0,0.1,0.1,0.1,0.1v8.8c0,0.1-0.1,0.1-0.1,0.1h-2c-0.1,0-0.1-0.1-0.1-0.1v-8.8c0-0.1,0.1-0.1,0.1-0.1H137.5z M136.5,13.2
			c0.8,0,1.4,0.6,1.4,1.4c0,0.8-0.6,1.4-1.4,1.4c-0.8,0-1.4-0.6-1.4-1.4C135.1,13.8,135.7,13.2,136.5,13.2z M154.2,18.1h-0.4v0.5
			h0.4c0.2,0,0.3-0.1,0.3-0.2C154.5,18.1,154.4,18.1,154.2,18.1z M154.4,18.7l0.4,0.6h-0.3l-0.4-0.5h-0.3v0.5h-0.3v-1.5h0.7
			c0.3,0,0.6,0.2,0.6,0.5C154.8,18.5,154.6,18.7,154.4,18.7z M154.1,17.3c-0.7,0-1.3,0.6-1.3,1.3c0,0.7,0.5,1.3,1.3,1.3
			c0.7,0,1.3-0.6,1.3-1.3C155.4,17.9,154.8,17.3,154.1,17.3z M154.1,20c-0.8,0-1.4-0.6-1.4-1.4c0-0.8,0.6-1.4,1.4-1.4
			c0.8,0,1.4,0.6,1.4,1.4C155.5,19.4,154.9,20,154.1,20z"/>
		<path id="LISTEN-ON" class="st1" d="M12,23.5H7.8v-6.7h1.3v5.5h3V23.5z M15.2,23.5h-1.3v-6.7h1.3V23.5z M22.1,18.4l-1.2,0.4
			c-0.1-0.4-0.4-0.9-1.2-0.9c-0.6,0-1,0.4-1,0.9c0,0.4,0.2,0.7,0.7,0.8l0.9,0.2c1.2,0.2,1.9,1,1.9,2c0,1-0.9,2.1-2.4,2.1
			c-1.8,0-2.6-1.1-2.7-2.1l1.2-0.3c0.1,0.7,0.5,1.3,1.5,1.3c0.7,0,1.1-0.3,1.1-0.8c0-0.4-0.3-0.7-0.8-0.8l-0.9-0.2
			c-1.1-0.2-1.8-0.9-1.8-1.9c0-1.2,1.1-2.1,2.3-2.1C21.3,16.6,21.9,17.6,22.1,18.4z M29.1,18H27v5.5h-1.3V18h-2.1v-1.2h5.5V18z
			 M35.1,23.5h-4.2v-6.7h4.2V18h-2.9v1.5h2.6v1.2h-2.6v1.5h2.9V23.5z M43,23.5h-1.4l-3-4.8v4.8h-1.3v-6.7h1.6l2.8,4.4v-4.4H43V23.5z
			 M49.3,20.1c0,1.5,1.1,2.2,2.1,2.2c1,0,2.1-0.7,2.1-2.2s-1.1-2.2-2.1-2.2C50.3,17.9,49.3,18.6,49.3,20.1z M47.9,20.1
			c0-2.2,1.6-3.5,3.4-3.5c1.8,0,3.4,1.3,3.4,3.5c0,2.2-1.6,3.5-3.4,3.5C49.6,23.6,47.9,22.3,47.9,20.1z M62.6,23.5h-1.4l-3-4.8v4.8
			h-1.3v-6.7h1.6l2.8,4.4v-4.4h1.3V23.5z"/>
	</g>
</g>
</svg>
