<?xml version="1.0" encoding="utf-8"?>
<!-- Generator: Adobe Illustrator 23.0.2, SVG Export Plug-In . SVG Version: 6.00 Build 0)  -->
<svg version="1.1" xmlns="http://www.w3.org/2000/svg" xmlns:xlink="http://www.w3.org/1999/xlink" x="0px" y="0px"
	 viewBox="0 0 326.03 312.9" enable-background="new 0 0 326.03 312.9" xml:space="preserve">
<g>
</g>
<g>
	<g>
		<path fill="#F7D34F" stroke="#0981A8" stroke-width="1.5" d="M142.54,52c0,0-0.75-6.78-6.78-14.31"/>
		<path fill="#F7D34F" stroke="#0981A8" stroke-width="1.5" d="M122.2,39.95c0,0-21.1,4.52-27.12,7.53
			c-8.52,4.26-16.58,3.77-30.89,7.53c-14.31,3.77-61.78-0.75-61.78-0.75l30.89,20.34l-22.6,24.11c0,0,18.08-9.04,38.42-12.05
			s35.41-3.77,47.46-10.55s25.62-10.55,35.41-12.05c7.02-1.08,11.22-7.06,10.21-11.68c-1.35-6.13-6.37-17.24-10.58-22.92
			C131.62,29.46,132.25,37.62,122.2,39.95z"/>
		<path fill="#F7D34F" stroke="#0981A8" stroke-width="1.5" d="M142.2,52.38c0-7.53-10.45-25.59-14.79-33.36
			c-4.34-7.77-4.89,17.33-4.89,23.19C122.52,49.74,137.85,44.47,142.2,52.38z"/>
		<path fill="#F7D34F" stroke="#0981A8" stroke-width="1.5" d="M182.27,52c0,0,0.75-6.78,6.78-14.31"/>
		<path fill="#F7D34F" stroke="#0981A8" stroke-width="1.5" d="M202.61,39.95c0,0,21.1,4.52,27.12,7.53
			c8.52,4.26,16.58,3.77,30.89,7.53c14.31,3.77,61.78-0.75,61.78-0.75l-30.89,20.34l22.6,24.11c0,0-18.08-9.04-38.42-12.05
			s-35.41-3.77-47.46-10.55s-25.62-10.55-35.41-12.05c-7.02-1.08-11.22-7.06-10.21-11.68c1.35-6.13,6.37-17.24,10.58-22.92
			C193.19,29.46,192.56,37.62,202.61,39.95z"/>
		<path fill="#F7D34F" stroke="#0981A8" stroke-width="1.5" d="M182.61,52.38c0-7.53,10.45-25.59,14.79-33.36s4.89,17.33,4.89,23.19
			C202.29,49.74,186.96,44.47,182.61,52.38z"/>
		<path fill="#F7D34F" stroke="#0981A8" stroke-width="1.5" d="M162.41,3.43c21.97,0,33.35,4.03,39.89,7.14s11.41,6.96,9.76,11.54
			s-9.76,21.62-9.76,21.62s-23.02-11.35-39.89-11.35s-39.89,11.35-39.89,11.35s-8.11-17.04-9.76-21.62s3.22-8.43,9.76-11.54
			C129.05,7.46,140.44,3.43,162.41,3.43z"/>
	</g>
	<path fill="none" stroke="#0981A8" stroke-width="1.5" d="M162.92,68.58c3.8,0,7.18,4.22,7.18,4.22s0.84-4.22,8.44-4.22
		c13.93,0,24.91,13.51,32.08,13.51c7.18,0,14.35-3.38,14.35-3.38l17.73,26.59c0,0-15.2,10.55-15.2,28.7
		c0,18.15,19.84,36.72,19.84,67.11c0,30.39-24.06,38.41-33.77,38.41c-6.75,0-12.66-0.84-12.66-0.84s2.33,9.43-11.4,14.35
		c-22.37,8.02-22.79,15.2-26.59,15.2c-3.8,0-4.22-7.17-26.59-15.2c-13.72-4.92-11.4-14.35-11.4-14.35s-5.91,0.84-12.66,0.84
		c-9.71,0-33.77-8.02-33.77-38.41c0-30.39,19.84-48.96,19.84-67.11c0-18.15-15.19-28.7-15.19-28.7l17.73-26.59
		c0,0,7.18,3.38,14.35,3.38c7.18,0,18.15-13.51,32.08-13.51c7.6,0,8.44,4.22,8.44,4.22S159.12,68.58,162.92,68.58z"/>
	<path fill="#0981A8" d="M167.14,76.6c0,0,1.27,3.38,5.07,5.06c2.78,1.24,5.49,1.69,7.18-0.42c1.69-2.11-2.11-4.22-1.27-6.33
		c0.85-2.11,2.53-3.38,6.33-1.69c3.8,1.69,4.64,5.49,3.8,7.18c-0.84,1.69-5.91,1.69-5.91,3.8c0,2.11,2.11,5.49,6.33,5.49
		c3.38,0,9.71-5.49,9.71-5.49s4.64,6.75,13.51,6.75c5.07,0,4.64-6.33,4.64-6.33l5.49-1.69l15.2,21.53c0,0-14.35,8.02-14.35,29.12
		c0,21.1,19.84,38.83,19.84,68.38c0,29.55-27.01,33.77-30.39,33.77c-12.66,0-13.71-4.4-16.46-2.11c-2.53,2.11,1.27,9.71-4.64,13.51
		c-5.91,3.8-17.68,6.05-21.11,8.44c-4.22,2.95-7.6,8.02-7.6,8.02s-3.38-5.07-7.6-8.02c-3.42-2.4-15.2-4.64-21.11-8.44
		c-5.91-3.8-2.11-11.4-4.64-13.51c-2.75-2.29-3.8,2.11-16.46,2.11c-3.38,0-30.39-4.22-30.39-33.77c0-29.55,19.84-47.28,19.84-68.38
		c0-21.11-14.35-29.12-14.35-29.12l15.2-21.53l5.49,1.69c0,0-0.42,6.33,4.64,6.33c8.86,0,13.51-6.75,13.51-6.75s6.33,5.49,9.71,5.49
		c4.22,0,6.33-3.38,6.33-5.49c0-2.11-5.06-2.11-5.91-3.8c-0.84-1.69,0-5.49,3.8-7.18c3.8-1.69,5.49-0.42,6.33,1.69
		c0.84,2.11-2.95,4.22-1.27,6.33c1.69,2.11,4.39,1.66,7.18,0.42c3.8-1.69,5.07-5.06,5.07-5.06s2.53,2.11,4.64,2.11
		C164.61,78.71,167.14,76.6,167.14,76.6z"/>
	<g>
		<path fill="#F7D34F" d="M162.9,121.44c5.98,0,7.3-6.06,7.3-6.06c-2.95-0.18-3.64-0.22-3.64-0.22s-0.56-14.07-0.56-16.6
			c0-2.53,0-6.75-3.1-6.75s-3.1,4.22-3.1,6.75c0,2.53-0.56,16.6-0.56,16.6s-0.58,0.04-3.54,0.22
			C155.71,115.37,156.92,121.44,162.9,121.44z"/>
		<path fill="#F7D34F" d="M162.9,129.04c8.23,0,14.91-6.67,14.91-14.91c0-6.48-4.14-11.98-9.92-14.03l0.2,6.33
			c2.47,1.67,4.09,4.5,4.09,7.7c0,5.13-4.16,9.29-9.29,9.29c-5.13,0-9.29-4.16-9.29-9.29c0-3.17,1.59-5.96,4.01-7.64l0.2-6.36
			c-5.73,2.08-9.83,7.55-9.83,14C148,122.37,154.67,129.04,162.9,129.04z"/>
		<path fill="#F7D34F" d="M172.91,128.11l30.24-1.81c7.32-0.84,7.32-8.34-0.56-8.91c-1.91-0.14-13.15-0.84-22.58-1.42
			C179.48,120.98,176.8,125.33,172.91,128.11z"/>
		<path fill="#F7D34F" d="M212.44,176.5c-0.28-3.38-3.66-5.91-6.19-0.56c-2.53,5.35-9.01,12.66-12.38,15.48
			c-3.38,2.81,2.25,5.35,2.25,5.35s-6.75,7.6-12.38,10.69c-5.63,3.1-15.48,4.5-15.48,4.5l-1.09-81.16
			c-1.36,0.35-2.79,0.55-4.26,0.55c-1.47,0-2.88-0.2-4.24-0.55l-1.09,81.16c0,0-9.85-1.41-15.48-4.5
			c-5.63-3.09-12.38-10.69-12.38-10.69s5.63-2.53,2.25-5.35c-3.38-2.82-9.85-10.13-12.38-15.48c-2.53-5.34-5.91-2.81-6.19,0.56
			c-0.28,3.38,0,22.79,1.69,27.02c1.69,4.22,4.22,3.94,6.75,0c0,0,6.19,6.75,16.88,11.82c10.69,5.07,16.32,7.88,18.57,10.41
			c2.25,2.53,3.94,5.63,5.63,5.63c1.69,0,3.38-3.1,5.63-5.63c2.25-2.53,7.88-5.35,18.57-10.41c10.69-5.06,16.88-11.82,16.88-11.82
			c2.53,3.94,5.07,4.22,6.75,0C212.44,199.29,212.72,179.87,212.44,176.5z"/>
		<path fill="#F7D34F" d="M122.67,126.31l30.22,1.81c-3.88-2.78-6.56-7.13-7.1-12.13c-9.42,0.58-20.65,1.28-22.56,1.42
			C115.36,117.96,115.36,125.46,122.67,126.31z"/>
	</g>
	<g>
		<line fill="#F7D34F" stroke="#0581A8" stroke-width="1.5" x1="135.01" y1="259.95" x2="130.48" y2="273.51"/>
		<path fill="#F7D34F" stroke="#0981A8" stroke-width="1.5" d="M124.75,288.2c-1.51-3.42-6.87-5.92-12.88-7.89
			c-7.47-2.45-18.3-1.52-37.89-3.03c-19.59-1.51-29.38-13.56-43.7-15.82s-24.86-11.3-24.86-11.3l33.9-2.26
			c-21.85-9.04-26.37-27.88-26.37-27.88s14.31,11.3,21.85,13.56s24.86,3.77,31.64,9.79s25.62,9.79,36.16,8.29s31.64,3.01,32.4,8.29
			L124.75,288.2z"/>
		<path fill="#F7D34F" stroke="#0981A8" stroke-width="1.5" d="M135.01,259.95c-1.74,5.02-12.77-0.27-15.82,6.03
			c-3.05,6.3,5.57,22.23,5.57,22.23L135.01,259.95z"/>
		<line fill="#F7D34F" stroke="#0581A8" stroke-width="1.5" x1="189.81" y1="259.95" x2="194.33" y2="273.51"/>
		<path fill="#F7D34F" stroke="#0981A8" stroke-width="1.5" d="M200.06,288.2c1.51-3.42,6.87-5.92,12.88-7.89
			c7.47-2.45,18.3-1.52,37.89-3.03c19.59-1.51,29.38-13.56,43.7-15.82c14.31-2.26,24.86-11.3,24.86-11.3l-33.9-2.26
			c21.85-9.04,26.37-27.88,26.37-27.88s-14.31,11.3-21.85,13.56c-7.53,2.26-24.86,3.77-31.64,9.79c-6.78,6.03-25.62,9.79-36.16,8.29
			c-10.55-1.51-31.64,3.01-32.4,8.29L200.06,288.2z"/>
		<path fill="#F7D34F" stroke="#0981A8" stroke-width="1.5" d="M189.81,259.95c1.74,5.02,12.77-0.27,15.82,6.03
			s-5.57,22.23-5.57,22.23L189.81,259.95z"/>
		<path fill="#F7D34F" stroke="#0981A8" stroke-width="1.5" d="M205.63,265.97c0,0,9.79,19.59,9.79,23.36
			c0,3.77-24.66,21.1-53.02,21.1s-53.02-17.33-53.02-21.1c0-3.77,9.79-23.36,9.79-23.36s13.15,14.32,43.22,14.32
			S205.63,265.97,205.63,265.97z"/>
	</g>
</g>
<g>
	<g>
		<path fill="#0981A8" d="M132.45,30.36l-4.22-14.5l5.05-1.47c1.29-0.38,2.25-0.52,2.88-0.42s1.22,0.42,1.76,0.96
			c0.54,0.54,0.95,1.26,1.21,2.15c0.33,1.13,0.32,2.13-0.02,2.98c-0.34,0.85-0.99,1.51-1.94,1.98c0.62,0.22,1.16,0.5,1.63,0.84
			c0.46,0.34,1.15,0.99,2.06,1.96l2.27,2.41l-2.86,0.83l-2.66-2.65c-0.96-0.96-1.59-1.55-1.9-1.77c-0.31-0.22-0.6-0.35-0.88-0.39
			c-0.28-0.04-0.7,0.03-1.25,0.19l-0.49,0.14l1.76,6.05L132.45,30.36z M132.4,21.3l1.78-0.52c1.09-0.32,1.77-0.57,2.03-0.75
			c0.27-0.18,0.45-0.44,0.55-0.79c0.1-0.34,0.08-0.76-0.06-1.24c-0.13-0.46-0.33-0.81-0.6-1.03c-0.27-0.23-0.57-0.35-0.92-0.36
			c-0.25-0.01-0.91,0.15-1.98,0.46l-1.88,0.55L132.4,21.3z"/>
		<path fill="#0981A8" d="M144.98,27l-1.88-14.98l2.47-0.31l0.74,5.9l4.88-0.61l-0.74-5.9l2.47-0.31l1.88,14.98l-2.47,0.31
			l-0.82-6.55l-4.88,0.61l0.82,6.55L144.98,27z"/>
		<path fill="#0981A8" d="M157.52,18.1c0.03-1.8,0.31-3.28,0.86-4.43s1.26-2.01,2.12-2.57c0.87-0.56,1.91-0.83,3.13-0.81
			c1.77,0.03,3.21,0.72,4.3,2.09s1.63,3.3,1.59,5.8c-0.04,2.53-0.65,4.49-1.86,5.9c-1.05,1.24-2.47,1.85-4.25,1.82
			c-1.79-0.03-3.2-0.67-4.22-1.92C158.05,22.54,157.48,20.58,157.52,18.1z M160.09,18.04c-0.03,1.74,0.29,3.04,0.93,3.92
			c0.65,0.88,1.46,1.32,2.44,1.34c0.98,0.01,1.8-0.41,2.46-1.26c0.66-0.85,1-2.17,1.03-3.96c0.02-1.75-0.27-3.05-0.89-3.9
			c-0.62-0.85-1.44-1.28-2.45-1.29s-1.85,0.4-2.5,1.23C160.46,14.96,160.12,16.26,160.09,18.04z"/>
		<path fill="#0981A8" d="M174.45,11.15l4.49,0.78c1.14,0.2,1.97,0.47,2.5,0.83c0.53,0.35,0.99,0.88,1.37,1.56
			c0.38,0.69,0.63,1.54,0.74,2.54s0.04,2.23-0.21,3.65c-0.22,1.29-0.56,2.38-1.02,3.28c-0.46,0.9-0.96,1.59-1.5,2.06
			c-0.54,0.48-1.15,0.8-1.83,0.97c-0.68,0.17-1.52,0.17-2.51,0l-4.62-0.81L174.45,11.15z M176.47,14.1l-1.72,9.84l1.85,0.32
			c0.79,0.14,1.38,0.16,1.76,0.08c0.38-0.09,0.71-0.26,0.99-0.52c0.28-0.26,0.55-0.7,0.81-1.33c0.26-0.62,0.49-1.46,0.67-2.53
			c0.19-1.1,0.27-1.98,0.23-2.65c-0.04-0.66-0.19-1.2-0.45-1.62c-0.26-0.42-0.61-0.73-1.05-0.92c-0.33-0.15-0.99-0.31-1.98-0.48
			L176.47,14.1z"/>
		<path fill="#0981A8" d="M184.61,28.51l4.94-14.27l8.68,3.01l-0.84,2.41l-6.33-2.19l-1.1,3.16l5.88,2.04l-0.83,2.4l-5.88-2.04
			l-1.34,3.87l6.54,2.27l-0.84,2.41L184.61,28.51z"/>
	</g>
	<g>
		<path fill="#0981A8" d="M127.51,295.67l5.78-15.11l2.74,1.05l-2.28,5.95l5.41,2.07l2.28-5.95l2.74,1.05l-5.78,15.11l-2.74-1.05
			l2.53-6.61l-5.41-2.07l-2.53,6.61L127.51,295.67z"/>
		<path fill="#0981A8" d="M147.77,294c0.18-1.92,0.64-3.47,1.38-4.66c0.74-1.18,1.64-2.03,2.71-2.55c1.06-0.51,2.31-0.71,3.75-0.57
			c2.08,0.19,3.71,1.07,4.88,2.64c1.18,1.57,1.64,3.68,1.39,6.35c-0.25,2.7-1.14,4.74-2.67,6.13c-1.34,1.23-3.05,1.75-5.14,1.55
			c-2.1-0.2-3.7-1.01-4.8-2.45C148.02,298.79,147.52,296.64,147.77,294z M150.8,294.17c-0.17,1.85,0.09,3.28,0.78,4.28
			c0.69,1,1.61,1.55,2.75,1.66c1.15,0.11,2.15-0.26,3-1.11c0.84-0.85,1.35-2.23,1.53-4.13c0.17-1.87-0.07-3.28-0.72-4.25
			c-0.66-0.96-1.58-1.5-2.77-1.61c-1.2-0.11-2.21,0.25-3.04,1.08C151.48,290.92,150.97,292.28,150.8,294.17z"/>
		<path fill="#0981A8" d="M169.65,302.81l-2.6-15.97l4.67-0.76c1.74-0.28,2.89-0.39,3.45-0.33c0.89,0.11,1.68,0.52,2.37,1.24
			s1.13,1.71,1.34,2.98c0.19,1.15,0.11,2.16-0.25,3.02c-0.35,0.86-0.86,1.5-1.53,1.94c-0.67,0.43-1.88,0.79-3.64,1.08l-1.91,0.31
			l0.98,6.02L169.65,302.81z M170.39,289.07l0.74,4.54l1.61-0.26c1.08-0.18,1.8-0.36,2.17-0.57c0.37-0.2,0.64-0.5,0.83-0.9
			c0.19-0.4,0.24-0.86,0.16-1.39c-0.09-0.53-0.29-0.96-0.6-1.28s-0.67-0.51-1.07-0.58s-1.2,0-2.42,0.2L170.39,289.07z"/>
		<path fill="#0981A8" d="M189.06,298.43l-6.68-14.73l9.86-4.47l1.13,2.49l-7.19,3.26l1.48,3.27l6.68-3.03l1.13,2.48l-6.68,3.03
			l1.81,4l7.43-3.37l1.13,2.49L189.06,298.43z"/>
	</g>
	<g>
		<g>
			<path fill="#0981A8" d="M40.02,75.12l2.15-0.54c0.46,1.89,1.38,2.76,2.74,2.6c0.68-0.08,1.18-0.33,1.53-0.77
				c0.34-0.44,0.48-0.94,0.41-1.52c-0.04-0.34-0.14-0.62-0.3-0.85s-0.39-0.4-0.68-0.52c-0.29-0.12-0.99-0.3-2.1-0.54
				c-0.99-0.21-1.72-0.48-2.21-0.8c-0.48-0.32-0.89-0.78-1.22-1.36s-0.54-1.22-0.62-1.92c-0.09-0.82-0.01-1.57,0.25-2.27
				c0.26-0.69,0.67-1.24,1.22-1.64c0.55-0.4,1.26-0.65,2.13-0.75c1.3-0.15,2.36,0.13,3.18,0.83c0.82,0.7,1.33,1.78,1.54,3.23
				l-2.22,0.39c-0.19-0.79-0.47-1.33-0.83-1.62s-0.84-0.39-1.45-0.32c-0.6,0.07-1.05,0.26-1.34,0.58c-0.29,0.32-0.42,0.68-0.37,1.1
				c0.05,0.41,0.23,0.73,0.56,0.98c0.33,0.25,1.04,0.48,2.14,0.69c1.16,0.23,2.02,0.52,2.57,0.86c0.55,0.34,0.99,0.81,1.32,1.41
				c0.34,0.6,0.56,1.35,0.66,2.25c0.15,1.3-0.09,2.44-0.71,3.41c-0.62,0.97-1.7,1.54-3.23,1.72C42.42,80.06,40.72,78.51,40.02,75.12
				z"/>
			<path fill="#0981A8" d="M55.21,78.17l-1.9-12.4l-3.27,0.5l-0.39-2.53l8.75-1.34l0.39,2.52l-3.26,0.5l1.9,12.4L55.21,78.17z"/>
			<path fill="#0981A8" d="M72.13,75.2l-2.4,0.45l-1.59-3.18l-4.38,0.83l-0.27,3.53l-2.35,0.44l1.47-15.64l2.34-0.44L72.13,75.2z
				 M66.95,70.1l-2.55-5.22l-0.44,5.79L66.95,70.1z"/>
			<path fill="#0981A8" d="M75.87,74.35l-2.75-12.24l-3.23,0.73l-0.56-2.49l8.64-1.94l0.56,2.49l-3.22,0.72l2.75,12.24L75.87,74.35z
				"/>
			<path fill="#0981A8" d="M83.95,72.47l-3.87-14.6l7.99-2.12l0.65,2.47l-5.82,1.54L83.76,63l5.41-1.44l0.65,2.46l-5.41,1.44
				l1.05,3.96l6.02-1.6l0.65,2.47L83.95,72.47z"/>
			<path fill="#0981A8" d="M97.69,60.89c-0.57-1.71-0.81-3.19-0.73-4.44c0.08-1.26,0.4-2.28,0.96-3.06c0.55-0.79,1.35-1.35,2.39-1.7
				c1.51-0.51,2.96-0.28,4.34,0.69c1.38,0.96,2.47,2.63,3.26,5c0.8,2.4,0.92,4.44,0.37,6.12c-0.49,1.49-1.49,2.49-3.01,2.99
				c-1.53,0.51-2.93,0.33-4.21-0.56C99.6,64.92,98.48,63.24,97.69,60.89z M99.86,60.06c0.55,1.65,1.25,2.79,2.09,3.42
				s1.68,0.81,2.51,0.53c0.84-0.28,1.4-0.92,1.68-1.92c0.28-1,0.13-2.35-0.43-4.04c-0.56-1.66-1.23-2.8-2.04-3.41
				c-0.8-0.61-1.64-0.78-2.51-0.49c-0.87,0.29-1.44,0.93-1.72,1.91C99.16,57.05,99.3,58.38,99.86,60.06z"/>
			<path fill="#0981A8" d="M113.25,63.43l-5.44-14.09l7.13-2.75l0.92,2.38l-5.03,1.94l1.29,3.33l4.36-1.68l0.92,2.38l-4.36,1.68
				l2.31,5.99L113.25,63.43z"/>
		</g>
	</g>
	<g>
		<path fill="#0981A8" d="M212.06,63.48l5.17-14.19l2.34,0.85l-5.17,14.19L212.06,63.48z"/>
		<path fill="#0981A8" d="M218.85,60.73l2.41,0.5c-0.35,1.92,0.2,3.12,1.64,3.6c0.72,0.24,1.34,0.24,1.88,0
			c0.54-0.24,0.9-0.63,1.08-1.19c0.11-0.33,0.13-0.63,0.06-0.9c-0.07-0.28-0.22-0.54-0.47-0.78c-0.24-0.24-0.87-0.73-1.88-1.45
			c-0.91-0.64-1.54-1.22-1.89-1.73c-0.35-0.51-0.57-1.11-0.65-1.78c-0.08-0.67-0.01-1.35,0.21-2.02c0.26-0.78,0.67-1.43,1.24-1.93
			s1.21-0.81,1.94-0.92c0.73-0.11,1.56-0.01,2.48,0.29c1.38,0.46,2.33,1.19,2.86,2.2s0.58,2.22,0.16,3.63l-2.42-0.67
			c0.15-0.8,0.11-1.42-0.14-1.84s-0.68-0.74-1.32-0.95c-0.64-0.21-1.17-0.24-1.61-0.09c-0.43,0.15-0.72,0.42-0.85,0.82
			c-0.13,0.39-0.08,0.77,0.14,1.14c0.22,0.37,0.85,0.9,1.87,1.6c1.08,0.74,1.82,1.39,2.22,1.95s0.64,1.18,0.72,1.88
			s-0.02,1.47-0.31,2.33c-0.41,1.24-1.15,2.16-2.19,2.75s-2.39,0.62-4.01,0.07C219.14,66.29,218.08,64.11,218.85,60.73z"/>
		<path fill="#0981A8" d="M230.24,69.63l4.21-14.37l2.39,0.7l-3.49,11.92l5.97,1.75l-0.72,2.45L230.24,69.63z"/>
		<path fill="#0981A8" d="M252.55,75.61l-2.63-0.65l-0.23-3.58l-4.81-1.19l-1.81,3.07l-2.58-0.64l8.31-13.5l2.57,0.64L252.55,75.61z
			 M249.53,68.71l-0.31-5.85l-2.97,5.04L249.53,68.71z"/>
		<path fill="#0981A8" d="M255.36,76.2l2.87-14.83l2.39,0.46l3.06,10.86l1.91-9.9l2.29,0.44L265,78.07l-2.47-0.48l-3.03-10.61
			l-1.87,9.67L255.36,76.2z"/>
		<path fill="#0981A8" d="M271.13,63.79l4.52,0.59c1.14,0.15,1.99,0.39,2.54,0.72c0.55,0.33,1.03,0.83,1.44,1.5
			c0.41,0.67,0.69,1.51,0.84,2.51c0.15,1,0.13,2.22-0.05,3.66c-0.17,1.29-0.46,2.4-0.88,3.32c-0.42,0.92-0.89,1.63-1.41,2.13
			c-0.52,0.5-1.12,0.85-1.79,1.05c-0.67,0.2-1.51,0.23-2.51,0.1l-4.65-0.61L271.13,63.79z M273.27,66.64l-1.29,9.91l1.86,0.24
			c0.8,0.1,1.38,0.1,1.76,0s0.7-0.29,0.97-0.56s0.52-0.73,0.75-1.36s0.42-1.48,0.56-2.55c0.14-1.11,0.18-1.99,0.11-2.65
			c-0.07-0.66-0.24-1.19-0.52-1.6s-0.64-0.7-1.08-0.88c-0.34-0.13-1-0.27-2-0.4L273.27,66.64z"/>
	</g>
</g>
</svg>
