<?xml version="1.0" encoding="utf-8"?>
<!-- Generator: Adobe Illustrator 23.0.1, SVG Export Plug-In . SVG Version: 6.00 Build 0)  -->
<svg version="1.1" id="Layer_1" xmlns="http://www.w3.org/2000/svg" xmlns:xlink="http://www.w3.org/1999/xlink" x="0px" y="0px"
	 viewBox="0 0 88.96 164.72" style="enable-background:new 0 0 88.96 164.72;" xml:space="preserve">
<style type="text/css">
	.st0{fill:#F2EACC;stroke:#3D3C45;stroke-width:3;stroke-miterlimit:10;}
	.st1{fill:none;stroke:#3D3C45;stroke-width:3;stroke-miterlimit:10;}
</style>
<g>
	<rect x="4.25" y="4.05" class="st0" width="80.67" height="13.87"/>
	<rect x="9.18" y="17.91" class="st0" width="70.36" height="4.03"/>
	<rect x="4.25" y="21.94" class="st0" width="80.67" height="141.15"/>
	<rect x="4.25" y="21.94" class="st0" width="80.67" height="7.6"/>
	<line class="st1" x1="4.25" y1="38.94" x2="84.92" y2="38.94"/>
	<line class="st1" x1="4.25" y1="44.31" x2="84.92" y2="44.31"/>
	<line class="st1" x1="4.25" y1="49.67" x2="84.92" y2="49.67"/>
	<line class="st1" x1="4.25" y1="55.04" x2="84.92" y2="55.04"/>
	<line class="st1" x1="4.25" y1="60.41" x2="84.92" y2="60.41"/>
	<line class="st1" x1="4.25" y1="65.78" x2="84.92" y2="65.78"/>
	<line class="st1" x1="4.25" y1="71.15" x2="84.92" y2="71.15"/>
	<line class="st1" x1="4.25" y1="76.51" x2="84.92" y2="76.51"/>
	<line class="st1" x1="4.25" y1="81.88" x2="84.92" y2="81.88"/>
	<line class="st1" x1="4.25" y1="87.25" x2="84.92" y2="87.25"/>
	<line class="st1" x1="4.25" y1="92.62" x2="84.92" y2="92.62"/>
	<line class="st1" x1="4.25" y1="97.99" x2="84.92" y2="97.99"/>
	<line class="st1" x1="4.25" y1="103.35" x2="84.92" y2="103.35"/>
	<line class="st1" x1="4.25" y1="108.72" x2="84.92" y2="108.72"/>
	<line class="st1" x1="4.25" y1="114.09" x2="84.92" y2="114.09"/>
	<line class="st1" x1="4.25" y1="119.46" x2="84.92" y2="119.46"/>
	<line class="st1" x1="4.25" y1="124.83" x2="84.92" y2="124.83"/>
	<line class="st1" x1="4.25" y1="130.19" x2="84.92" y2="130.19"/>
	<line class="st1" x1="4.25" y1="135.56" x2="84.92" y2="135.56"/>
	<line class="st1" x1="4.25" y1="140.93" x2="84.92" y2="140.93"/>
	<line class="st1" x1="4.25" y1="146.3" x2="84.92" y2="146.3"/>
	<line class="st1" x1="4.25" y1="151.66" x2="84.92" y2="151.66"/>
</g>
</svg>
